<?xml version="1.0" encoding="us-ascii" standalone="no"?><svg xmlns="http://www.w3.org/2000/svg" xmlns:xlink="http://www.w3.org/1999/xlink" contentStyleType="text/css" height="579px" preserveAspectRatio="none" style="width:226px;height:579px;background:#FFFFFF;" version="1.1" viewBox="0 0 226 579" width="226px" zoomAndPan="magnify"><defs/><g><ellipse cx="97.5" cy="20" fill="#222222" rx="10" ry="10" style="stroke:#222222;stroke-width:1.0;"/><rect fill="#F1F1F1" height="35.0938" rx="12.5" ry="12.5" style="stroke:#181818;stroke-width:0.5;" width="136" x="29.5" y="94"/><text fill="#000000" font-family="sans-serif" font-size="12" lengthAdjust="spacing" textLength="116" x="39.5" y="116.457">player A places token</text><rect fill="#F1F1F1" height="35.0938" rx="12.5" ry="12.5" style="stroke:#181818;stroke-width:0.5;" width="137" x="29" y="156.5938"/><text fill="#000000" font-family="sans-serif" font-size="12" lengthAdjust="spacing" textLength="117" x="39" y="179.0508">player B places token</text><polygon fill="#F1F1F1" points="97.5,50,109.5,62,97.5,74,85.5,62,97.5,50" style="stroke:#181818;stroke-width:0.5;"/><polygon fill="#F1F1F1" points="32,211.6875,163,211.6875,175,223.6875,163,235.6875,32,235.6875,20,223.6875,32,211.6875" style="stroke:#181818;stroke-width:0.5;"/><text fill="#000000" font-family="sans-serif" font-size="11" lengthAdjust="spacing" textLength="131" x="32" y="228.1885">tokens placed on board &lt; 6</text><text fill="#000000" font-family="sans-serif" font-size="11" lengthAdjust="spacing" textLength="19" x="175" y="221.2705">true</text><rect fill="#F1F1F1" height="35.0938" rx="12.5" ry="12.5" style="stroke:#181818;stroke-width:0.5;" width="136" x="29.5" y="299.6875"/><text fill="#000000" font-family="sans-serif" font-size="12" lengthAdjust="spacing" textLength="116" x="39.5" y="322.1445">player A places token</text><rect fill="#F1F1F1" height="35.0938" rx="12.5" ry="12.5" style="stroke:#181818;stroke-width:0.5;" width="137" x="29" y="403.6992"/><text fill="#000000" font-family="sans-serif" font-size="12" lengthAdjust="spacing" textLength="117" x="39" y="426.1563">player B places token</text><polygon fill="#F1F1F1" points="51.5,354.7813,143.5,354.7813,155.5,366.7813,143.5,378.7813,51.5,378.7813,39.5,366.7813,51.5,354.7813" style="stroke:#181818;stroke-width:0.5;"/><text fill="#000000" font-family="sans-serif" font-size="11" lengthAdjust="spacing" textLength="24" x="101.5" y="390.2002">false</text><text fill="#000000" font-family="sans-serif" font-size="11" lengthAdjust="spacing" textLength="92" x="51.5" y="371.2822">isConnect4PlayerA</text><polygon fill="#F1F1F1" points="97.5,458.793,109.5,470.793,97.5,482.793,85.5,470.793,97.5,458.793" style="stroke:#181818;stroke-width:0.5;"/><polygon fill="#F1F1F1" points="97.5,255.6875,109.5,267.6875,97.5,279.6875,85.5,267.6875,97.5,255.6875" style="stroke:#181818;stroke-width:0.5;"/><polygon fill="#F1F1F1" points="32,502.793,163,502.793,175,514.793,163,526.793,32,526.793,20,514.793,32,502.793" style="stroke:#181818;stroke-width:0.5;"/><text fill="#000000" font-family="sans-serif" font-size="11" lengthAdjust="spacing" textLength="131" x="32" y="519.2939">existWinner OR isBoardFull</text><text fill="#000000" font-family="sans-serif" font-size="11" lengthAdjust="spacing" textLength="24" x="175" y="512.376">false</text><ellipse cx="97.5" cy="557.793" fill="none" rx="11" ry="11" style="stroke:#222222;stroke-width:1.0;"/><ellipse cx="97.5" cy="557.793" fill="#222222" rx="6" ry="6" style="stroke:#222222;stroke-width:1.0;"/><line style="stroke:#181818;stroke-width:1.0;" x1="97.5" x2="97.5" y1="129.0938" y2="156.5938"/><polygon fill="#181818" points="93.5,146.5938,97.5,156.5938,101.5,146.5938,97.5,150.5938" style="stroke:#181818;stroke-width:1.0;"/><line style="stroke:#181818;stroke-width:1.0;" x1="97.5" x2="97.5" y1="74" y2="94"/><polygon fill="#181818" points="93.5,84,97.5,94,101.5,84,97.5,88" style="stroke:#181818;stroke-width:1.0;"/><line style="stroke:#181818;stroke-width:1.0;" x1="175" x2="187" y1="223.6875" y2="223.6875"/><polygon fill="#181818" points="183,149.0938,187,139.0938,191,149.0938,187,145.0938" style="stroke:#181818;stroke-width:1.0;"/><line style="stroke:#181818;stroke-width:1.0;" x1="187" x2="187" y1="62" y2="223.6875"/><line style="stroke:#181818;stroke-width:1.0;" x1="187" x2="109.5" y1="62" y2="62"/><polygon fill="#181818" points="119.5,58,109.5,62,119.5,66,115.5,62" style="stroke:#181818;stroke-width:1.0;"/><line style="stroke:#181818;stroke-width:1.0;" x1="97.5" x2="97.5" y1="191.6875" y2="211.6875"/><polygon fill="#181818" points="93.5,201.6875,97.5,211.6875,101.5,201.6875,97.5,205.6875" style="stroke:#181818;stroke-width:1.0;"/><line style="stroke:#181818;stroke-width:1.0;" x1="97.5" x2="97.5" y1="30" y2="50"/><polygon fill="#181818" points="93.5,40,97.5,50,101.5,40,97.5,44" style="stroke:#181818;stroke-width:1.0;"/><line style="stroke:#181818;stroke-width:1.0;" x1="97.5" x2="97.5" y1="378.7813" y2="403.6992"/><polygon fill="#181818" points="93.5,393.6992,97.5,403.6992,101.5,393.6992,97.5,397.6992" style="stroke:#181818;stroke-width:1.0;"/><line style="stroke:#181818;stroke-width:1.0;" x1="155.5" x2="176" y1="366.7813" y2="366.7813"/><polygon fill="#181818" points="172,411.2461,176,421.2461,180,411.2461,176,415.2461" style="stroke:#181818;stroke-width:1.0;"/><line style="stroke:#181818;stroke-width:1.0;" x1="176" x2="176" y1="366.7813" y2="470.793"/><line style="stroke:#181818;stroke-width:1.0;" x1="176" x2="109.5" y1="470.793" y2="470.793"/><polygon fill="#181818" points="119.5,466.793,109.5,470.793,119.5,474.793,115.5,470.793" style="stroke:#181818;stroke-width:1.0;"/><line style="stroke:#181818;stroke-width:1.0;" x1="97.5" x2="97.5" y1="438.793" y2="458.793"/><polygon fill="#181818" points="93.5,448.793,97.5,458.793,101.5,448.793,97.5,452.793" style="stroke:#181818;stroke-width:1.0;"/><line style="stroke:#181818;stroke-width:1.0;" x1="97.5" x2="97.5" y1="334.7813" y2="354.7813"/><polygon fill="#181818" points="93.5,344.7813,97.5,354.7813,101.5,344.7813,97.5,348.7813" style="stroke:#181818;stroke-width:1.0;"/><line style="stroke:#181818;stroke-width:1.0;" x1="97.5" x2="97.5" y1="279.6875" y2="299.6875"/><polygon fill="#181818" points="93.5,289.6875,97.5,299.6875,101.5,289.6875,97.5,293.6875" style="stroke:#181818;stroke-width:1.0;"/><line style="stroke:#181818;stroke-width:1.0;" x1="175" x2="200" y1="514.793" y2="514.793"/><polygon fill="#181818" points="196,396.1992,200,386.1992,204,396.1992,200,392.1992" style="stroke:#181818;stroke-width:1.0;"/><line style="stroke:#181818;stroke-width:1.0;" x1="200" x2="200" y1="267.6875" y2="514.793"/><line style="stroke:#181818;stroke-width:1.0;" x1="200" x2="109.5" y1="267.6875" y2="267.6875"/><polygon fill="#181818" points="119.5,263.6875,109.5,267.6875,119.5,271.6875,115.5,267.6875" style="stroke:#181818;stroke-width:1.0;"/><line style="stroke:#181818;stroke-width:1.0;" x1="97.5" x2="97.5" y1="482.793" y2="502.793"/><polygon fill="#181818" points="93.5,492.793,97.5,502.793,101.5,492.793,97.5,496.793" style="stroke:#181818;stroke-width:1.0;"/><line style="stroke:#181818;stroke-width:1.0;" x1="97.5" x2="97.5" y1="235.6875" y2="255.6875"/><polygon fill="#181818" points="93.5,245.6875,97.5,255.6875,101.5,245.6875,97.5,249.6875" style="stroke:#181818;stroke-width:1.0;"/><line style="stroke:#181818;stroke-width:1.0;" x1="97.5" x2="97.5" y1="526.793" y2="546.793"/><polygon fill="#181818" points="93.5,536.793,97.5,546.793,101.5,536.793,97.5,540.793" style="stroke:#181818;stroke-width:1.0;"/><!--SRC=[ZOwz3i8m38JtFCMDpOuOWAL5OWMnC8VMLIsYf8fT0MzF-hDG2OcRBD_v_8cwfCOawicfGTQkz-vD2INoK9D0uuF2_ikhLjvyZcV7db1CIvaZ3MB0FRhKu82j1Klsqq3sxv_S5Yp760BLkhbCkT92EmeeMkSbLs7HBxpHez1mkmAb5ulUE5SddA-PhHf1JuFtC-XIRqHZRpu0]--></g></svg>