<?xml version="1.0" encoding="us-ascii" standalone="no"?><svg xmlns="http://www.w3.org/2000/svg" xmlns:xlink="http://www.w3.org/1999/xlink" contentStyleType="text/css" height="1348px" preserveAspectRatio="none" style="width:725px;height:1348px;background:#FFFFFF;" version="1.1" viewBox="0 0 725 1348" width="725px" zoomAndPan="magnify"><defs/><g><g id="IN_GAME"><rect fill="#F1F1F1" height="50" rx="12.5" ry="12.5" style="stroke:#181818;stroke-width:0.5;" width="80" x="208.76" y="87"/><line style="stroke:#181818;stroke-width:0.5;" x1="208.76" x2="288.76" y1="114.6094" y2="114.6094"/><text fill="#000000" font-family="sans-serif" font-size="14" lengthAdjust="spacing" textLength="60" x="218.76" y="106.5332">IN_GAME</text></g><g id="elem_gameMode"><polygon fill="#F1F1F1" points="248.76,215,260.76,227,248.76,239,236.76,227,248.76,215" style="stroke:#181818;stroke-width:0.5;"/></g><g id="userTurn"><rect fill="#F1F1F1" height="50" rx="12.5" ry="12.5" style="stroke:#181818;stroke-width:0.5;" width="50" x="118.76" y="317"/><line style="stroke:#181818;stroke-width:0.5;" x1="118.76" x2="168.76" y1="344.6094" y2="344.6094"/><text fill="#000000" font-family="sans-serif" font-size="14" lengthAdjust="spacing" textLength="4" x="141.76" y="336.5332">&#160;</text></g><g id="columnRquested"><rect fill="#F1F1F1" height="50" rx="12.5" ry="12.5" style="stroke:#181818;stroke-width:0.5;" width="50" x="118.76" y="445"/><line style="stroke:#181818;stroke-width:0.5;" x1="118.76" x2="168.76" y1="472.6094" y2="472.6094"/><text fill="#000000" font-family="sans-serif" font-size="14" lengthAdjust="spacing" textLength="4" x="141.76" y="464.5332">&#160;</text></g><g id="elem_columnSelected"><polygon fill="#F1F1F1" points="143.76,573,155.76,585,143.76,597,131.76,585,143.76,573" style="stroke:#181818;stroke-width:0.5;"/></g><g id="invalidColumn"><rect fill="#F1F1F1" height="50" rx="12.5" ry="12.5" style="stroke:#181818;stroke-width:0.5;" width="50" x="17.76" y="675"/><line style="stroke:#181818;stroke-width:0.5;" x1="17.76" x2="67.76" y1="702.6094" y2="702.6094"/><text fill="#000000" font-family="sans-serif" font-size="14" lengthAdjust="spacing" textLength="4" x="40.76" y="694.5332">&#160;</text></g><g id="tokenPlaced"><rect fill="#F1F1F1" height="50" rx="12.5" ry="12.5" style="stroke:#181818;stroke-width:0.5;" width="50" x="293.76" y="675"/><line style="stroke:#181818;stroke-width:0.5;" x1="293.76" x2="343.76" y1="702.6094" y2="702.6094"/><text fill="#000000" font-family="sans-serif" font-size="14" lengthAdjust="spacing" textLength="4" x="316.76" y="694.5332">&#160;</text></g><g id="elem_boardShowed"><polygon fill="#F1F1F1" points="318.76,819,330.76,831,318.76,843,306.76,831,318.76,819" style="stroke:#181818;stroke-width:0.5;"/></g><g id="winnerPlacement"><rect fill="#F1F1F1" height="50" rx="12.5" ry="12.5" style="stroke:#181818;stroke-width:0.5;" width="50" x="115.76" y="921"/><line style="stroke:#181818;stroke-width:0.5;" x1="115.76" x2="165.76" y1="948.6094" y2="948.6094"/><text fill="#000000" font-family="sans-serif" font-size="14" lengthAdjust="spacing" textLength="4" x="138.76" y="940.5332">&#160;</text></g><g id="finishMessageShowed"><rect fill="#F1F1F1" height="50" rx="12.5" ry="12.5" style="stroke:#181818;stroke-width:0.5;" width="50" x="332.76" y="1049"/><line style="stroke:#181818;stroke-width:0.5;" x1="332.76" x2="382.76" y1="1076.6094" y2="1076.6094"/><text fill="#000000" font-family="sans-serif" font-size="14" lengthAdjust="spacing" textLength="4" x="355.76" y="1068.5332">&#160;</text></g><g id="boardFull"><rect fill="#F1F1F1" height="50" rx="12.5" ry="12.5" style="stroke:#181818;stroke-width:0.5;" width="50" x="312.76" y="921"/><line style="stroke:#181818;stroke-width:0.5;" x1="312.76" x2="362.76" y1="948.6094" y2="948.6094"/><text fill="#000000" font-family="sans-serif" font-size="14" lengthAdjust="spacing" textLength="4" x="335.76" y="940.5332">&#160;</text></g><g id="stillInGame"><rect fill="#F1F1F1" height="50" rx="12.5" ry="12.5" style="stroke:#181818;stroke-width:0.5;" width="50" x="535.76" y="921"/><line style="stroke:#181818;stroke-width:0.5;" x1="535.76" x2="585.76" y1="948.6094" y2="948.6094"/><text fill="#000000" font-family="sans-serif" font-size="14" lengthAdjust="spacing" textLength="4" x="558.76" y="940.5332">&#160;</text></g><g id="IN_GAME_AGAIN"><rect fill="#F1F1F1" height="50" rx="12.5" ry="12.5" style="stroke:#181818;stroke-width:0.5;" width="80" x="515.76" y="1129"/><line style="stroke:#181818;stroke-width:0.5;" x1="515.76" x2="595.76" y1="1156.6094" y2="1156.6094"/><text fill="#000000" font-family="sans-serif" font-size="14" lengthAdjust="spacing" textLength="60" x="525.76" y="1148.5332">IN_GAME</text></g><g id="OUT_GAME"><rect fill="#F1F1F1" height="50" rx="12.5" ry="12.5" style="stroke:#181818;stroke-width:0.5;" width="97" x="355.26" y="1209"/><line style="stroke:#181818;stroke-width:0.5;" x1="355.26" x2="452.26" y1="1236.6094" y2="1236.6094"/><text fill="#000000" font-family="sans-serif" font-size="14" lengthAdjust="spacing" textLength="77" x="365.26" y="1228.5332">OUT_GAME</text></g><ellipse cx="248.76" cy="16" fill="#222222" rx="10" ry="10" style="stroke:#222222;stroke-width:1.0;"/><ellipse cx="474.76" cy="1331" fill="none" rx="11" ry="11" style="stroke:#222222;stroke-width:1.0;"/><ellipse cx="474.76" cy="1331" fill="#222222" rx="6" ry="6" style="stroke:#222222;stroke-width:1.0;"/><!--link *start* to IN_GAME--><g id="link_*start*_IN_GAME"><path d="M248.76,26.01 C248.76,39.89 248.76,60.97 248.76,80.84 " fill="none" id="*start*-to-IN_GAME" style="stroke:#181818;stroke-width:1.0;"/><polygon fill="#181818" points="248.76,86.84,252.76,77.84,248.76,81.84,244.76,77.84,248.76,86.84" style="stroke:#181818;stroke-width:1.0;"/></g><!--link IN_GAME to gameMode--><g id="link_IN_GAME_gameMode"><path d="M248.76,137.24 C248.76,161.24 248.76,190.9 248.76,208.84 " fill="none" id="IN_GAME-to-gameMode" style="stroke:#181818;stroke-width:1.0;"/><polygon fill="#181818" points="248.76,214.84,252.76,205.84,248.76,209.84,244.76,205.84,248.76,214.84" style="stroke:#181818;stroke-width:1.0;"/><text fill="#000000" font-family="sans-serif" font-size="13" lengthAdjust="spacing" textLength="133" x="249.76" y="181.4951">Place Token requested</text></g><!--link gameMode to userTurn--><g id="link_gameMode_userTurn"><path d="M240.23,230.97 C225.68,236.43 195.89,249.31 177.76,269 C165.22,282.63 158.5348,296.0792 153.0648,311.1692 " fill="none" id="gameMode-to-userTurn" style="stroke:#181818;stroke-width:1.0;"/><polygon fill="#181818" points="151.02,316.81,157.8477,309.7119,152.724,312.1093,150.3266,306.9856,151.02,316.81" style="stroke:#181818;stroke-width:1.0;"/><text fill="#000000" font-family="sans-serif" font-size="13" lengthAdjust="spacing" textLength="147" x="178.76" y="283.4951">[turn.actualPlayer.isUser]</text></g><!--link userTurn to columnRquested--><g id="link_userTurn_columnRquested"><path d="M143.76,367.29 C143.76,389.61 143.76,416.49 143.76,438.78 " fill="none" id="userTurn-to-columnRquested" style="stroke:#181818;stroke-width:1.0;"/><polygon fill="#181818" points="143.76,444.78,147.76,435.78,143.76,439.78,139.76,435.78,143.76,444.78" style="stroke:#181818;stroke-width:1.0;"/><text fill="#000000" font-family="sans-serif" font-size="13" lengthAdjust="spacing" textLength="175" x="144.76" y="411.4951">System request target column</text></g><!--link columnRquested to columnSelected--><g id="link_columnRquested_columnSelected"><path d="M141.8,495.33 C140.92,509.28 140.18,527.12 140.76,543 C141.15,553.56 141.5637,559.6331 142.2937,567.9231 " fill="none" id="columnRquested-to-columnSelected" style="stroke:#181818;stroke-width:1.0;"/><polygon fill="#181818" points="142.82,573.9,146.0151,564.5838,142.3814,568.9193,138.046,565.2856,142.82,573.9" style="stroke:#181818;stroke-width:1.0;"/><text fill="#000000" font-family="sans-serif" font-size="13" lengthAdjust="spacing" textLength="184" x="141.76" y="539.4951">Player introduces target column</text></g><!--link columnSelected to invalidColumn--><g id="link_columnSelected_invalidColumn"><path d="M135.73,589.45 C122.58,595.43 96.28,608.84 79.76,627 C67.19,640.83 59.9922,654.1792 53.7722,669.1492 " fill="none" id="columnSelected-to-invalidColumn" style="stroke:#181818;stroke-width:1.0;"/><polygon fill="#181818" points="51.47,674.69,58.6171,667.9136,53.3885,670.0727,51.2294,664.8441,51.47,674.69" style="stroke:#181818;stroke-width:1.0;"/><text fill="#000000" font-family="sans-serif" font-size="13" lengthAdjust="spacing" textLength="160" x="80.76" y="641.4951">[board.isColumnFull(target)]</text></g><!--link invalidColumn to userTurn--><g id="link_invalidColumn_userTurn"><path d="M33.71,674.82 C22.31,640.7 6,576.82 21.76,525 C41.14,461.31 86.9971,404.0925 116.6371,371.4425 " fill="none" id="invalidColumn-to-userTurn" style="stroke:#181818;stroke-width:1.0;"/><polygon fill="#181818" points="120.67,367,111.659,370.9751,117.3092,370.7021,117.5823,376.3523,120.67,367" style="stroke:#181818;stroke-width:1.0;"/><text fill="#000000" font-family="sans-serif" font-size="13" lengthAdjust="spacing" textLength="109" x="22.76" y="539.4951">Sytem shows error</text></g><!--link columnSelected to tokenPlaced--><g id="link_columnSelected_tokenPlaced"><path d="M152.79,588.32 C171.31,593.35 214.48,606.49 245.76,627 C265.86,640.18 281.064,655.0043 294.724,670.3043 " fill="none" id="columnSelected-to-tokenPlaced" style="stroke:#181818;stroke-width:1.0;"/><polygon fill="#181818" points="298.72,674.78,295.7099,665.4024,295.39,671.0502,289.7422,670.7304,298.72,674.78" style="stroke:#181818;stroke-width:1.0;"/><text fill="#000000" font-family="sans-serif" font-size="13" lengthAdjust="spacing" textLength="32" x="269.76" y="641.4951">[else]</text></g><!--link gameMode to tokenPlaced--><g id="link_gameMode_tokenPlaced"><path d="M257.88,230.03 C274.77,234.27 311.03,245.66 330.76,269 C352.37,294.55 352.76,307.54 352.76,341 C352.76,341 352.76,341 352.76,586 C352.76,617.75 342.7057,646.9834 332.8757,669.4434 " fill="none" id="gameMode-to-tokenPlaced" style="stroke:#181818;stroke-width:1.0;"/><polygon fill="#181818" points="330.47,674.94,337.7429,668.2989,332.4747,670.3595,330.4141,665.0913,330.47,674.94" style="stroke:#181818;stroke-width:1.0;"/><text fill="#000000" font-family="sans-serif" font-size="13" lengthAdjust="spacing" textLength="169" x="353.76" y="475.4951">[turn.actualPlayer.isMachine]</text></g><!--link tokenPlaced to boardShowed--><g id="link_tokenPlaced_boardShowed"><path d="M318.76,725.26 C318.76,753.29 318.76,792.19 318.76,812.89 " fill="none" id="tokenPlaced-to-boardShowed" style="stroke:#181818;stroke-width:1.0;"/><polygon fill="#181818" points="318.76,818.89,322.76,809.89,318.76,813.89,314.76,809.89,318.76,818.89" style="stroke:#181818;stroke-width:1.0;"/><text fill="#000000" font-family="sans-serif" font-size="13" lengthAdjust="spacing" textLength="172" x="319.76" y="769.4951">System shows updated board</text><text fill="#000000" font-family="sans-serif" font-size="13" lengthAdjust="spacing" textLength="128" x="341.76" y="785.8467">with new token placed</text></g><!--link boardShowed to winnerPlacement--><g id="link_boardShowed_winnerPlacement"><path d="M308.94,833.27 C286.87,836.53 232.4,846.84 195.76,873 C178.23,885.52 166.8733,900.1616 157.1633,915.8116 " fill="none" id="boardShowed-to-winnerPlacement" style="stroke:#181818;stroke-width:1.0;"/><polygon fill="#181818" points="154,920.91,162.1439,915.3713,156.6361,916.6613,155.346,911.1536,154,920.91" style="stroke:#181818;stroke-width:1.0;"/><text fill="#000000" font-family="sans-serif" font-size="13" lengthAdjust="spacing" textLength="109" x="196.76" y="887.4951">[winner placement]</text></g><!--link winnerPlacement to finishMessageShowed--><g id="link_winnerPlacement_finishMessageShowed"><path d="M138.16,971.2 C137.87,986.7 140.26,1006.22 151.76,1019 C175.95,1045.86 277.3843,1062.385 326.7943,1069.075 " fill="none" id="winnerPlacement-to-finishMessageShowed" style="stroke:#181818;stroke-width:1.0;"/><polygon fill="#181818" points="332.74,1069.88,324.3581,1064.7086,327.7852,1069.2091,323.2847,1072.6363,332.74,1069.88" style="stroke:#181818;stroke-width:1.0;"/><text fill="#000000" font-family="sans-serif" font-size="13" lengthAdjust="spacing" textLength="184" x="152.76" y="1015.4951">System shows winner message</text></g><!--link finishMessageShowed to OUT_GAME--><g id="link_finishMessageShowed_OUT_GAME"><path d="M353.86,1099.36 C351.4,1120.98 350.25,1153.06 359.76,1179 C363.76,1189.9 367.0409,1195.6682 374.4609,1204.3082 " fill="none" id="finishMessageShowed-to-OUT_GAME" style="stroke:#181818;stroke-width:1.0;"/><polygon fill="#181818" points="378.37,1208.86,375.5409,1199.4262,375.1124,1205.0668,369.4718,1204.6383,378.37,1208.86" style="stroke:#181818;stroke-width:1.0;"/><text fill="#000000" font-family="sans-serif" font-size="13" lengthAdjust="spacing" textLength="137" x="360.76" y="1159.4951">System allows Resume</text></g><!--link boardShowed to boardFull--><g id="link_boardShowed_boardFull"><path d="M316.91,841.3 C314.89,853.01 312.37,873.69 315.76,891 C317.75,901.13 319.2625,906.2555 323.2225,915.3855 " fill="none" id="boardShowed-to-boardFull" style="stroke:#181818;stroke-width:1.0;"/><polygon fill="#181818" points="325.61,920.89,325.6984,911.0415,323.6204,916.3029,318.3591,914.2249,325.61,920.89" style="stroke:#181818;stroke-width:1.0;"/><text fill="#000000" font-family="sans-serif" font-size="13" lengthAdjust="spacing" textLength="200" x="316.76" y="887.4951">[board.isFull &amp; ! winner placement]</text></g><!--link boardFull to finishMessageShowed--><g id="link_boardFull_finishMessageShowed"><path d="M341.62,971.29 C345.16,993.61 349.4389,1020.5643 352.9789,1042.8543 " fill="none" id="boardFull-to-finishMessageShowed" style="stroke:#181818;stroke-width:1.0;"/><polygon fill="#181818" points="353.92,1048.78,356.4588,1039.264,353.1358,1043.8419,348.5579,1040.5188,353.92,1048.78" style="stroke:#181818;stroke-width:1.0;"/><text fill="#000000" font-family="sans-serif" font-size="13" lengthAdjust="spacing" textLength="161" x="349.76" y="1015.4951">System shows tie message</text></g><!--link boardShowed to stillInGame--><g id="link_boardShowed_stillInGame"><path d="M329.02,832.93 C365.78,836.41 490.33,849.75 521.76,873 C537.65,884.75 545.691,899.3454 551.641,915.3654 " fill="none" id="boardShowed-to-stillInGame" style="stroke:#181818;stroke-width:1.0;"/><polygon fill="#181818" points="553.73,920.99,554.3462,911.1604,551.9891,916.3028,546.8467,913.9458,553.73,920.99" style="stroke:#181818;stroke-width:1.0;"/><text fill="#000000" font-family="sans-serif" font-size="13" lengthAdjust="spacing" textLength="32" x="538.76" y="887.4951">[else]</text></g><!--link stillInGame to IN_GAME_AGAIN--><g id="link_stillInGame_IN_GAME_AGAIN"><path d="M560.18,971.03 C559.22,1010.62 557.4666,1083.1018 556.4966,1122.8018 " fill="none" id="stillInGame-to-IN_GAME_AGAIN" style="stroke:#181818;stroke-width:1.0;"/><polygon fill="#181818" points="556.35,1128.8,560.5686,1119.9004,556.4721,1123.8015,552.571,1119.705,556.35,1128.8" style="stroke:#181818;stroke-width:1.0;"/><text fill="#000000" font-family="sans-serif" font-size="13" lengthAdjust="spacing" textLength="158" x="559.76" y="1015.4951">System allows Place token</text></g><!--link IN_GAME_AGAIN to *end*--><g id="link_IN_GAME_AGAIN_*end*"><path d="M544.5,1179.33 C526.33,1218.59 493.8697,1288.7247 481.6397,1315.1547 " fill="none" id="IN_GAME_AGAIN-to-*end*" style="stroke:#181818;stroke-width:1.0;"/><polygon fill="#181818" points="479.12,1320.6,486.5297,1314.1119,481.2198,1316.0623,479.2694,1310.7523,479.12,1320.6" style="stroke:#181818;stroke-width:1.0;"/></g><!--link OUT_GAME to *end*--><g id="link_OUT_GAME_*end*"><path d="M422.05,1259.46 C437.33,1279.92 454.6506,1303.0721 464.9306,1316.8421 " fill="none" id="OUT_GAME-to-*end*" style="stroke:#181818;stroke-width:1.0;"/><polygon fill="#181818" points="468.52,1321.65,466.3412,1312.0452,465.5289,1317.6434,459.9306,1316.831,468.52,1321.65" style="stroke:#181818;stroke-width:1.0;"/></g><!--SRC=[ZLFBJiCm4BpxAmm714Zb0ofKgK9GzL10RJb1X4ooD1QEK_oWuk_nsevnqY2X7gAkPyRZsLrjc06wl7zTp5UtHFj_EzR0ggs0CarFtU_wkgnRNi9i5W5MWzfQ9ICWLijMs4QkFore0zNOsGO4b7XsfCZb5nEykl6mFjMq7o0V1Ik7ccyjKzMcRWzZWWSk9IXFQq2QFlETIwxh5MZDTX0LZgNlh13ziZPSYALSk7pw1p6_r_bYlhptHx7I0HwUjY5XydnPqCbabYAFNrzBmK-fTqwt-7QgeCkKa0H1VEh3b3uRzxrYfR5CEEutg2kkdznvGH8AAVqcJUdcstsRxWfgcDg1YIWowEWllskaz-dkSlqpggri2NfK8ZKU9NgzTivzsCvjA63gvq7ZeY3zkSZVZDRHkNRjqnIKQjNOPTdqkAj0Q2W68URpzKUEArRMN28p1oCvcy6KPN1aznL34nxn8W_Sr5J28Ln7zrw2v2ECSeEfTNP29U2nL93XP2DlPA07Tg9E4o1aR0DGg9lJn6P287qDsZPmv3VjITP6lpPdz8GUM_zTg_-PDXoIu-7LsIwcnkRxcUrOMClXayA6-NOGqbzWvBez9LqQgV03]--></g></svg>