<?xml version="1.0" encoding="us-ascii" standalone="no"?><svg xmlns="http://www.w3.org/2000/svg" xmlns:xlink="http://www.w3.org/1999/xlink" contentStyleType="text/css" height="830px" preserveAspectRatio="none" style="width:1659px;height:830px;background:#FFFFFF;" version="1.1" viewBox="0 0 1659 830" width="1659px" zoomAndPan="magnify"><defs/><g><g id="elem_Description"><path d="M1247.5,6 L1247.5,50.582 L1475.5,50.582 L1475.5,16 L1465.5,6 L1247.5,6 " fill="#FEFFDD" style="stroke:#181818;stroke-width:0.5;"/><path d="M1465.5,6 L1465.5,16 L1475.5,16 L1465.5,6 " fill="#FEFFDD" style="stroke:#181818;stroke-width:1.0;"/><text fill="#000000" font-family="sans-serif" font-size="13" lengthAdjust="spacing" textLength="163" x="1253.5" y="25.0283">Example: PlayerRed wins in</text><text fill="#000000" font-family="sans-serif" font-size="13" lengthAdjust="spacing" textLength="207" x="1253.5" y="42.3193">horizontal with only 4 placed tokens</text></g><g id="elem_connect4"><rect fill="#F1F1F1" height="38.6211" style="stroke:#181818;stroke-width:0.5;" width="79" x="1133" y="9"/><text fill="#000000" font-family="sans-serif" font-size="14" lengthAdjust="spacing" textLength="65" x="1140" y="26.1074">:Connect4</text><line style="stroke:#181818;stroke-width:0.5;" x1="1134" x2="1211" y1="31.6211" y2="31.6211"/></g><g id="elem_board"><rect fill="#F1F1F1" height="38.6211" style="stroke:#181818;stroke-width:0.5;" width="56" x="446.5" y="116"/><text fill="#000000" font-family="sans-serif" font-size="14" lengthAdjust="spacing" textLength="42" x="453.5" y="133.1074">:Board</text><line style="stroke:#181818;stroke-width:0.5;" x1="447.5" x2="501.5" y1="138.6211" y2="138.6211"/></g><g id="elem_GMN5"><path d="M407.5,6 L407.5,50.582 A0,0 0 0 0 407.5,50.582 L470.5,50.582 L474.5,115.84 L478.5,50.582 L541.5,50.582 A0,0 0 0 0 541.5,50.582 L541.5,16 L531.5,6 L407.5,6 A0,0 0 0 0 407.5,6 " fill="#FEFFDD" style="stroke:#181818;stroke-width:0.5;"/><path d="M531.5,6 L531.5,16 L541.5,16 L531.5,6 " fill="#FEFFDD" style="stroke:#181818;stroke-width:0.5;"/><text fill="#000000" font-family="sans-serif" font-size="13" lengthAdjust="spacing" textLength="113" x="413.5" y="25.0283">squares not drawed</text><text fill="#000000" font-family="sans-serif" font-size="13" lengthAdjust="spacing" textLength="58" x="413.5" y="42.3193">are empty</text></g><g id="elem_turn"><rect fill="#F1F1F1" height="49.2422" style="stroke:#181818;stroke-width:0.5;" width="90" x="1321.5" y="111"/><text fill="#000000" font-family="sans-serif" font-size="14" lengthAdjust="spacing" textLength="34" x="1349.5" y="128.1074">:Turn</text><line style="stroke:#181818;stroke-width:0.5;" x1="1322.5" x2="1410.5" y1="133.6211" y2="133.6211"/><text fill="#000000" font-family="sans-serif" font-size="14" lengthAdjust="spacing" textLength="78" x="1327.5" y="152.7285">Player = null</text></g><g id="elem_playerRed"><rect fill="#F1F1F1" height="49.2422" style="stroke:#181818;stroke-width:0.5;" width="83" x="1034" y="111"/><text fill="#000000" font-family="sans-serif" font-size="14" lengthAdjust="spacing" textLength="44" x="1053.5" y="128.1074">:Player</text><line style="stroke:#181818;stroke-width:0.5;" x1="1035" x2="1116" y1="133.6211" y2="133.6211"/><text fill="#000000" font-family="sans-serif" font-size="14" lengthAdjust="spacing" textLength="71" x="1040" y="152.7285">Color = red</text></g><g id="elem_playerYellow"><rect fill="#F1F1F1" height="49.2422" style="stroke:#181818;stroke-width:0.5;" width="100" x="1186.5" y="111"/><text fill="#000000" font-family="sans-serif" font-size="14" lengthAdjust="spacing" textLength="48" x="1212.5" y="128.1074">: Player</text><line style="stroke:#181818;stroke-width:0.5;" x1="1187.5" x2="1285.5" y1="133.6211" y2="133.6211"/><text fill="#000000" font-family="sans-serif" font-size="14" lengthAdjust="spacing" textLength="88" x="1192.5" y="152.7285">Color = yellow</text></g><g id="elem_squareRed13"><rect fill="#FF0000" height="67.8633" style="stroke:#181818;stroke-width:0.5;" width="81" x="10" y="646"/><text fill="#000000" font-family="sans-serif" font-size="14" lengthAdjust="spacing" textLength="50" x="25.5" y="663.1074">:Square</text><line style="stroke:#181818;stroke-width:0.5;" x1="11" x2="90" y1="668.6211" y2="668.6211"/><text fill="#000000" font-family="sans-serif" font-size="14" lengthAdjust="spacing" textLength="46" x="16" y="687.7285">row = 1</text><text fill="#000000" font-family="sans-serif" font-size="14" lengthAdjust="spacing" textLength="69" x="16" y="706.3496">column = 3</text></g><g id="elem_squareRed14"><rect fill="#FF0000" height="67.8633" style="stroke:#181818;stroke-width:0.5;" width="81" x="126" y="646"/><text fill="#000000" font-family="sans-serif" font-size="14" lengthAdjust="spacing" textLength="50" x="141.5" y="663.1074">:Square</text><line style="stroke:#181818;stroke-width:0.5;" x1="127" x2="206" y1="668.6211" y2="668.6211"/><text fill="#000000" font-family="sans-serif" font-size="14" lengthAdjust="spacing" textLength="46" x="132" y="687.7285">row = 1</text><text fill="#000000" font-family="sans-serif" font-size="14" lengthAdjust="spacing" textLength="69" x="132" y="706.3496">column = 4</text></g><g id="elem_squareRed15"><rect fill="#FF0000" height="67.8633" style="stroke:#181818;stroke-width:0.5;" width="81" x="243" y="646"/><text fill="#000000" font-family="sans-serif" font-size="14" lengthAdjust="spacing" textLength="50" x="258.5" y="663.1074">:Square</text><line style="stroke:#181818;stroke-width:0.5;" x1="244" x2="323" y1="668.6211" y2="668.6211"/><text fill="#000000" font-family="sans-serif" font-size="14" lengthAdjust="spacing" textLength="46" x="249" y="687.7285">row = 1</text><text fill="#000000" font-family="sans-serif" font-size="14" lengthAdjust="spacing" textLength="69" x="249" y="706.3496">column = 5</text></g><g id="elem_squareRed16"><rect fill="#FF0000" height="67.8633" style="stroke:#181818;stroke-width:0.5;" width="81" x="378" y="646"/><text fill="#000000" font-family="sans-serif" font-size="14" lengthAdjust="spacing" textLength="50" x="393.5" y="663.1074">:Square</text><line style="stroke:#181818;stroke-width:0.5;" x1="379" x2="458" y1="668.6211" y2="668.6211"/><text fill="#000000" font-family="sans-serif" font-size="14" lengthAdjust="spacing" textLength="46" x="384" y="687.7285">row = 1</text><text fill="#000000" font-family="sans-serif" font-size="14" lengthAdjust="spacing" textLength="69" x="384" y="706.3496">column = 6</text></g><g id="elem_squareYellow17"><rect fill="#FFFF00" height="67.8633" style="stroke:#181818;stroke-width:0.5;" width="81" x="584" y="646"/><text fill="#000000" font-family="sans-serif" font-size="14" lengthAdjust="spacing" textLength="50" x="599.5" y="663.1074">:Square</text><line style="stroke:#181818;stroke-width:0.5;" x1="585" x2="664" y1="668.6211" y2="668.6211"/><text fill="#000000" font-family="sans-serif" font-size="14" lengthAdjust="spacing" textLength="46" x="590" y="687.7285">row = 1</text><text fill="#000000" font-family="sans-serif" font-size="14" lengthAdjust="spacing" textLength="69" x="590" y="706.3496">column = 7</text></g><g id="elem_squareYellow27"><rect fill="#FFFF00" height="67.8633" style="stroke:#181818;stroke-width:0.5;" width="81" x="481" y="348"/><text fill="#000000" font-family="sans-serif" font-size="14" lengthAdjust="spacing" textLength="50" x="496.5" y="365.1074">:Square</text><line style="stroke:#181818;stroke-width:0.5;" x1="482" x2="561" y1="370.6211" y2="370.6211"/><text fill="#000000" font-family="sans-serif" font-size="14" lengthAdjust="spacing" textLength="46" x="487" y="389.7285">row = 2</text><text fill="#000000" font-family="sans-serif" font-size="14" lengthAdjust="spacing" textLength="69" x="487" y="408.3496">column = 7</text></g><g id="elem_squareYellow37"><rect fill="#FFFF00" height="67.8633" style="stroke:#181818;stroke-width:0.5;" width="81" x="387" y="220"/><text fill="#000000" font-family="sans-serif" font-size="14" lengthAdjust="spacing" textLength="50" x="402.5" y="237.1074">:Square</text><line style="stroke:#181818;stroke-width:0.5;" x1="388" x2="467" y1="242.6211" y2="242.6211"/><text fill="#000000" font-family="sans-serif" font-size="14" lengthAdjust="spacing" textLength="46" x="393" y="261.7285">row = 3</text><text fill="#000000" font-family="sans-serif" font-size="14" lengthAdjust="spacing" textLength="69" x="393" y="280.3496">column = 7</text></g><g id="elem_tokenRed1"><rect fill="#F1F1F1" height="49.2422" style="stroke:#181818;stroke-width:0.5;" width="125" x="820" y="229.5"/><text fill="#000000" font-family="sans-serif" font-size="14" lengthAdjust="spacing" textLength="111" x="827" y="246.6074">notPlaced :Token</text><line style="stroke:#181818;stroke-width:0.5;" x1="821" x2="944" y1="252.1211" y2="252.1211"/><text fill="#000000" font-family="sans-serif" font-size="14" lengthAdjust="spacing" textLength="71" x="826" y="271.2285">Color = red</text></g><g id="elem_tokenRed2"><rect fill="#F1F1F1" height="49.2422" style="stroke:#181818;stroke-width:0.5;" width="125" x="980" y="229.5"/><text fill="#000000" font-family="sans-serif" font-size="14" lengthAdjust="spacing" textLength="111" x="987" y="246.6074">notPlaced :Token</text><line style="stroke:#181818;stroke-width:0.5;" x1="981" x2="1104" y1="252.1211" y2="252.1211"/><text fill="#000000" font-family="sans-serif" font-size="14" lengthAdjust="spacing" textLength="71" x="986" y="271.2285">Color = red</text></g><g id="elem_tokenYellow1"><rect fill="#F1F1F1" height="49.2422" style="stroke:#181818;stroke-width:0.5;" width="125" x="1368" y="229.5"/><text fill="#000000" font-family="sans-serif" font-size="14" lengthAdjust="spacing" textLength="111" x="1375" y="246.6074">notPlaced :Token</text><line style="stroke:#181818;stroke-width:0.5;" x1="1369" x2="1492" y1="252.1211" y2="252.1211"/><text fill="#000000" font-family="sans-serif" font-size="14" lengthAdjust="spacing" textLength="88" x="1374" y="271.2285">Color = yellow</text></g><g id="elem_tokenYellow2"><rect fill="#F1F1F1" height="49.2422" style="stroke:#181818;stroke-width:0.5;" width="125" x="1528" y="229.5"/><text fill="#000000" font-family="sans-serif" font-size="14" lengthAdjust="spacing" textLength="111" x="1535" y="246.6074">notPlaced :Token</text><line style="stroke:#181818;stroke-width:0.5;" x1="1529" x2="1652" y1="252.1211" y2="252.1211"/><text fill="#000000" font-family="sans-serif" font-size="14" lengthAdjust="spacing" textLength="88" x="1534" y="271.2285">Color = yellow</text></g><g id="elem_tokenRed13"><rect fill="#F1F1F1" height="49.2422" style="stroke:#181818;stroke-width:0.5;" width="83" x="7" y="774"/><text fill="#000000" font-family="sans-serif" font-size="14" lengthAdjust="spacing" textLength="44" x="26.5" y="791.1074">:Token</text><line style="stroke:#181818;stroke-width:0.5;" x1="8" x2="89" y1="796.6211" y2="796.6211"/><text fill="#000000" font-family="sans-serif" font-size="14" lengthAdjust="spacing" textLength="71" x="13" y="815.7285">Color = red</text></g><g id="elem_tokenRed14"><rect fill="#F1F1F1" height="49.2422" style="stroke:#181818;stroke-width:0.5;" width="83" x="125" y="774"/><text fill="#000000" font-family="sans-serif" font-size="14" lengthAdjust="spacing" textLength="44" x="144.5" y="791.1074">:Token</text><line style="stroke:#181818;stroke-width:0.5;" x1="126" x2="207" y1="796.6211" y2="796.6211"/><text fill="#000000" font-family="sans-serif" font-size="14" lengthAdjust="spacing" textLength="71" x="131" y="815.7285">Color = red</text></g><g id="elem_tokenRed15"><rect fill="#F1F1F1" height="49.2422" style="stroke:#181818;stroke-width:0.5;" width="83" x="243" y="774"/><text fill="#000000" font-family="sans-serif" font-size="14" lengthAdjust="spacing" textLength="44" x="262.5" y="791.1074">:Token</text><line style="stroke:#181818;stroke-width:0.5;" x1="244" x2="325" y1="796.6211" y2="796.6211"/><text fill="#000000" font-family="sans-serif" font-size="14" lengthAdjust="spacing" textLength="71" x="249" y="815.7285">Color = red</text></g><g id="elem_tokenRed16"><rect fill="#F1F1F1" height="49.2422" style="stroke:#181818;stroke-width:0.5;" width="83" x="377" y="774"/><text fill="#000000" font-family="sans-serif" font-size="14" lengthAdjust="spacing" textLength="44" x="396.5" y="791.1074">:Token</text><line style="stroke:#181818;stroke-width:0.5;" x1="378" x2="459" y1="796.6211" y2="796.6211"/><text fill="#000000" font-family="sans-serif" font-size="14" lengthAdjust="spacing" textLength="71" x="383" y="815.7285">Color = red</text></g><g id="elem_tokenYellow17"><rect fill="#F1F1F1" height="49.2422" style="stroke:#181818;stroke-width:0.5;" width="100" x="574.5" y="774"/><text fill="#000000" font-family="sans-serif" font-size="14" lengthAdjust="spacing" textLength="44" x="602.5" y="791.1074">:Token</text><line style="stroke:#181818;stroke-width:0.5;" x1="575.5" x2="673.5" y1="796.6211" y2="796.6211"/><text fill="#000000" font-family="sans-serif" font-size="14" lengthAdjust="spacing" textLength="88" x="580.5" y="815.7285">Color = yellow</text></g><g id="elem_tokenYellow27"><rect fill="#F1F1F1" height="49.2422" style="stroke:#181818;stroke-width:0.5;" width="100" x="471.5" y="476"/><text fill="#000000" font-family="sans-serif" font-size="14" lengthAdjust="spacing" textLength="44" x="499.5" y="493.1074">:Token</text><line style="stroke:#181818;stroke-width:0.5;" x1="472.5" x2="570.5" y1="498.6211" y2="498.6211"/><text fill="#000000" font-family="sans-serif" font-size="14" lengthAdjust="spacing" textLength="88" x="477.5" y="517.7285">Color = yellow</text></g><g id="elem_tokenYellow37"><rect fill="#F1F1F1" height="49.2422" style="stroke:#181818;stroke-width:0.5;" width="100" x="274.5" y="357.5"/><text fill="#000000" font-family="sans-serif" font-size="14" lengthAdjust="spacing" textLength="44" x="302.5" y="374.6074">:Token</text><line style="stroke:#181818;stroke-width:0.5;" x1="275.5" x2="373.5" y1="380.1211" y2="380.1211"/><text fill="#000000" font-family="sans-serif" font-size="14" lengthAdjust="spacing" textLength="88" x="280.5" y="399.2285">Color = yellow</text></g><g id="elem_NYellow"><path d="M1392,368.5 L1392,395.791 L1629,395.791 L1629,378.5 L1619,368.5 L1392,368.5 " fill="#FEFFDD" style="stroke:#181818;stroke-width:0.5;"/><path d="M1619,368.5 L1619,378.5 L1629,378.5 L1619,368.5 " fill="#FEFFDD" style="stroke:#181818;stroke-width:1.0;"/><text fill="#000000" font-family="sans-serif" font-size="13" lengthAdjust="spacing" textLength="216" x="1398" y="387.5283">Idem all 18 remaining Player's tokens</text></g><g id="elem_NRed"><path d="M872,368.5 L872,395.791 L1109,395.791 L1109,378.5 L1099,368.5 L872,368.5 " fill="#FEFFDD" style="stroke:#181818;stroke-width:0.5;"/><path d="M1099,368.5 L1099,378.5 L1109,378.5 L1099,368.5 " fill="#FEFFDD" style="stroke:#181818;stroke-width:1.0;"/><text fill="#000000" font-family="sans-serif" font-size="13" lengthAdjust="spacing" textLength="216" x="878" y="387.5283">Idem all 17 remaining Player's tokens</text></g><g id="elem_NoteTokenPlaced"><path d="M1140,231.5 L1140,276.082 L1333,276.082 L1333,241.5 L1323,231.5 L1140,231.5 " fill="#FEFFDD" style="stroke:#181818;stroke-width:0.5;"/><path d="M1323,231.5 L1323,241.5 L1333,241.5 L1323,231.5 " fill="#FEFFDD" style="stroke:#181818;stroke-width:1.0;"/><text fill="#000000" font-family="sans-serif" font-size="13" lengthAdjust="spacing" textLength="124" x="1146" y="250.5283">are still associated to</text><text fill="#000000" font-family="sans-serif" font-size="13" lengthAdjust="spacing" textLength="172" x="1146" y="267.8193">their respective placed tokens</text></g><!--link connect4 to board--><g id="link_connect4_board"><path codeLine="95" d="M1121.1034,37.2344 C994.3534,56.2944 617.8132,112.9373 508.6832,129.3573 " fill="none" id="connect4-board" style="stroke:#181818;stroke-width:1.0;"/><polygon fill="#181818" points="1132.97,35.45,1126.4419,32.3867,1121.1034,37.2344,1127.6315,40.2977,1132.97,35.45" style="stroke:#181818;stroke-width:1.0;"/><polygon fill="#181818" points="502.75,130.25,512.245,132.8664,507.6943,129.5061,511.0547,124.9554,502.75,130.25" style="stroke:#181818;stroke-width:1.0;"/></g><!--link connect4 to turn--><g id="link_connect4_turn"><path codeLine="96" d="M1217.2923,53.7439 C1249.5923,71.2339 1282.3535,88.9538 1317.4535,107.9538 " fill="none" id="connect4-turn" style="stroke:#181818;stroke-width:1.0;"/><polygon fill="#181818" points="1206.74,48.03,1210.1115,54.4044,1217.2923,53.7439,1213.9208,47.3695,1206.74,48.03" style="stroke:#181818;stroke-width:1.0;"/><polygon fill="#181818" points="1322.73,110.81,1316.7194,103.0079,1318.3329,108.4298,1312.911,110.0433,1322.73,110.81" style="stroke:#181818;stroke-width:1.0;"/></g><!--link connect4 to playerRed--><g id="link_connect4_playerRed"><path codeLine="97" d="M1147.0171,57.0844 C1130.8871,74.5444 1118.9903,87.4117 1101.5303,106.3217 " fill="none" id="connect4-playerRed" style="stroke:#181818;stroke-width:1.0;"/><polygon fill="#181818" points="1155.16,48.27,1148.1504,49.9629,1147.0171,57.0844,1154.0267,55.3915,1155.16,48.27" style="stroke:#181818;stroke-width:1.0;"/><polygon fill="#181818" points="1097.46,110.73,1106.5042,106.8311,1100.8519,107.0564,1100.6265,101.4041,1097.46,110.73" style="stroke:#181818;stroke-width:1.0;"/></g><!--link connect4 to playerYellow--><g id="link_connect4_playerYellow"><path codeLine="98" d="M1190.1846,58.5172 C1200.8246,75.9772 1207.3684,86.696 1218.8884,105.606 " fill="none" id="connect4-playerYellow" style="stroke:#181818;stroke-width:1.0;"/><polygon fill="#181818" points="1183.94,48.27,1183.6466,55.4751,1190.1846,58.5172,1190.478,51.3121,1183.94,48.27" style="stroke:#181818;stroke-width:1.0;"/><polygon fill="#181818" points="1222.01,110.73,1220.7437,100.9629,1219.4087,106.46,1213.9116,105.125,1222.01,110.73" style="stroke:#181818;stroke-width:1.0;"/></g><!--link board to squareYellow37--><g id="link_board_squareYellow37"><path codeLine="101" d="M462.4569,166.3471 C455.4469,183.7071 451.6071,193.2667 443.1571,214.1867 " fill="none" id="board-squareYellow37" style="stroke:#181818;stroke-width:1.0;"/><polygon fill="#181818" points="466.95,155.22,460.9944,159.2858,462.4569,166.3471,468.4125,162.2812,466.95,155.22" style="stroke:#181818;stroke-width:1.0;"/><polygon fill="#181818" points="440.91,219.75,447.9896,212.9031,442.7826,215.1139,440.5718,209.9069,440.91,219.75" style="stroke:#181818;stroke-width:1.0;"/></g><!--link board to squareYellow27--><g id="link_board_squareYellow27"><path codeLine="102" d="M480.3749,167.0643 C488.3049,208.3243 503.9479,289.6778 513.9579,341.7778 " fill="none" id="board-squareYellow27" style="stroke:#181818;stroke-width:1.0;"/><polygon fill="#181818" points="478.11,155.28,475.3143,161.9271,480.3749,167.0643,483.1706,160.4172,478.11,155.28" style="stroke:#181818;stroke-width:1.0;"/><polygon fill="#181818" points="515.09,347.67,517.32,338.0769,514.1466,342.7598,509.4637,339.5864,515.09,347.67" style="stroke:#181818;stroke-width:1.0;"/></g><!--link board to squareYellow17--><g id="link_board_squareYellow17"><path codeLine="103" d="M514.1667,148.7165 C587.4467,172.6565 766.5,244.3 766.5,381 C766.5,381 766.5,381 766.5,501.5 C766.5,566.81 711.989,618.3126 670.029,649.0726 " fill="none" id="board-squareYellow17" style="stroke:#181818;stroke-width:1.0;"/><polygon fill="#181818" points="502.76,144.99,507.2212,150.6555,514.1667,148.7165,509.7055,143.051,502.76,144.99" style="stroke:#181818;stroke-width:1.0;"/><polygon fill="#181818" points="665.19,652.62,674.8134,650.5249,669.2225,649.6638,670.0836,644.0729,665.19,652.62" style="stroke:#181818;stroke-width:1.0;"/></g><!--link board to squareRed16--><g id="link_board_squareRed16"><path codeLine="104" d="M513.5005,156.4687 C573.1905,188.6787 695.5,267.42 695.5,381 C695.5,381 695.5,381 695.5,501.5 C695.5,612.45 541.897,656.0608 464.957,671.2108 " fill="none" id="board-squareRed16" style="stroke:#181818;stroke-width:1.0;"/><polygon fill="#181818" points="502.94,150.77,506.3207,157.1395,513.5005,156.4687,510.1198,150.0992,502.94,150.77" style="stroke:#181818;stroke-width:1.0;"/><polygon fill="#181818" points="459.07,672.37,468.6732,674.5559,463.9758,671.404,467.1277,666.7066,459.07,672.37" style="stroke:#181818;stroke-width:1.0;"/></g><!--link board to squareRed15--><g id="link_board_squareRed15"><path codeLine="105" d="M435.4321,152.3913 C369.5621,180.6513 221.5,257 221.5,381 C221.5,381 221.5,381 221.5,501.5 C221.5,554.22 243.3864,605.7448 261.6064,640.5348 " fill="none" id="board-squareRed15" style="stroke:#181818;stroke-width:1.0;"/><polygon fill="#181818" points="446.46,147.66,439.3689,146.3497,435.4321,152.3913,442.5231,153.7016,446.46,147.66" style="stroke:#181818;stroke-width:1.0;"/><polygon fill="#181818" points="264.39,645.85,263.758,636.0214,262.0703,641.4207,256.6711,639.733,264.39,645.85" style="stroke:#181818;stroke-width:1.0;"/></g><!--link board to squareRed14--><g id="link_board_squareRed14"><path codeLine="106" d="M434.6169,142.4543 C388.1569,150.2843 306.18,169.54 245.5,220 C181.62,273.12 150.5,297.92 150.5,381 C150.5,381 150.5,381 150.5,501.5 C150.5,551.93 156.2033,604.1518 160.9133,639.7618 " fill="none" id="board-squareRed14" style="stroke:#181818;stroke-width:1.0;"/><polygon fill="#181818" points="446.45,140.46,439.8687,137.5128,434.6169,142.4543,441.1982,145.4015,446.45,140.46" style="stroke:#181818;stroke-width:1.0;"/><polygon fill="#181818" points="161.7,645.71,164.4853,636.2632,161.0444,640.7532,156.5544,637.3122,161.7,645.71" style="stroke:#181818;stroke-width:1.0;"/></g><!--link board to squareRed13--><g id="link_board_squareRed13"><path codeLine="107" d="M434.3022,138.2993 C376.6522,141.8093 255.46,156.06 168.5,220 C100.06,270.32 65.5,296.05 65.5,381 C65.5,381 65.5,381 65.5,501.5 C65.5,551.91 60.1591,604.1357 55.7391,639.7457 " fill="none" id="board-squareRed13" style="stroke:#181818;stroke-width:1.0;"/><polygon fill="#181818" points="446.28,137.57,440.048,133.942,434.3022,138.2993,440.5342,141.9272,446.28,137.57" style="stroke:#181818;stroke-width:1.0;"/><polygon fill="#181818" points="55,645.7,60.0781,637.2612,55.6159,640.7381,52.1391,636.2758,55,645.7" style="stroke:#181818;stroke-width:1.0;"/></g><!--link playerRed to tokenRed1--><g id="link_playerRed_tokenRed1"><path codeLine="110" d="M1036.44,160.08 C1002.96,180.29 960.107,206.1597 926.637,226.3597 " fill="none" id="playerRed-to-tokenRed1" style="stroke:#181818;stroke-width:1.0;"/><polygon fill="#181818" points="921.5,229.46,931.2723,228.2342,925.7808,226.8764,927.1386,221.3849,921.5,229.46" style="stroke:#181818;stroke-width:1.0;"/></g><!--link playerRed to tokenRed2--><g id="link_playerRed_tokenRed2"><path codeLine="111" d="M1068.82,160.08 C1063.1,180.29 1056.5247,203.487 1050.8047,223.687 " fill="none" id="playerRed-to-tokenRed2" style="stroke:#181818;stroke-width:1.0;"/><polygon fill="#181818" points="1049.17,229.46,1055.4708,221.8903,1050.5323,224.6492,1047.7734,219.7107,1049.17,229.46" style="stroke:#181818;stroke-width:1.0;"/></g><!--link playerYellow to tokenYellow1--><g id="link_playerYellow_tokenYellow1"><path codeLine="112" d="M1275.76,160.08 C1309.42,180.29 1352.5161,206.1712 1386.1561,226.3712 " fill="none" id="playerYellow-to-tokenYellow1" style="stroke:#181818;stroke-width:1.0;"/><polygon fill="#181818" points="1391.3,229.46,1385.6434,221.3976,1387.0134,226.886,1381.525,228.2561,1391.3,229.46" style="stroke:#181818;stroke-width:1.0;"/></g><!--link playerYellow to tokenYellow2--><g id="link_playerYellow_tokenYellow2"><path codeLine="113" d="M1286.52,154.38 C1292.23,156.32 1297.98,158.23 1303.5,160 C1394.73,189.2 1420.09,188.36 1510.5,220 C1518.72,222.88 1521.7532,223.9366 1530.1432,227.2666 " fill="none" id="playerYellow-to-tokenYellow2" style="stroke:#181818;stroke-width:1.0;"/><polygon fill="#181818" points="1535.72,229.48,1528.8304,222.442,1531.0727,227.6355,1525.8792,229.8777,1535.72,229.48" style="stroke:#181818;stroke-width:1.0;"/></g><!--link squareRed13 to tokenRed13--><g id="link_squareRed13_tokenRed13"><path codeLine="116" d="M49.7228,726.0682 C49.3928,745.1782 49.3046,750.7609 49.0046,767.9709 " fill="none" id="squareRed13-tokenRed13" style="stroke:#181818;stroke-width:1.0;"/><polygon fill="none" points="49.93,714.07,45.827,720,49.7228,726.0682,53.8258,720.1382,49.93,714.07" style="stroke:#181818;stroke-width:1.0;"/><polygon fill="#181818" points="48.9,773.97,53.0563,765.0411,48.9871,768.9708,45.0575,764.9017,48.9,773.97" style="stroke:#181818;stroke-width:1.0;"/></g><!--link squareRed14 to tokenRed14--><g id="link_squareRed14_tokenRed14"><path codeLine="117" d="M166.5,726.07 C166.5,745.18 166.5,750.76 166.5,767.97 " fill="none" id="squareRed14-tokenRed14" style="stroke:#181818;stroke-width:1.0;"/><polygon fill="none" points="166.5,714.07,162.5,720.07,166.5,726.07,170.5,720.07,166.5,714.07" style="stroke:#181818;stroke-width:1.0;"/><polygon fill="#181818" points="166.5,773.97,170.5,764.97,166.5,768.97,162.5,764.97,166.5,773.97" style="stroke:#181818;stroke-width:1.0;"/></g><!--link squareRed15 to tokenRed15--><g id="link_squareRed15_tokenRed15"><path codeLine="118" d="M283.8867,726.0695 C284.0567,745.1795 284.0977,750.7602 284.2477,767.9702 " fill="none" id="squareRed15-tokenRed15" style="stroke:#181818;stroke-width:1.0;"/><polygon fill="none" points="283.78,714.07,279.8335,720.1053,283.8867,726.0695,287.8332,720.0342,283.78,714.07" style="stroke:#181818;stroke-width:1.0;"/><polygon fill="#181818" points="284.3,773.97,288.2214,764.9355,284.2564,768.9702,280.2217,765.0052,284.3,773.97" style="stroke:#181818;stroke-width:1.0;"/></g><!--link squareRed16 to tokenRed16--><g id="link_squareRed16_tokenRed16"><path codeLine="119" d="M418.5,726.07 C418.5,745.18 418.5,750.76 418.5,767.97 " fill="none" id="squareRed16-tokenRed16" style="stroke:#181818;stroke-width:1.0;"/><polygon fill="none" points="418.5,714.07,414.5,720.07,418.5,726.07,422.5,720.07,418.5,714.07" style="stroke:#181818;stroke-width:1.0;"/><polygon fill="#181818" points="418.5,773.97,422.5,764.97,418.5,768.97,414.5,764.97,418.5,773.97" style="stroke:#181818;stroke-width:1.0;"/></g><!--link squareYellow17 to tokenYellow17--><g id="link_squareYellow17_tokenYellow17"><path codeLine="121" d="M624.5,726.07 C624.5,745.18 624.5,750.76 624.5,767.97 " fill="none" id="squareYellow17-tokenYellow17" style="stroke:#181818;stroke-width:1.0;"/><polygon fill="none" points="624.5,714.07,620.5,720.07,624.5,726.07,628.5,720.07,624.5,714.07" style="stroke:#181818;stroke-width:1.0;"/><polygon fill="#181818" points="624.5,773.97,628.5,764.97,624.5,768.97,620.5,764.97,624.5,773.97" style="stroke:#181818;stroke-width:1.0;"/></g><!--link squareYellow27 to tokenYellow27--><g id="link_squareYellow27_tokenYellow27"><path codeLine="122" d="M521.5,428.07 C521.5,447.18 521.5,452.76 521.5,469.97 " fill="none" id="squareYellow27-tokenYellow27" style="stroke:#181818;stroke-width:1.0;"/><polygon fill="none" points="521.5,416.07,517.5,422.07,521.5,428.07,525.5,422.07,521.5,416.07" style="stroke:#181818;stroke-width:1.0;"/><polygon fill="#181818" points="521.5,475.97,525.5,466.97,521.5,470.97,517.5,466.97,521.5,475.97" style="stroke:#181818;stroke-width:1.0;"/></g><!--link squareYellow37 to tokenYellow37--><g id="link_squareYellow37_tokenYellow37"><path codeLine="123" d="M392.8439,297.3998 C375.0839,319.1198 363.6681,333.0952 347.6981,352.6252 " fill="none" id="squareYellow37-tokenYellow37" style="stroke:#181818;stroke-width:1.0;"/><polygon fill="none" points="400.44,288.11,393.5454,290.2229,392.8439,297.3998,399.7386,295.2869,400.44,288.11" style="stroke:#181818;stroke-width:1.0;"/><polygon fill="#181818" points="343.9,357.27,352.6937,352.8349,347.0651,353.3993,346.5007,347.7707,343.9,357.27" style="stroke:#181818;stroke-width:1.0;"/></g><!--link tokenYellow1 to NYellow--><g id="link_tokenYellow1_NYellow"><path codeLine="128" d="M1445.55,278.7 C1462.38,305.22 1489.04,347.21 1502.36,368.18 " fill="none" id="tokenYellow1-NYellow" style="stroke:#181818;stroke-width:1.0;stroke-dasharray:7.0,7.0;"/></g><!--link tokenYellow2 to NYellow--><g id="link_tokenYellow2_NYellow"><path codeLine="129" d="M1575.45,278.7 C1558.62,305.22 1531.96,347.21 1518.64,368.18 " fill="none" id="tokenYellow2-NYellow" style="stroke:#181818;stroke-width:1.0;stroke-dasharray:7.0,7.0;"/></g><!--link tokenRed1 to NRed--><g id="link_tokenRed1_NRed"><path codeLine="134" d="M902.81,278.7 C925.54,305.22 961.53,347.21 979.52,368.18 " fill="none" id="tokenRed1-NRed" style="stroke:#181818;stroke-width:1.0;stroke-dasharray:7.0,7.0;"/></g><!--link tokenRed2 to NRed--><g id="link_tokenRed2_NRed"><path codeLine="135" d="M1032.72,278.7 C1021.77,305.22 1004.45,347.21 995.79,368.18 " fill="none" id="tokenRed2-NRed" style="stroke:#181818;stroke-width:1.0;stroke-dasharray:7.0,7.0;"/></g><!--link playerRed to NoteTokenPlaced--><g id="link_playerRed_NoteTokenPlaced"><path codeLine="141" d="M1108.08,160.08 C1136.93,180.95 1178.7,211.17 1206.68,231.42 " fill="none" id="playerRed-NoteTokenPlaced" style="stroke:#181818;stroke-width:1.0;stroke-dasharray:7.0,7.0;"/></g><!--link playerYellow to NoteTokenPlaced--><g id="link_playerYellow_NoteTokenPlaced"><path codeLine="142" d="M1236.5,160.08 C1236.5,180.95 1236.5,211.17 1236.5,231.42 " fill="none" id="playerYellow-NoteTokenPlaced" style="stroke:#181818;stroke-width:1.0;stroke-dasharray:7.0,7.0;"/></g><!--link squareYellow37 to squareYellow27--><!--link squareYellow27 to squareYellow17--><!--link squareYellow37 to squareRed16--><!--link squareYellow27 to squareRed16--><!--reverse link squareRed16 to squareYellow17--><!--reverse link squareRed15 to squareRed16--><!--reverse link squareRed14 to squareRed15--><!--reverse link squareRed13 to squareRed14--><!--SRC=[bLOzRzim4DtvAuXaC5100VHb5mRQeMc7BaNGPYcA38p4n6nfKXNfkcwG_zuZAUkJb6qlbkwzTqSUxquKKbDC5Fv8LL6pIZCfqAU_P5jnkiPtd1ne_PMMUC-4maoWZQpPFoaquM3I6om5F-0CLvmKmDBo5nKAKL5Y0NuHaey_QQ7nrVfM2W5FsPM9LJGl7Vn1ahgqsADvGaODtYg4uQT-xqXDbN69ovhiQMdDOCDqM-c3BzxzhXRMduQ75-GsWjzXiUCSlIAqgAn5BJg9urXHTTpt2xgLN1fX3L5VEpAUiBzJpkM-4npikutLRA0NwvkrMBK38LQSuklQXApb7lGnAYJVRGKyflt8NcaMK6OdbNaeQ7vIkWn9bsRNCsANgdY5hmzDqYOkLhFHdODauY2vp44wSP0E7Q25gsXRUgx6kqC4svqh-_MzORboCqycEQ7AcLKbbwkQN7hgxbnjugtPPkFZJVkscWQxn4FEBY7dbv2NvvAFvJUJiq2cBfUaAszsZnCGbxI2wKL5mSnyQCrlebBkHVI-6OTJknbh7dCxk8AOMnOimNeUnNUsLZ7ibJaqcKNZ06fFBGpbOIXheSY1qG1Esm4_sc2R7zmcybW-CrY2-haRmiqEJpAIzZimMb9__il9gj8Udddm3FL7-HJFKNzUJ_4bGgEPB7tRMw7HuFMnaY4hzREWaDpd7HhbIrEDdqkwnOHp7B-5tjqI9fXuRZwn2pMvLlHNTdDpTD9VIMVjOfckw0AjpWvaqWJ-ZBmjYEQzSmx_jl_Tf4Ncc9Lc48We9Gj6jBqT8RsXh8R8geBUP7zewEBKrY846hdk5zeKXIehcJASzjfKISNCjMunFftenuQLK8SF_eOUdNWqf4zR_2plhkR6hi-anZqgfq_QItML7kRbWuu9yx91vuruWr7p7m00]--></g></svg>