<?xml version="1.0" encoding="us-ascii" standalone="no"?><svg xmlns="http://www.w3.org/2000/svg" xmlns:xlink="http://www.w3.org/1999/xlink" contentStyleType="text/css" height="377px" preserveAspectRatio="none" style="width:949px;height:377px;background:#FFFFFF;" version="1.1" viewBox="0 0 949 377" width="949px" zoomAndPan="magnify"><defs/><g><g id="elem_connect4"><rect fill="#F1F1F1" height="38.6211" style="stroke:#181818;stroke-width:0.5;" width="79" x="301" y="7"/><text fill="#000000" font-family="sans-serif" font-size="14" lengthAdjust="spacing" textLength="65" x="308" y="24.1074">:Connect4</text><line style="stroke:#181818;stroke-width:0.5;" x1="302" x2="379" y1="29.6211" y2="29.6211"/></g><g id="elem_board"><rect fill="#F1F1F1" height="38.6211" style="stroke:#181818;stroke-width:0.5;" width="56" x="371.5" y="111"/><text fill="#000000" font-family="sans-serif" font-size="14" lengthAdjust="spacing" textLength="42" x="378.5" y="128.1074">:Board</text><line style="stroke:#181818;stroke-width:0.5;" x1="372.5" x2="426.5" y1="133.6211" y2="133.6211"/></g><g id="elem_turn"><rect fill="#F1F1F1" height="38.6211" style="stroke:#181818;stroke-width:0.5;" width="48" x="99.5" y="111"/><text fill="#000000" font-family="sans-serif" font-size="14" lengthAdjust="spacing" textLength="34" x="106.5" y="128.1074">:Turn</text><line style="stroke:#181818;stroke-width:0.5;" x1="100.5" x2="146.5" y1="133.6211" y2="133.6211"/></g><g id="elem_playerRed"><rect fill="#F1F1F1" height="49.2422" style="stroke:#181818;stroke-width:0.5;" width="83" x="183" y="106"/><text fill="#000000" font-family="sans-serif" font-size="14" lengthAdjust="spacing" textLength="44" x="202.5" y="123.1074">:Player</text><line style="stroke:#181818;stroke-width:0.5;" x1="184" x2="265" y1="128.6211" y2="128.6211"/><text fill="#000000" font-family="sans-serif" font-size="14" lengthAdjust="spacing" textLength="71" x="189" y="147.7285">Color = red</text></g><g id="elem_playerYellow"><rect fill="#F1F1F1" height="49.2422" style="stroke:#181818;stroke-width:0.5;" width="100" x="707.5" y="106"/><text fill="#000000" font-family="sans-serif" font-size="14" lengthAdjust="spacing" textLength="48" x="733.5" y="123.1074">: Player</text><line style="stroke:#181818;stroke-width:0.5;" x1="708.5" x2="806.5" y1="128.6211" y2="128.6211"/><text fill="#000000" font-family="sans-serif" font-size="14" lengthAdjust="spacing" textLength="88" x="713.5" y="147.7285">Color = yellow</text></g><g id="elem_square11"><rect fill="#F1F1F1" height="67.8633" style="stroke:#181818;stroke-width:0.5;" width="81" x="243" y="215"/><text fill="#000000" font-family="sans-serif" font-size="14" lengthAdjust="spacing" textLength="50" x="258.5" y="232.1074">:Square</text><line style="stroke:#181818;stroke-width:0.5;" x1="244" x2="323" y1="237.6211" y2="237.6211"/><text fill="#000000" font-family="sans-serif" font-size="14" lengthAdjust="spacing" textLength="46" x="249" y="256.7285">row = 1</text><text fill="#000000" font-family="sans-serif" font-size="14" lengthAdjust="spacing" textLength="69" x="249" y="275.3496">column = 1</text></g><g id="elem_square17"><rect fill="#F1F1F1" height="67.8633" style="stroke:#181818;stroke-width:0.5;" width="81" x="359" y="215"/><text fill="#000000" font-family="sans-serif" font-size="14" lengthAdjust="spacing" textLength="50" x="374.5" y="232.1074">:Square</text><line style="stroke:#181818;stroke-width:0.5;" x1="360" x2="439" y1="237.6211" y2="237.6211"/><text fill="#000000" font-family="sans-serif" font-size="14" lengthAdjust="spacing" textLength="46" x="365" y="256.7285">row = 1</text><text fill="#000000" font-family="sans-serif" font-size="14" lengthAdjust="spacing" textLength="69" x="365" y="275.3496">column = 7</text></g><g id="elem_square61"><rect fill="#F1F1F1" height="67.8633" style="stroke:#181818;stroke-width:0.5;" width="81" x="475" y="215"/><text fill="#000000" font-family="sans-serif" font-size="14" lengthAdjust="spacing" textLength="50" x="490.5" y="232.1074">:Square</text><line style="stroke:#181818;stroke-width:0.5;" x1="476" x2="555" y1="237.6211" y2="237.6211"/><text fill="#000000" font-family="sans-serif" font-size="14" lengthAdjust="spacing" textLength="46" x="481" y="256.7285">row = 6</text><text fill="#000000" font-family="sans-serif" font-size="14" lengthAdjust="spacing" textLength="69" x="481" y="275.3496">column = 1</text></g><g id="elem_square67"><rect fill="#F1F1F1" height="67.8633" style="stroke:#181818;stroke-width:0.5;" width="81" x="591" y="215"/><text fill="#000000" font-family="sans-serif" font-size="14" lengthAdjust="spacing" textLength="50" x="606.5" y="232.1074">:Square</text><line style="stroke:#181818;stroke-width:0.5;" x1="592" x2="671" y1="237.6211" y2="237.6211"/><text fill="#000000" font-family="sans-serif" font-size="14" lengthAdjust="spacing" textLength="46" x="597" y="256.7285">row = 6</text><text fill="#000000" font-family="sans-serif" font-size="14" lengthAdjust="spacing" textLength="69" x="597" y="275.3496">column = 7</text></g><g id="elem_tokenRed1"><rect fill="#F1F1F1" height="49.2422" style="stroke:#181818;stroke-width:0.5;" width="83" x="7" y="224.5"/><text fill="#000000" font-family="sans-serif" font-size="14" lengthAdjust="spacing" textLength="44" x="26.5" y="241.6074">:Token</text><line style="stroke:#181818;stroke-width:0.5;" x1="8" x2="89" y1="247.1211" y2="247.1211"/><text fill="#000000" font-family="sans-serif" font-size="14" lengthAdjust="spacing" textLength="71" x="13" y="266.2285">Color = red</text></g><g id="elem_tokenRed2"><rect fill="#F1F1F1" height="49.2422" style="stroke:#181818;stroke-width:0.5;" width="83" x="125" y="224.5"/><text fill="#000000" font-family="sans-serif" font-size="14" lengthAdjust="spacing" textLength="44" x="144.5" y="241.6074">:Token</text><line style="stroke:#181818;stroke-width:0.5;" x1="126" x2="207" y1="247.1211" y2="247.1211"/><text fill="#000000" font-family="sans-serif" font-size="14" lengthAdjust="spacing" textLength="71" x="131" y="266.2285">Color = red</text></g><g id="elem_tokenYellow1"><rect fill="#F1F1F1" height="49.2422" style="stroke:#181818;stroke-width:0.5;" width="100" x="707.5" y="224.5"/><text fill="#000000" font-family="sans-serif" font-size="14" lengthAdjust="spacing" textLength="44" x="735.5" y="241.6074">:Token</text><line style="stroke:#181818;stroke-width:0.5;" x1="708.5" x2="806.5" y1="247.1211" y2="247.1211"/><text fill="#000000" font-family="sans-serif" font-size="14" lengthAdjust="spacing" textLength="88" x="713.5" y="266.2285">Color = yellow</text></g><g id="elem_tokenYellow2"><rect fill="#F1F1F1" height="49.2422" style="stroke:#181818;stroke-width:0.5;" width="100" x="842.5" y="224.5"/><text fill="#000000" font-family="sans-serif" font-size="14" lengthAdjust="spacing" textLength="44" x="870.5" y="241.6074">:Token</text><line style="stroke:#181818;stroke-width:0.5;" x1="843.5" x2="941.5" y1="247.1211" y2="247.1211"/><text fill="#000000" font-family="sans-serif" font-size="14" lengthAdjust="spacing" textLength="88" x="848.5" y="266.2285">Color = yellow</text></g><g id="elem_NEmpty"><path d="M348.5,343 L348.5,370.291 L566.5,370.291 L566.5,353 L556.5,343 L348.5,343 " fill="#FEFFDD" style="stroke:#181818;stroke-width:0.5;"/><path d="M556.5,343 L556.5,353 L566.5,353 L556.5,343 " fill="#FEFFDD" style="stroke:#181818;stroke-width:1.0;"/><text fill="#000000" font-family="sans-serif" font-size="13" lengthAdjust="spacing" textLength="197" x="354.5" y="362.0283">All 6x7 board's squares are empty</text></g><g id="elem_NYellow"><path d="M736,343 L736,370.291 L913,370.291 L913,353 L903,343 L736,343 " fill="#FEFFDD" style="stroke:#181818;stroke-width:0.5;"/><path d="M903,343 L903,353 L913,353 L903,343 " fill="#FEFFDD" style="stroke:#181818;stroke-width:1.0;"/><text fill="#000000" font-family="sans-serif" font-size="13" lengthAdjust="spacing" textLength="156" x="742" y="362.0283">Idem all 21 Player's tokens</text></g><g id="elem_NRed"><path d="M19,343 L19,370.291 L196,370.291 L196,353 L186,343 L19,343 " fill="#FEFFDD" style="stroke:#181818;stroke-width:0.5;"/><path d="M186,343 L186,353 L196,353 L186,343 " fill="#FEFFDD" style="stroke:#181818;stroke-width:1.0;"/><text fill="#000000" font-family="sans-serif" font-size="13" lengthAdjust="spacing" textLength="156" x="25" y="362.0283">Idem all 21 Player's tokens</text></g><!--link connect4 to board--><g id="link_connect4_board"><path codeLine="47" d="M357.3313,56.5958 C367.9813,74.9958 375.1258,87.3563 385.7458,105.7163 " fill="none" id="connect4-board" style="stroke:#181818;stroke-width:1.0;"/><polygon fill="#181818" points="351.32,46.21,350.8637,53.4067,357.3313,56.5958,357.7876,49.3991,351.32,46.21" style="stroke:#181818;stroke-width:1.0;"/><polygon fill="#181818" points="388.75,110.91,387.7062,101.1166,386.2465,106.5819,380.7812,105.1222,388.75,110.91" style="stroke:#181818;stroke-width:1.0;"/></g><!--link connect4 to turn--><g id="link_connect4_turn"><path codeLine="48" d="M289.7225,48.8388 C253.9525,64.0988 211.17,83.04 165.5,106 C159.68,108.93 158.7432,109.3331 152.9732,112.5431 " fill="none" id="connect4-turn" style="stroke:#181818;stroke-width:1.0;"/><polygon fill="#181818" points="300.76,44.13,293.6716,42.8052,289.7225,48.8388,296.8108,50.1636,300.76,44.13" style="stroke:#181818;stroke-width:1.0;"/><polygon fill="#181818" points="147.73,115.46,157.5395,114.5801,152.0994,113.0292,153.6502,107.5891,147.73,115.46" style="stroke:#181818;stroke-width:1.0;"/></g><!--link connect4 to playerRed--><g id="link_connect4_playerRed"><path codeLine="49" d="M310.2093,54.1351 C291.1193,70.9251 276.5057,83.7679 255.8657,101.9179 " fill="none" id="connect4-playerRed" style="stroke:#181818;stroke-width:1.0;"/><polygon fill="#181818" points="319.22,46.21,312.0729,47.169,310.2093,54.1351,317.3563,53.1761,319.22,46.21" style="stroke:#181818;stroke-width:1.0;"/><polygon fill="#181818" points="251.36,105.88,260.76,102.9406,255.1148,102.5782,255.4771,96.933,251.36,105.88" style="stroke:#181818;stroke-width:1.0;"/></g><!--link connect4 to playerYellow--><g id="link_connect4_playerYellow"><path codeLine="50" d="M391.7662,40.0417 C467.9962,58.6917 617.5317,95.2647 701.4417,115.7847 " fill="none" id="connect4-playerYellow" style="stroke:#181818;stroke-width:1.0;"/><polygon fill="#181818" points="380.11,37.19,384.9875,42.5013,391.7662,40.0417,386.8887,34.7305,380.11,37.19" style="stroke:#181818;stroke-width:1.0;"/><polygon fill="#181818" points="707.27,117.21,699.4778,111.1866,702.4131,116.0223,697.5774,118.9576,707.27,117.21" style="stroke:#181818;stroke-width:1.0;"/></g><!--link turn to playerRed--><g id="link_turn_playerRed"><path codeLine="53" d="M147.57,130.5 C159.29,130.5 165.01,130.5 176.73,130.5 " fill="none" id="turn-to-playerRed" style="stroke:#181818;stroke-width:1.0;"/><polygon fill="#181818" points="182.73,130.5,173.73,126.5,177.73,130.5,173.73,134.5,182.73,130.5" style="stroke:#181818;stroke-width:1.0;"/></g><!--link board to square11--><g id="link_board_square11"><path codeLine="56" d="M372.3919,158.7224 C355.1019,176.0824 341.6745,189.5792 320.8345,210.4992 " fill="none" id="board-square11" style="stroke:#181818;stroke-width:1.0;"/><polygon fill="#181818" points="380.86,150.22,373.7918,151.6485,372.3919,158.7224,379.4601,157.2939,380.86,150.22" style="stroke:#181818;stroke-width:1.0;"/><polygon fill="#181818" points="316.6,214.75,325.7856,211.1969,320.1288,211.2077,320.1179,205.5509,316.6,214.75" style="stroke:#181818;stroke-width:1.0;"/></g><!--link board to square17--><g id="link_board_square17"><path codeLine="57" d="M399.5,162.22 C399.5,179.58 399.5,187.83 399.5,208.75 " fill="none" id="board-square17" style="stroke:#181818;stroke-width:1.0;"/><polygon fill="#181818" points="399.5,150.22,395.5,156.22,399.5,162.22,403.5,156.22,399.5,150.22" style="stroke:#181818;stroke-width:1.0;"/><polygon fill="#181818" points="399.5,214.75,403.5,205.75,399.5,209.75,395.5,205.75,399.5,214.75" style="stroke:#181818;stroke-width:1.0;"/></g><!--link board to square61--><g id="link_board_square61"><path codeLine="58" d="M426.6081,158.7224 C443.8981,176.0824 457.3255,189.5792 478.1655,210.4992 " fill="none" id="board-square61" style="stroke:#181818;stroke-width:1.0;"/><polygon fill="#181818" points="418.14,150.22,419.5399,157.2939,426.6081,158.7224,425.2082,151.6485,418.14,150.22" style="stroke:#181818;stroke-width:1.0;"/><polygon fill="#181818" points="482.4,214.75,478.8821,205.5509,478.8712,211.2077,473.2144,211.1969,482.4,214.75" style="stroke:#181818;stroke-width:1.0;"/></g><!--link board to square67--><g id="link_board_square67"><path codeLine="59" d="M438.4284,149.2107 C473.0684,165.0907 522.74,188.42 573.5,215 C579.14,217.96 579.7985,218.24 585.5785,221.46 " fill="none" id="board-square67" style="stroke:#181818;stroke-width:1.0;"/><polygon fill="#181818" points="427.52,144.21,431.3073,150.3465,438.4284,149.2107,434.6411,143.0742,427.52,144.21" style="stroke:#181818;stroke-width:1.0;"/><polygon fill="#181818" points="590.82,224.38,584.9044,216.5056,586.4521,221.9467,581.011,223.4943,590.82,224.38" style="stroke:#181818;stroke-width:1.0;"/></g><!--link playerRed to tokenRed1--><g id="link_playerRed_tokenRed1"><path codeLine="62" d="M188.88,155.08 C158.35,175.29 119.5834,200.9485 89.0634,221.1485 " fill="none" id="playerRed-to-tokenRed1" style="stroke:#181818;stroke-width:1.0;"/><polygon fill="#181818" points="84.06,224.46,93.7727,222.8283,88.2295,221.7004,89.3574,216.1571,84.06,224.46" style="stroke:#181818;stroke-width:1.0;"/></g><!--link playerRed to tokenRed2--><g id="link_playerRed_tokenRed2"><path codeLine="63" d="M212.76,155.08 C202.7,175.29 190.9548,198.8892 180.8948,219.0892 " fill="none" id="playerRed-to-tokenRed2" style="stroke:#181818;stroke-width:1.0;"/><polygon fill="#181818" points="178.22,224.46,185.8127,218.187,180.449,219.9843,178.6516,214.6206,178.22,224.46" style="stroke:#181818;stroke-width:1.0;"/></g><!--link playerYellow to tokenYellow1--><g id="link_playerYellow_tokenYellow1"><path codeLine="64" d="M757.5,155.08 C757.5,175.29 757.5,198.26 757.5,218.46 " fill="none" id="playerYellow-to-tokenYellow1" style="stroke:#181818;stroke-width:1.0;"/><polygon fill="#181818" points="757.5,224.46,761.5,215.46,757.5,219.46,753.5,215.46,757.5,224.46" style="stroke:#181818;stroke-width:1.0;"/></g><!--link playerYellow to tokenYellow2--><g id="link_playerYellow_tokenYellow2"><path codeLine="65" d="M784.82,155.08 C808.24,175.29 837.2674,200.3403 860.6774,220.5403 " fill="none" id="playerYellow-to-tokenYellow2" style="stroke:#181818;stroke-width:1.0;"/><polygon fill="#181818" points="865.22,224.46,861.0192,215.552,861.4345,221.1935,855.7929,221.6088,865.22,224.46" style="stroke:#181818;stroke-width:1.0;"/></g><!--link square11 to NEmpty--><g id="link_square11_NEmpty"><path codeLine="70" d="M324.3,274.74 C359.45,296.05 408.79,325.97 436.49,342.76 " fill="none" id="square11-NEmpty" style="stroke:#181818;stroke-width:1.0;stroke-dasharray:7.0,7.0;"/></g><!--link square17 to NEmpty--><g id="link_square17_NEmpty"><path codeLine="71" d="M417.69,283.09 C428.85,303.4 442.51,328.23 450.58,342.91 " fill="none" id="square17-NEmpty" style="stroke:#181818;stroke-width:1.0;stroke-dasharray:7.0,7.0;"/></g><!--link square61 to NEmpty--><g id="link_square61_NEmpty"><path codeLine="72" d="M497.31,283.09 C486.15,303.4 472.49,328.23 464.42,342.91 " fill="none" id="square61-NEmpty" style="stroke:#181818;stroke-width:1.0;stroke-dasharray:7.0,7.0;"/></g><!--link square67 to NEmpty--><g id="link_square67_NEmpty"><path codeLine="73" d="M590.7,274.74 C555.55,296.05 506.21,325.97 478.51,342.76 " fill="none" id="square67-NEmpty" style="stroke:#181818;stroke-width:1.0;stroke-dasharray:7.0,7.0;"/></g><!--link tokenYellow1 to NYellow--><g id="link_tokenYellow1_NYellow"><path codeLine="78" d="M772.54,273.68 C786.12,295.06 805.59,325.72 816.43,342.79 " fill="none" id="tokenYellow1-NYellow" style="stroke:#181818;stroke-width:1.0;stroke-dasharray:7.0,7.0;"/></g><!--link tokenYellow2 to NYellow--><g id="link_tokenYellow2_NYellow"><path codeLine="79" d="M877.24,273.68 C863.46,295.06 843.7,325.72 832.69,342.79 " fill="none" id="tokenYellow2-NYellow" style="stroke:#181818;stroke-width:1.0;stroke-dasharray:7.0,7.0;"/></g><!--link tokenRed1 to NRed--><g id="link_tokenRed1_NRed"><path codeLine="84" d="M61.74,273.68 C73.7,295.06 90.84,325.72 100.39,342.79 " fill="none" id="tokenRed1-NRed" style="stroke:#181818;stroke-width:1.0;stroke-dasharray:7.0,7.0;"/></g><!--link tokenRed2 to NRed--><g id="link_tokenRed2_NRed"><path codeLine="85" d="M153.26,273.68 C141.3,295.06 124.16,325.72 114.61,342.79 " fill="none" id="tokenRed2-NRed" style="stroke:#181818;stroke-width:1.0;stroke-dasharray:7.0,7.0;"/></g><!--SRC=[ZLHDImCn4BtFhmYzB0Wjx28920fQF7WHqLuyRZT1gzcaPhVKKlhVpTScs_sobp9vyzvCycQwSlt5YXhDRfPI21rTpr1UeS8VG3Rf1vahQdDh4yN4QgU4nMiT02HRdX-OgfB8UB68vRZaAwD7M4ek5Rf5Yb4uHJBgiTyPvt8V1GTxrXf8gfzThbYxrvj5hDebq_G8IkwrBeL2ybqfR7YQaf012PcKuD05Nze5am49iS-gvJSJxLUj3E1CDf7sBnqriC_DBkKwfzC1gwSLsU1mcXr2b6sPe4mK6pEg05_DgToB-PrVg3vk5weFXnqQpRbR6IDrXKvx2ytLvkEpFgi5YRr6X-smKBvPgH6S3EDuX8z9-BjqsePheU15C_U9N0Rjvv-d_MZ_PMG0GjRC3FZviTpM1xZd7E5VugQKDDjR8Vs3c6NeYoCZWiQUnS9h6ryw0EuoS6J4zdwAJvILADUNo5B_RKZyybMnS_kDkfINjjyLqTZ1pFtoyiPzNSM8WkF-_0S0]--></g></svg>