<?xml version="1.0" encoding="us-ascii" standalone="no"?><svg xmlns="http://www.w3.org/2000/svg" xmlns:xlink="http://www.w3.org/1999/xlink" contentStyleType="text/css" height="753px" preserveAspectRatio="none" style="width:847px;height:753px;background:#FFFFFF;" version="1.1" viewBox="0 0 847 753" width="847px" zoomAndPan="magnify"><defs/><g><!--class Connect4--><g id="elem_Connect4"><rect codeLine="2" fill="#F1F1F1" height="48" id="Connect4" rx="2.5" ry="2.5" style="stroke:#181818;stroke-width:0.5;" width="93" x="594.5" y="7"/><ellipse cx="609.5" cy="23" fill="#ADD1B2" rx="11" ry="11" style="stroke:#181818;stroke-width:1.0;"/><path d="M612.2656,18.875 Q612.4219,18.6563 612.6094,18.5469 Q612.7969,18.4375 613.0156,18.4375 Q613.3906,18.4375 613.625,18.7031 Q613.8594,18.9531 613.8594,19.5625 L613.8594,21.0156 Q613.8594,21.625 613.625,21.8906 Q613.3906,22.1563 613.0156,22.1563 Q612.6719,22.1563 612.4688,21.9531 Q612.2656,21.7656 612.1563,21.25 Q612.1094,20.8906 611.9219,20.7031 Q611.5938,20.3281 610.9844,20.1094 Q610.375,19.8906 609.75,19.8906 Q608.9844,19.8906 608.3438,20.2188 Q607.7188,20.5469 607.2188,21.2969 Q606.7344,22.0469 606.7344,23.0781 L606.7344,24.1719 Q606.7344,25.4063 607.625,26.2344 Q608.5156,27.0469 610.1094,27.0469 Q611.0469,27.0469 611.7031,26.7969 Q612.0938,26.6406 612.5156,26.2031 Q612.7813,25.9375 612.9219,25.8594 Q613.0781,25.7813 613.2813,25.7813 Q613.6094,25.7813 613.8594,26.0469 Q614.125,26.2969 614.125,26.6406 Q614.125,26.9844 613.7813,27.3906 Q613.2813,27.9688 612.4844,28.2969 Q611.4063,28.75 610.1094,28.75 Q608.5938,28.75 607.3906,28.125 Q606.4063,27.625 605.7188,26.5625 Q605.0313,25.4844 605.0313,24.2031 L605.0313,23.0469 Q605.0313,21.7188 605.6406,20.5781 Q606.2656,19.4219 607.3594,18.8125 Q608.4531,18.1875 609.6875,18.1875 Q610.4219,18.1875 611.0625,18.3594 Q611.7188,18.5156 612.2656,18.875 Z " fill="#000000"/><text fill="#000000" font-family="sans-serif" font-size="14" lengthAdjust="spacing" textLength="61" x="623.5" y="28.7969">Connect4</text><line style="stroke:#181818;stroke-width:0.5;" x1="595.5" x2="686.5" y1="39" y2="39"/><line style="stroke:#181818;stroke-width:0.5;" x1="595.5" x2="686.5" y1="47" y2="47"/></g><!--class Player--><g id="elem_Player"><rect codeLine="4" fill="#F1F1F1" height="48" id="Player" rx="2.5" ry="2.5" style="stroke:#181818;stroke-width:0.5;" width="72" x="605" y="116"/><ellipse cx="620" cy="132" fill="#ADD1B2" rx="11" ry="11" style="stroke:#181818;stroke-width:1.0;"/><path d="M622.7656,127.875 Q622.9219,127.6563 623.1094,127.5469 Q623.2969,127.4375 623.5156,127.4375 Q623.8906,127.4375 624.125,127.7031 Q624.3594,127.9531 624.3594,128.5625 L624.3594,130.0156 Q624.3594,130.625 624.125,130.8906 Q623.8906,131.1563 623.5156,131.1563 Q623.1719,131.1563 622.9688,130.9531 Q622.7656,130.7656 622.6563,130.25 Q622.6094,129.8906 622.4219,129.7031 Q622.0938,129.3281 621.4844,129.1094 Q620.875,128.8906 620.25,128.8906 Q619.4844,128.8906 618.8438,129.2188 Q618.2188,129.5469 617.7188,130.2969 Q617.2344,131.0469 617.2344,132.0781 L617.2344,133.1719 Q617.2344,134.4063 618.125,135.2344 Q619.0156,136.0469 620.6094,136.0469 Q621.5469,136.0469 622.2031,135.7969 Q622.5938,135.6406 623.0156,135.2031 Q623.2813,134.9375 623.4219,134.8594 Q623.5781,134.7813 623.7813,134.7813 Q624.1094,134.7813 624.3594,135.0469 Q624.625,135.2969 624.625,135.6406 Q624.625,135.9844 624.2813,136.3906 Q623.7813,136.9688 622.9844,137.2969 Q621.9063,137.75 620.6094,137.75 Q619.0938,137.75 617.8906,137.125 Q616.9063,136.625 616.2188,135.5625 Q615.5313,134.4844 615.5313,133.2031 L615.5313,132.0469 Q615.5313,130.7188 616.1406,129.5781 Q616.7656,128.4219 617.8594,127.8125 Q618.9531,127.1875 620.1875,127.1875 Q620.9219,127.1875 621.5625,127.3594 Q622.2188,127.5156 622.7656,127.875 Z " fill="#000000"/><text fill="#000000" font-family="sans-serif" font-size="14" lengthAdjust="spacing" textLength="40" x="634" y="137.7969">Player</text><line style="stroke:#181818;stroke-width:0.5;" x1="606" x2="676" y1="148" y2="148"/><line style="stroke:#181818;stroke-width:0.5;" x1="606" x2="676" y1="156" y2="156"/></g><!--class Turn--><g id="elem_Turn"><rect codeLine="5" fill="#F1F1F1" height="48" id="Turn" rx="2.5" ry="2.5" style="stroke:#181818;stroke-width:0.5;" width="62" x="508" y="116"/><ellipse cx="523" cy="132" fill="#ADD1B2" rx="11" ry="11" style="stroke:#181818;stroke-width:1.0;"/><path d="M525.7656,127.875 Q525.9219,127.6563 526.1094,127.5469 Q526.2969,127.4375 526.5156,127.4375 Q526.8906,127.4375 527.125,127.7031 Q527.3594,127.9531 527.3594,128.5625 L527.3594,130.0156 Q527.3594,130.625 527.125,130.8906 Q526.8906,131.1563 526.5156,131.1563 Q526.1719,131.1563 525.9688,130.9531 Q525.7656,130.7656 525.6563,130.25 Q525.6094,129.8906 525.4219,129.7031 Q525.0938,129.3281 524.4844,129.1094 Q523.875,128.8906 523.25,128.8906 Q522.4844,128.8906 521.8438,129.2188 Q521.2188,129.5469 520.7188,130.2969 Q520.2344,131.0469 520.2344,132.0781 L520.2344,133.1719 Q520.2344,134.4063 521.125,135.2344 Q522.0156,136.0469 523.6094,136.0469 Q524.5469,136.0469 525.2031,135.7969 Q525.5938,135.6406 526.0156,135.2031 Q526.2813,134.9375 526.4219,134.8594 Q526.5781,134.7813 526.7813,134.7813 Q527.1094,134.7813 527.3594,135.0469 Q527.625,135.2969 527.625,135.6406 Q527.625,135.9844 527.2813,136.3906 Q526.7813,136.9688 525.9844,137.2969 Q524.9063,137.75 523.6094,137.75 Q522.0938,137.75 520.8906,137.125 Q519.9063,136.625 519.2188,135.5625 Q518.5313,134.4844 518.5313,133.2031 L518.5313,132.0469 Q518.5313,130.7188 519.1406,129.5781 Q519.7656,128.4219 520.8594,127.8125 Q521.9531,127.1875 523.1875,127.1875 Q523.9219,127.1875 524.5625,127.3594 Q525.2188,127.5156 525.7656,127.875 Z " fill="#000000"/><text fill="#000000" font-family="sans-serif" font-size="14" lengthAdjust="spacing" textLength="30" x="537" y="137.7969">Turn</text><line style="stroke:#181818;stroke-width:0.5;" x1="509" x2="569" y1="148" y2="148"/><line style="stroke:#181818;stroke-width:0.5;" x1="509" x2="569" y1="156" y2="156"/></g><!--class Board--><g id="elem_Board"><rect codeLine="6" fill="#F1F1F1" height="48" id="Board" rx="2.5" ry="2.5" style="stroke:#181818;stroke-width:0.5;" width="70" x="712" y="116"/><ellipse cx="727" cy="132" fill="#ADD1B2" rx="11" ry="11" style="stroke:#181818;stroke-width:1.0;"/><path d="M729.7656,127.875 Q729.9219,127.6563 730.1094,127.5469 Q730.2969,127.4375 730.5156,127.4375 Q730.8906,127.4375 731.125,127.7031 Q731.3594,127.9531 731.3594,128.5625 L731.3594,130.0156 Q731.3594,130.625 731.125,130.8906 Q730.8906,131.1563 730.5156,131.1563 Q730.1719,131.1563 729.9688,130.9531 Q729.7656,130.7656 729.6563,130.25 Q729.6094,129.8906 729.4219,129.7031 Q729.0938,129.3281 728.4844,129.1094 Q727.875,128.8906 727.25,128.8906 Q726.4844,128.8906 725.8438,129.2188 Q725.2188,129.5469 724.7188,130.2969 Q724.2344,131.0469 724.2344,132.0781 L724.2344,133.1719 Q724.2344,134.4063 725.125,135.2344 Q726.0156,136.0469 727.6094,136.0469 Q728.5469,136.0469 729.2031,135.7969 Q729.5938,135.6406 730.0156,135.2031 Q730.2813,134.9375 730.4219,134.8594 Q730.5781,134.7813 730.7813,134.7813 Q731.1094,134.7813 731.3594,135.0469 Q731.625,135.2969 731.625,135.6406 Q731.625,135.9844 731.2813,136.3906 Q730.7813,136.9688 729.9844,137.2969 Q728.9063,137.75 727.6094,137.75 Q726.0938,137.75 724.8906,137.125 Q723.9063,136.625 723.2188,135.5625 Q722.5313,134.4844 722.5313,133.2031 L722.5313,132.0469 Q722.5313,130.7188 723.1406,129.5781 Q723.7656,128.4219 724.8594,127.8125 Q725.9531,127.1875 727.1875,127.1875 Q727.9219,127.1875 728.5625,127.3594 Q729.2188,127.5156 729.7656,127.875 Z " fill="#000000"/><text fill="#000000" font-family="sans-serif" font-size="14" lengthAdjust="spacing" textLength="38" x="741" y="137.7969">Board</text><line style="stroke:#181818;stroke-width:0.5;" x1="713" x2="781" y1="148" y2="148"/><line style="stroke:#181818;stroke-width:0.5;" x1="713" x2="781" y1="156" y2="156"/></g><!--class Token--><g id="elem_Token"><rect codeLine="7" fill="#F1F1F1" height="48" id="Token" rx="2.5" ry="2.5" style="stroke:#181818;stroke-width:0.5;" width="72" x="511" y="552"/><ellipse cx="526" cy="568" fill="#ADD1B2" rx="11" ry="11" style="stroke:#181818;stroke-width:1.0;"/><path d="M528.7656,563.875 Q528.9219,563.6563 529.1094,563.5469 Q529.2969,563.4375 529.5156,563.4375 Q529.8906,563.4375 530.125,563.7031 Q530.3594,563.9531 530.3594,564.5625 L530.3594,566.0156 Q530.3594,566.625 530.125,566.8906 Q529.8906,567.1563 529.5156,567.1563 Q529.1719,567.1563 528.9688,566.9531 Q528.7656,566.7656 528.6563,566.25 Q528.6094,565.8906 528.4219,565.7031 Q528.0938,565.3281 527.4844,565.1094 Q526.875,564.8906 526.25,564.8906 Q525.4844,564.8906 524.8438,565.2188 Q524.2188,565.5469 523.7188,566.2969 Q523.2344,567.0469 523.2344,568.0781 L523.2344,569.1719 Q523.2344,570.4063 524.125,571.2344 Q525.0156,572.0469 526.6094,572.0469 Q527.5469,572.0469 528.2031,571.7969 Q528.5938,571.6406 529.0156,571.2031 Q529.2813,570.9375 529.4219,570.8594 Q529.5781,570.7813 529.7813,570.7813 Q530.1094,570.7813 530.3594,571.0469 Q530.625,571.2969 530.625,571.6406 Q530.625,571.9844 530.2813,572.3906 Q529.7813,572.9688 528.9844,573.2969 Q527.9063,573.75 526.6094,573.75 Q525.0938,573.75 523.8906,573.125 Q522.9063,572.625 522.2188,571.5625 Q521.5313,570.4844 521.5313,569.2031 L521.5313,568.0469 Q521.5313,566.7188 522.1406,565.5781 Q522.7656,564.4219 523.8594,563.8125 Q524.9531,563.1875 526.1875,563.1875 Q526.9219,563.1875 527.5625,563.3594 Q528.2188,563.5156 528.7656,563.875 Z " fill="#000000"/><text fill="#000000" font-family="sans-serif" font-size="14" lengthAdjust="spacing" textLength="40" x="540" y="573.7969">Token</text><line style="stroke:#181818;stroke-width:0.5;" x1="512" x2="582" y1="584" y2="584"/><line style="stroke:#181818;stroke-width:0.5;" x1="512" x2="582" y1="592" y2="592"/></g><!--class Square--><g id="elem_Square"><rect codeLine="9" fill="#F1F1F1" height="48" id="Square" rx="2.5" ry="2.5" style="stroke:#181818;stroke-width:0.5;" width="78" x="762" y="443"/><ellipse cx="777" cy="459" fill="#ADD1B2" rx="11" ry="11" style="stroke:#181818;stroke-width:1.0;"/><path d="M779.7656,454.875 Q779.9219,454.6563 780.1094,454.5469 Q780.2969,454.4375 780.5156,454.4375 Q780.8906,454.4375 781.125,454.7031 Q781.3594,454.9531 781.3594,455.5625 L781.3594,457.0156 Q781.3594,457.625 781.125,457.8906 Q780.8906,458.1563 780.5156,458.1563 Q780.1719,458.1563 779.9688,457.9531 Q779.7656,457.7656 779.6563,457.25 Q779.6094,456.8906 779.4219,456.7031 Q779.0938,456.3281 778.4844,456.1094 Q777.875,455.8906 777.25,455.8906 Q776.4844,455.8906 775.8438,456.2188 Q775.2188,456.5469 774.7188,457.2969 Q774.2344,458.0469 774.2344,459.0781 L774.2344,460.1719 Q774.2344,461.4063 775.125,462.2344 Q776.0156,463.0469 777.6094,463.0469 Q778.5469,463.0469 779.2031,462.7969 Q779.5938,462.6406 780.0156,462.2031 Q780.2813,461.9375 780.4219,461.8594 Q780.5781,461.7813 780.7813,461.7813 Q781.1094,461.7813 781.3594,462.0469 Q781.625,462.2969 781.625,462.6406 Q781.625,462.9844 781.2813,463.3906 Q780.7813,463.9688 779.9844,464.2969 Q778.9063,464.75 777.6094,464.75 Q776.0938,464.75 774.8906,464.125 Q773.9063,463.625 773.2188,462.5625 Q772.5313,461.4844 772.5313,460.2031 L772.5313,459.0469 Q772.5313,457.7188 773.1406,456.5781 Q773.7656,455.4219 774.8594,454.8125 Q775.9531,454.1875 777.1875,454.1875 Q777.9219,454.1875 778.5625,454.3594 Q779.2188,454.5156 779.7656,454.875 Z " fill="#000000"/><text fill="#000000" font-family="sans-serif" font-size="14" lengthAdjust="spacing" textLength="46" x="791" y="464.7969">Square</text><line style="stroke:#181818;stroke-width:0.5;" x1="763" x2="839" y1="475" y2="475"/><line style="stroke:#181818;stroke-width:0.5;" x1="763" x2="839" y1="483" y2="483"/></g><!--class Goal--><g id="elem_Goal"><rect codeLine="12" fill="#F1F1F1" height="48" id="Goal" rx="2.5" ry="2.5" style="stroke:#181818;stroke-width:0.5;" width="62" x="355" y="225"/><ellipse cx="370" cy="241" fill="#A9DCDF" rx="11" ry="11" style="stroke:#181818;stroke-width:1.0;"/><path d="M372.1875,242.7656 L368.0469,242.7656 L367.625,243.7969 L368.0469,243.7969 Q368.6563,243.7969 368.9219,244.0313 Q369.1875,244.2656 369.1875,244.6563 Q369.1875,245.0313 368.9219,245.2656 Q368.6563,245.5 368.0469,245.5 L365.75,245.5 Q365.1406,245.5 364.8906,245.2656 Q364.625,245.0313 364.625,244.6406 Q364.625,244.2656 364.9063,244.0313 Q365.1719,243.7813 365.7969,243.7969 L368.4688,237.1406 L367.3594,237.1406 Q366.75,237.1406 366.4844,236.9063 Q366.2188,236.6719 366.2188,236.2813 Q366.2188,235.9063 366.4844,235.6719 Q366.75,235.4375 367.3594,235.4375 L371.0313,235.4375 L374.4219,243.7969 Q375.0156,243.7969 375.2031,243.9375 Q375.5938,244.2031 375.5938,244.6563 Q375.5938,245.0313 375.3281,245.2656 Q375.0781,245.5 374.4688,245.5 L372.1719,245.5 Q371.5625,245.5 371.2969,245.2656 Q371.0313,245.0313 371.0313,244.6406 Q371.0313,244.2656 371.2969,244.0313 Q371.5625,243.7969 372.1719,243.7969 L372.5938,243.7969 L372.1875,242.7656 Z M371.4688,241.0625 L370.1094,237.6875 L368.7344,241.0625 L371.4688,241.0625 Z " fill="#000000"/><text fill="#000000" font-family="sans-serif" font-size="14" font-style="italic" lengthAdjust="spacing" textLength="30" x="384" y="246.7969">Goal</text><line style="stroke:#181818;stroke-width:0.5;" x1="356" x2="416" y1="257" y2="257"/><line style="stroke:#181818;stroke-width:0.5;" x1="356" x2="416" y1="265" y2="265"/></g><!--class InRow--><g id="elem_InRow"><rect codeLine="13" fill="#F1F1F1" height="48" id="InRow" rx="2.5" ry="2.5" style="stroke:#181818;stroke-width:0.5;" width="70" x="451" y="334"/><ellipse cx="466" cy="350" fill="#ADD1B2" rx="11" ry="11" style="stroke:#181818;stroke-width:1.0;"/><path d="M468.7656,345.875 Q468.9219,345.6563 469.1094,345.5469 Q469.2969,345.4375 469.5156,345.4375 Q469.8906,345.4375 470.125,345.7031 Q470.3594,345.9531 470.3594,346.5625 L470.3594,348.0156 Q470.3594,348.625 470.125,348.8906 Q469.8906,349.1563 469.5156,349.1563 Q469.1719,349.1563 468.9688,348.9531 Q468.7656,348.7656 468.6563,348.25 Q468.6094,347.8906 468.4219,347.7031 Q468.0938,347.3281 467.4844,347.1094 Q466.875,346.8906 466.25,346.8906 Q465.4844,346.8906 464.8438,347.2188 Q464.2188,347.5469 463.7188,348.2969 Q463.2344,349.0469 463.2344,350.0781 L463.2344,351.1719 Q463.2344,352.4063 464.125,353.2344 Q465.0156,354.0469 466.6094,354.0469 Q467.5469,354.0469 468.2031,353.7969 Q468.5938,353.6406 469.0156,353.2031 Q469.2813,352.9375 469.4219,352.8594 Q469.5781,352.7813 469.7813,352.7813 Q470.1094,352.7813 470.3594,353.0469 Q470.625,353.2969 470.625,353.6406 Q470.625,353.9844 470.2813,354.3906 Q469.7813,354.9688 468.9844,355.2969 Q467.9063,355.75 466.6094,355.75 Q465.0938,355.75 463.8906,355.125 Q462.9063,354.625 462.2188,353.5625 Q461.5313,352.4844 461.5313,351.2031 L461.5313,350.0469 Q461.5313,348.7188 462.1406,347.5781 Q462.7656,346.4219 463.8594,345.8125 Q464.9531,345.1875 466.1875,345.1875 Q466.9219,345.1875 467.5625,345.3594 Q468.2188,345.5156 468.7656,345.875 Z " fill="#000000"/><text fill="#000000" font-family="sans-serif" font-size="14" lengthAdjust="spacing" textLength="38" x="480" y="355.7969">InRow</text><line style="stroke:#181818;stroke-width:0.5;" x1="452" x2="520" y1="366" y2="366"/><line style="stroke:#181818;stroke-width:0.5;" x1="452" x2="520" y1="374" y2="374"/></g><!--class InDiagonal--><g id="elem_InDiagonal"><rect codeLine="14" fill="#F1F1F1" height="48" id="InDiagonal" rx="2.5" ry="2.5" style="stroke:#181818;stroke-width:0.5;" width="99" x="556.5" y="334"/><ellipse cx="571.5" cy="350" fill="#ADD1B2" rx="11" ry="11" style="stroke:#181818;stroke-width:1.0;"/><path d="M574.2656,345.875 Q574.4219,345.6563 574.6094,345.5469 Q574.7969,345.4375 575.0156,345.4375 Q575.3906,345.4375 575.625,345.7031 Q575.8594,345.9531 575.8594,346.5625 L575.8594,348.0156 Q575.8594,348.625 575.625,348.8906 Q575.3906,349.1563 575.0156,349.1563 Q574.6719,349.1563 574.4688,348.9531 Q574.2656,348.7656 574.1563,348.25 Q574.1094,347.8906 573.9219,347.7031 Q573.5938,347.3281 572.9844,347.1094 Q572.375,346.8906 571.75,346.8906 Q570.9844,346.8906 570.3438,347.2188 Q569.7188,347.5469 569.2188,348.2969 Q568.7344,349.0469 568.7344,350.0781 L568.7344,351.1719 Q568.7344,352.4063 569.625,353.2344 Q570.5156,354.0469 572.1094,354.0469 Q573.0469,354.0469 573.7031,353.7969 Q574.0938,353.6406 574.5156,353.2031 Q574.7813,352.9375 574.9219,352.8594 Q575.0781,352.7813 575.2813,352.7813 Q575.6094,352.7813 575.8594,353.0469 Q576.125,353.2969 576.125,353.6406 Q576.125,353.9844 575.7813,354.3906 Q575.2813,354.9688 574.4844,355.2969 Q573.4063,355.75 572.1094,355.75 Q570.5938,355.75 569.3906,355.125 Q568.4063,354.625 567.7188,353.5625 Q567.0313,352.4844 567.0313,351.2031 L567.0313,350.0469 Q567.0313,348.7188 567.6406,347.5781 Q568.2656,346.4219 569.3594,345.8125 Q570.4531,345.1875 571.6875,345.1875 Q572.4219,345.1875 573.0625,345.3594 Q573.7188,345.5156 574.2656,345.875 Z " fill="#000000"/><text fill="#000000" font-family="sans-serif" font-size="14" lengthAdjust="spacing" textLength="67" x="585.5" y="355.7969">InDiagonal</text><line style="stroke:#181818;stroke-width:0.5;" x1="557.5" x2="654.5" y1="366" y2="366"/><line style="stroke:#181818;stroke-width:0.5;" x1="557.5" x2="654.5" y1="374" y2="374"/></g><!--class InColumn--><g id="elem_InColumn"><rect codeLine="15" fill="#F1F1F1" height="48" id="InColumn" rx="2.5" ry="2.5" style="stroke:#181818;stroke-width:0.5;" width="91" x="144.5" y="334"/><ellipse cx="159.5" cy="350" fill="#ADD1B2" rx="11" ry="11" style="stroke:#181818;stroke-width:1.0;"/><path d="M162.2656,345.875 Q162.4219,345.6563 162.6094,345.5469 Q162.7969,345.4375 163.0156,345.4375 Q163.3906,345.4375 163.625,345.7031 Q163.8594,345.9531 163.8594,346.5625 L163.8594,348.0156 Q163.8594,348.625 163.625,348.8906 Q163.3906,349.1563 163.0156,349.1563 Q162.6719,349.1563 162.4688,348.9531 Q162.2656,348.7656 162.1563,348.25 Q162.1094,347.8906 161.9219,347.7031 Q161.5938,347.3281 160.9844,347.1094 Q160.375,346.8906 159.75,346.8906 Q158.9844,346.8906 158.3438,347.2188 Q157.7188,347.5469 157.2188,348.2969 Q156.7344,349.0469 156.7344,350.0781 L156.7344,351.1719 Q156.7344,352.4063 157.625,353.2344 Q158.5156,354.0469 160.1094,354.0469 Q161.0469,354.0469 161.7031,353.7969 Q162.0938,353.6406 162.5156,353.2031 Q162.7813,352.9375 162.9219,352.8594 Q163.0781,352.7813 163.2813,352.7813 Q163.6094,352.7813 163.8594,353.0469 Q164.125,353.2969 164.125,353.6406 Q164.125,353.9844 163.7813,354.3906 Q163.2813,354.9688 162.4844,355.2969 Q161.4063,355.75 160.1094,355.75 Q158.5938,355.75 157.3906,355.125 Q156.4063,354.625 155.7188,353.5625 Q155.0313,352.4844 155.0313,351.2031 L155.0313,350.0469 Q155.0313,348.7188 155.6406,347.5781 Q156.2656,346.4219 157.3594,345.8125 Q158.4531,345.1875 159.6875,345.1875 Q160.4219,345.1875 161.0625,345.3594 Q161.7188,345.5156 162.2656,345.875 Z " fill="#000000"/><text fill="#000000" font-family="sans-serif" font-size="14" lengthAdjust="spacing" textLength="59" x="173.5" y="355.7969">InColumn</text><line style="stroke:#181818;stroke-width:0.5;" x1="145.5" x2="234.5" y1="366" y2="366"/><line style="stroke:#181818;stroke-width:0.5;" x1="145.5" x2="234.5" y1="374" y2="374"/></g><!--class InInverseDiagonal--><g id="elem_InInverseDiagonal"><rect codeLine="16" fill="#F1F1F1" height="48" id="InInverseDiagonal" rx="2.5" ry="2.5" style="stroke:#181818;stroke-width:0.5;" width="145" x="270.5" y="334"/><ellipse cx="285.5" cy="350" fill="#ADD1B2" rx="11" ry="11" style="stroke:#181818;stroke-width:1.0;"/><path d="M288.2656,345.875 Q288.4219,345.6563 288.6094,345.5469 Q288.7969,345.4375 289.0156,345.4375 Q289.3906,345.4375 289.625,345.7031 Q289.8594,345.9531 289.8594,346.5625 L289.8594,348.0156 Q289.8594,348.625 289.625,348.8906 Q289.3906,349.1563 289.0156,349.1563 Q288.6719,349.1563 288.4688,348.9531 Q288.2656,348.7656 288.1563,348.25 Q288.1094,347.8906 287.9219,347.7031 Q287.5938,347.3281 286.9844,347.1094 Q286.375,346.8906 285.75,346.8906 Q284.9844,346.8906 284.3438,347.2188 Q283.7188,347.5469 283.2188,348.2969 Q282.7344,349.0469 282.7344,350.0781 L282.7344,351.1719 Q282.7344,352.4063 283.625,353.2344 Q284.5156,354.0469 286.1094,354.0469 Q287.0469,354.0469 287.7031,353.7969 Q288.0938,353.6406 288.5156,353.2031 Q288.7813,352.9375 288.9219,352.8594 Q289.0781,352.7813 289.2813,352.7813 Q289.6094,352.7813 289.8594,353.0469 Q290.125,353.2969 290.125,353.6406 Q290.125,353.9844 289.7813,354.3906 Q289.2813,354.9688 288.4844,355.2969 Q287.4063,355.75 286.1094,355.75 Q284.5938,355.75 283.3906,355.125 Q282.4063,354.625 281.7188,353.5625 Q281.0313,352.4844 281.0313,351.2031 L281.0313,350.0469 Q281.0313,348.7188 281.6406,347.5781 Q282.2656,346.4219 283.3594,345.8125 Q284.4531,345.1875 285.6875,345.1875 Q286.4219,345.1875 287.0625,345.3594 Q287.7188,345.5156 288.2656,345.875 Z " fill="#000000"/><text fill="#000000" font-family="sans-serif" font-size="14" lengthAdjust="spacing" textLength="113" x="299.5" y="355.7969">InInverseDiagonal</text><line style="stroke:#181818;stroke-width:0.5;" x1="271.5" x2="414.5" y1="366" y2="366"/><line style="stroke:#181818;stroke-width:0.5;" x1="271.5" x2="414.5" y1="374" y2="374"/></g><!--class TokenPlaced--><g id="elem_TokenPlaced"><rect codeLine="19" fill="#F1F1F1" height="48" id="TokenPlaced" rx="2.5" ry="2.5" style="stroke:#181818;stroke-width:0.5;" width="115" x="307.5" y="443"/><ellipse cx="322.5" cy="459" fill="#ADD1B2" rx="11" ry="11" style="stroke:#181818;stroke-width:1.0;"/><path d="M325.2656,454.875 Q325.4219,454.6563 325.6094,454.5469 Q325.7969,454.4375 326.0156,454.4375 Q326.3906,454.4375 326.625,454.7031 Q326.8594,454.9531 326.8594,455.5625 L326.8594,457.0156 Q326.8594,457.625 326.625,457.8906 Q326.3906,458.1563 326.0156,458.1563 Q325.6719,458.1563 325.4688,457.9531 Q325.2656,457.7656 325.1563,457.25 Q325.1094,456.8906 324.9219,456.7031 Q324.5938,456.3281 323.9844,456.1094 Q323.375,455.8906 322.75,455.8906 Q321.9844,455.8906 321.3438,456.2188 Q320.7188,456.5469 320.2188,457.2969 Q319.7344,458.0469 319.7344,459.0781 L319.7344,460.1719 Q319.7344,461.4063 320.625,462.2344 Q321.5156,463.0469 323.1094,463.0469 Q324.0469,463.0469 324.7031,462.7969 Q325.0938,462.6406 325.5156,462.2031 Q325.7813,461.9375 325.9219,461.8594 Q326.0781,461.7813 326.2813,461.7813 Q326.6094,461.7813 326.8594,462.0469 Q327.125,462.2969 327.125,462.6406 Q327.125,462.9844 326.7813,463.3906 Q326.2813,463.9688 325.4844,464.2969 Q324.4063,464.75 323.1094,464.75 Q321.5938,464.75 320.3906,464.125 Q319.4063,463.625 318.7188,462.5625 Q318.0313,461.4844 318.0313,460.2031 L318.0313,459.0469 Q318.0313,457.7188 318.6406,456.5781 Q319.2656,455.4219 320.3594,454.8125 Q321.4531,454.1875 322.6875,454.1875 Q323.4219,454.1875 324.0625,454.3594 Q324.7188,454.5156 325.2656,454.875 Z " fill="#000000"/><text fill="#000000" font-family="sans-serif" font-size="14" lengthAdjust="spacing" textLength="83" x="336.5" y="464.7969">TokenPlaced</text><line style="stroke:#181818;stroke-width:0.5;" x1="308.5" x2="421.5" y1="475" y2="475"/><line style="stroke:#181818;stroke-width:0.5;" x1="308.5" x2="421.5" y1="483" y2="483"/></g><!--class Color--><g id="elem_Color"><rect codeLine="22" fill="#F1F1F1" height="85.2422" id="Color" rx="2.5" ry="2.5" style="stroke:#181818;stroke-width:0.5;" width="66" x="7" y="661"/><ellipse cx="22" cy="677" fill="#EB937F" rx="11" ry="11" style="stroke:#181818;stroke-width:1.0;"/><path d="M20.8594,677.7969 L20.8594,680.2969 L25.1875,680.2969 L25.1875,679.375 Q25.1875,678.7656 25.4219,678.5 Q25.6719,678.2344 26.0469,678.2344 Q26.4219,678.2344 26.6563,678.5 Q26.8906,678.7656 26.8906,679.375 L26.8906,682 L18.8906,682 Q18.2656,682 18,681.7656 Q17.75,681.5313 17.75,681.1406 Q17.75,680.7656 18.0156,680.5313 Q18.2813,680.2969 18.8906,680.2969 L19.1563,680.2969 L19.1563,673.6406 L18.8906,673.6406 Q18.2656,673.6406 18,673.4063 Q17.75,673.1719 17.75,672.7813 Q17.75,672.4063 18,672.1719 Q18.2656,671.9375 18.8906,671.9375 L26.5156,671.9375 L26.5156,674.5313 Q26.5156,675.1406 26.2813,675.4063 Q26.0625,675.6563 25.6719,675.6563 Q25.2969,675.6563 25.0625,675.4063 Q24.8281,675.1406 24.8281,674.5313 L24.8281,673.6406 L20.8594,673.6406 L20.8594,676.0938 L22.3438,676.0938 Q22.3438,675.4375 22.4688,675.25 Q22.7344,674.8438 23.2031,674.8438 Q23.5781,674.8438 23.8125,675.1094 Q24.0469,675.3594 24.0469,675.9688 L24.0469,677.9375 Q24.0469,678.4844 23.9219,678.6719 Q23.6563,679.0625 23.2031,679.0625 Q22.7344,679.0625 22.4688,678.6563 Q22.3438,678.4688 22.3438,677.7969 L20.8594,677.7969 Z " fill="#000000"/><text fill="#000000" font-family="sans-serif" font-size="14" lengthAdjust="spacing" textLength="34" x="36" y="682.7969">Color</text><line style="stroke:#181818;stroke-width:0.5;" x1="8" x2="72" y1="693" y2="693"/><text fill="#000000" font-family="sans-serif" font-size="14" lengthAdjust="spacing" textLength="21" x="13" y="712.1074">red</text><text fill="#000000" font-family="sans-serif" font-size="14" lengthAdjust="spacing" textLength="38" x="13" y="730.7285">yellow</text><line style="stroke:#181818;stroke-width:0.5;" x1="8" x2="72" y1="738.2422" y2="738.2422"/></g><!--link Connect4 to Player--><g id="link_Connect4_Player"><path codeLine="28" d="M641,67.22 C641,85.16 641,91.89 641,109.83 " fill="none" id="Connect4-Player" style="stroke:#181818;stroke-width:1.0;"/><polygon fill="#181818" points="641,55.22,637,61.22,641,67.22,645,61.22,641,55.22" style="stroke:#181818;stroke-width:1.0;"/><polygon fill="#181818" points="641,115.83,645,106.83,641,110.83,637,106.83,641,115.83" style="stroke:#181818;stroke-width:1.0;"/><text fill="#000000" font-family="sans-serif" font-size="13" lengthAdjust="spacing" textLength="7" x="633.1469" y="104.9305">2</text></g><!--link Connect4 to Turn--><g id="link_Connect4_Turn"><path codeLine="29" d="M610.588,63.9038 C593.478,81.8438 582.3297,93.5469 565.2297,111.4869 " fill="none" id="Connect4-Turn" style="stroke:#181818;stroke-width:1.0;"/><polygon fill="#181818" points="618.87,55.22,611.8344,56.8012,610.588,63.9038,617.6236,62.3226,618.87,55.22" style="stroke:#181818;stroke-width:1.0;"/><polygon fill="#181818" points="561.09,115.83,570.195,112.0752,564.5398,112.2107,564.4042,106.5555,561.09,115.83" style="stroke:#181818;stroke-width:1.0;"/></g><!--link Connect4 to Board--><g id="link_Connect4_Board"><path codeLine="30" d="M672.4472,63.7432 C690.2272,81.6832 702.0588,93.626 719.8188,111.566 " fill="none" id="Connect4-Board" style="stroke:#181818;stroke-width:1.0;"/><polygon fill="#181818" points="664,55.22,665.3825,62.2973,672.4472,63.7432,671.0647,56.6659,664,55.22" style="stroke:#181818;stroke-width:1.0;"/><polygon fill="#181818" points="724.04,115.83,720.5509,106.6199,720.5223,112.2767,714.8656,112.2482,724.04,115.83" style="stroke:#181818;stroke-width:1.0;"/></g><!--link Turn to Player--><g id="link_Turn_Player"><path codeLine="33" d="M570.08,140 C581.71,140 587.35,140 598.98,140 " fill="none" id="Turn-to-Player" style="stroke:#181818;stroke-width:1.0;"/><polygon fill="#181818" points="604.98,140,595.98,136,599.98,140,595.98,144,604.98,140" style="stroke:#181818;stroke-width:1.0;"/></g><!--link Player to Board--><g id="link_Player_Board"><path codeLine="36" d="M677.02,140 C688.6,140 694.17,140 705.74,140 " fill="none" id="Player-to-Board" style="stroke:#181818;stroke-width:1.0;"/><polygon fill="#181818" points="711.74,140,702.74,136,706.74,140,702.74,144,711.74,140" style="stroke:#181818;stroke-width:1.0;"/></g><!--link Player to Goal--><g id="link_Player_Goal"><path codeLine="37" d="M605,156.38 C598.99,158.93 592.82,161.54 587,164 C526.89,189.36 462.0701,216.3762 422.5601,232.8062 " fill="none" id="Player-to-Goal" style="stroke:#181818;stroke-width:1.0;"/><polygon fill="#181818" points="417.02,235.11,426.866,235.3477,421.6367,233.1902,423.7942,227.9609,417.02,235.11" style="stroke:#181818;stroke-width:1.0;"/></g><!--link Player to Color--><g id="link_Player_Color"><path codeLine="38" d="M604.86,157.88 C598.98,160.2 592.88,162.34 587,164 C464.41,198.57 20,120.62 20,248 C20,248 20,248 20,577 C20,605.24 23.7912,630.743 28.7912,655.053 " fill="none" id="Player-to-Color" style="stroke:#181818;stroke-width:1.0;"/><polygon fill="#181818" points="30,660.93,32.1049,651.3087,28.9927,656.0325,24.2689,652.9204,30,660.93" style="stroke:#181818;stroke-width:1.0;"/></g><!--link Player to Token--><g id="link_Player_Token"><path codeLine="39" d="M666.71,164.26 C685.96,184.34 709,215.2 709,248 C709,248 709,248 709,468 C709,527.83 636.9468,554.6989 589.1868,566.4289 " fill="none" id="Player-to-Token" style="stroke:#181818;stroke-width:1.0;"/><polygon fill="#181818" points="583.36,567.86,593.0543,569.5979,588.2157,566.6674,591.1462,561.8288,583.36,567.86" style="stroke:#181818;stroke-width:1.0;"/><text fill="#000000" font-family="sans-serif" font-size="13" lengthAdjust="spacing" textLength="32" x="591.0504" y="562.4657">6x7/2</text></g><!--link Board to Square--><g id="link_Board_Square"><path codeLine="42" d="M752.8073,175.9476 C762.7373,235.6976 786.2171,377.011 796.1571,436.871 " fill="none" id="Board-Square" style="stroke:#181818;stroke-width:1.0;"/><polygon fill="#181818" points="750.84,164.11,747.8778,170.6846,752.8073,175.9476,755.7695,169.373,750.84,164.11" style="stroke:#181818;stroke-width:1.0;"/><polygon fill="#181818" points="797.14,442.79,799.6117,433.2563,796.3209,437.8575,791.7197,434.5668,797.14,442.79" style="stroke:#181818;stroke-width:1.0;"/><text fill="#000000" font-family="sans-serif" font-size="13" lengthAdjust="spacing" textLength="19" x="774.8835" y="431.8807">6*7</text></g><!--link TokenPlaced to Token--><g id="link_TokenPlaced_Token"><path codeLine="45" d="M404.49,491.22 C436.17,509.84 475.0884,532.718 505.8084,550.788 " fill="none" id="TokenPlaced-to-Token" style="stroke:#181818;stroke-width:1.0;"/><polygon fill="#181818" points="510.98,553.83,505.2506,545.8192,506.6703,551.295,501.1945,552.7147,510.98,553.83" style="stroke:#181818;stroke-width:1.0;"/></g><!--link TokenPlaced to Square--><g id="link_TokenPlaced_Square"><path codeLine="46" d="M422.9,467 C513.12,467 678.89,467 755.92,467 " fill="none" id="TokenPlaced-to-Square" style="stroke:#181818;stroke-width:1.0;"/><polygon fill="#181818" points="761.92,467,752.92,463,756.92,467,752.92,471,761.92,467" style="stroke:#181818;stroke-width:1.0;"/><text fill="#000000" font-family="sans-serif" font-size="13" lengthAdjust="spacing" textLength="33" x="575.75" y="460.0283">target</text></g><!--link Goal to TokenPlaced--><g id="link_Goal_TokenPlaced"><path codeLine="49" d="M354.65,249.37 C298.13,250.16 180.09,260.97 127,334 C75.81,404.42 215.6851,440.786 301.4251,456.236 " fill="none" id="Goal-to-TokenPlaced" style="stroke:#181818;stroke-width:1.0;stroke-dasharray:7.0,7.0;"/><polygon fill="#181818" points="307.33,457.3,299.182,451.7673,302.4093,456.4133,297.7633,459.6405,307.33,457.3" style="stroke:#181818;stroke-width:1.0;"/><text fill="#000000" font-family="sans-serif" font-size="13" lengthAdjust="spacing" textLength="47" x="252.5935" y="452.6075">4..6x7/2</text></g><!--link Square to Token--><g id="link_Square_Token"><path codeLine="52" d="M768.7238,499.1401 C756.8038,509.8501 750.49,513.93 735,522 C685.68,547.69 628.293,561.1454 589.183,568.2654 " fill="none" id="Square-Token" style="stroke:#181818;stroke-width:1.0;"/><polygon fill="none" points="777.65,491.12,770.5135,492.1547,768.7238,499.1401,775.8603,498.1055,777.65,491.12" style="stroke:#181818;stroke-width:1.0;"/><polygon fill="#181818" points="583.28,569.34,592.8509,571.6634,588.1991,568.4445,591.418,563.7927,583.28,569.34" style="stroke:#181818;stroke-width:1.0;"/><text fill="#000000" font-family="sans-serif" font-size="13" lengthAdjust="spacing" textLength="22" x="591.1107" y="583.6972">0..1</text></g><!--reverse link Goal to InRow--><g id="link_Goal_InRow"><path codeLine="55" d="M419.9919,286.3695 C436.7619,304.3095 447.58,315.89 464.34,333.83 " fill="none" id="Goal-backto-InRow" style="stroke:#181818;stroke-width:1.0;"/><polygon fill="none" points="407.7,273.22,415.6087,290.4668,424.3751,282.2722,407.7,273.22" style="stroke:#181818;stroke-width:1.0;"/></g><!--reverse link Goal to InColumn--><g id="link_Goal_InColumn"><path codeLine="56" d="M339.1426,275.578 C306.0026,293.678 269.1,313.82 232.22,333.95 " fill="none" id="Goal-backto-InColumn" style="stroke:#181818;stroke-width:1.0;"/><polygon fill="none" points="354.94,266.95,336.2666,270.3122,342.0186,280.8438,354.94,266.95" style="stroke:#181818;stroke-width:1.0;"/></g><!--reverse link Goal to InDiagonal--><g id="link_Goal_InDiagonal"><path codeLine="57" d="M433.2366,272.9736 C470.0766,290.8936 515.69,313.08 558.54,333.91 " fill="none" id="Goal-backto-InDiagonal" style="stroke:#181818;stroke-width:1.0;"/><polygon fill="none" points="417.05,265.1,430.6121,278.3691,435.8611,267.5781,417.05,265.1" style="stroke:#181818;stroke-width:1.0;"/></g><!--reverse link Goal to InInverseDiagonal--><g id="link_Goal_InInverseDiagonal"><path codeLine="58" d="M369.9577,289.9216 C362.7477,307.8616 359.52,315.89 352.31,333.83 " fill="none" id="Goal-backto-InInverseDiagonal" style="stroke:#181818;stroke-width:1.0;"/><polygon fill="none" points="376.67,273.22,364.3905,287.6842,375.5249,292.1591,376.67,273.22" style="stroke:#181818;stroke-width:1.0;"/></g><!--link Token to Color--><g id="link_Token_Color"><path codeLine="61" d="M510.94,585.93 C416.72,609.25 169.9742,670.3284 79.0342,692.8384 " fill="none" id="Token-to-Color" style="stroke:#181818;stroke-width:1.0;"/><polygon fill="#181818" points="73.21,694.28,82.9074,696.0003,78.0635,693.0786,80.9852,688.2347,73.21,694.28" style="stroke:#181818;stroke-width:1.0;"/></g><!--SRC=[RLBBJiCm4BpxArOvOAbImqDLaIh4WIAXtX3m0wwpIYCSEzXEImNyEuxjFEhsjfvTxyxCBXVC65WhAP7R1Q4yHb2pIWBlicXMbFW8NWKxeewFZrRB63uffeiULfyeINoyVxLC8o6qL4mOIjZMMCsu3PtXnQ6nSYFVr668dojMAZb9hfLeQpayDtAFsk1GHYZkKLf3foGSMuw5ozdk1LVGUFh0bL2Q4fHjxPIx-8TeLtT48Ho5Fp9nWQkwKQQow3ht9i5iNgY3d3z2TfVrbfmdlJtdSB3ASN9fAB11MQ3aLJUW-m5pNPKxwmfZOq8ZwzFQa1shGziUZREylGdc1QTWjlo-ltPYukxejkkMJFGJ9jgNi_jit6-mkF6EWzz5AcxSoCWw3hoO2wrX1PRf4csyeQHhfn3oZbBUSLha-LJ9S00cz3hz6mUeGT5Ddj-E7lXfV5U9GgECanv-Gt6yrXIBHvh2mvMcYVCh3ZPUS2xPtpy0]--></g></svg>