<?xml version="1.0" encoding="us-ascii" standalone="no"?><svg xmlns="http://www.w3.org/2000/svg" xmlns:xlink="http://www.w3.org/1999/xlink" contentStyleType="text/css" height="872px" preserveAspectRatio="none" style="width:576px;height:872px;background:#FFFFFF;" version="1.1" viewBox="0 0 576 872" width="576px" zoomAndPan="magnify"><defs/><g><g id="e0"><rect fill="#F1F1F1" height="50" rx="12.5" ry="12.5" style="stroke:#181818;stroke-width:0.5;" width="50" x="223.55" y="215"/><line style="stroke:#181818;stroke-width:0.5;" x1="223.55" x2="273.55" y1="243.6211" y2="243.6211"/><text fill="#000000" font-family="sans-serif" font-size="14" lengthAdjust="spacing" textLength="4" x="246.55" y="235.1074">&#160;</text></g><g id="e1"><rect fill="#F1F1F1" height="50" rx="12.5" ry="12.5" style="stroke:#181818;stroke-width:0.5;" width="50" x="223.55" y="344"/><line style="stroke:#181818;stroke-width:0.5;" x1="223.55" x2="273.55" y1="372.6211" y2="372.6211"/><text fill="#000000" font-family="sans-serif" font-size="14" lengthAdjust="spacing" textLength="4" x="246.55" y="364.1074">&#160;</text></g><g id="e2"><rect fill="#F1F1F1" height="50" rx="12.5" ry="12.5" style="stroke:#181818;stroke-width:0.5;" width="50" x="223.55" y="473"/><line style="stroke:#181818;stroke-width:0.5;" x1="223.55" x2="273.55" y1="501.6211" y2="501.6211"/><text fill="#000000" font-family="sans-serif" font-size="14" lengthAdjust="spacing" textLength="4" x="246.55" y="493.1074">&#160;</text></g><g id="e3"><rect fill="#F1F1F1" height="50" rx="12.5" ry="12.5" style="stroke:#181818;stroke-width:0.5;" width="50" x="223.55" y="584"/><line style="stroke:#181818;stroke-width:0.5;" x1="223.55" x2="273.55" y1="612.6211" y2="612.6211"/><text fill="#000000" font-family="sans-serif" font-size="14" lengthAdjust="spacing" textLength="4" x="246.55" y="604.1074">&#160;</text></g><g id="elem_c1"><polygon fill="#F1F1F1" points="248.55,713,260.55,725,248.55,737,236.55,725,248.55,713" style="stroke:#181818;stroke-width:0.5;"/></g><g id="e4"><rect fill="#F1F1F1" height="50" rx="12.5" ry="12.5" style="stroke:#181818;stroke-width:0.5;" width="50" x="107.55" y="816"/><line style="stroke:#181818;stroke-width:0.5;" x1="107.55" x2="157.55" y1="844.6211" y2="844.6211"/><text fill="#000000" font-family="sans-serif" font-size="14" lengthAdjust="spacing" textLength="4" x="130.55" y="836.1074">&#160;</text></g><ellipse cx="248.55" cy="80" fill="#222222" rx="10" ry="10" style="stroke:#222222;stroke-width:1.0;"/><ellipse cx="289.55" cy="841" fill="none" rx="11" ry="11" style="stroke:#222222;stroke-width:1.0;"/><ellipse cx="289.55" cy="841" fill="#222222" rx="6" ry="6" style="stroke:#222222;stroke-width:1.0;"/><g id="elem_ruleNote"><path d="M294.05,6 L294.05,154.3281 L465.05,154.3281 L465.05,16 L455.05,6 L294.05,6 " fill="#FEFFDD" style="stroke:#181818;stroke-width:0.5;"/><path d="M455.05,6 L455.05,16 L465.05,16 L455.05,6 " fill="#FEFFDD" style="stroke:#181818;stroke-width:1.0;"/><text fill="#000000" font-family="sans-serif" font-size="13" lengthAdjust="spacing" textLength="88" x="300.05" y="25.0283">valid square ::=</text><text fill="#000000" font-family="sans-serif" font-size="13" lengthAdjust="spacing" textLength="91" x="300.05" y="42.3193">square.isEmpty</text><text fill="#000000" font-family="sans-serif" font-size="13" lengthAdjust="spacing" textLength="27" x="300.05" y="59.6104">AND</text><text fill="#000000" font-family="sans-serif" font-size="13" lengthAdjust="spacing" textLength="4" x="300.05" y="76.9014">(</text><text fill="#000000" font-family="sans-serif" font-size="13" lengthAdjust="spacing" textLength="86" x="316.05" y="94.1924">square.row = 1</text><text fill="#000000" font-family="sans-serif" font-size="13" lengthAdjust="spacing" textLength="19" x="316.05" y="111.4834">OR</text><text fill="#000000" font-family="sans-serif" font-size="13" lengthAdjust="spacing" textLength="134" x="316.05" y="128.7744">square.justBelow.isFull</text><text fill="#000000" font-family="sans-serif" font-size="13" lengthAdjust="spacing" textLength="4" x="300.05" y="146.0654">)</text></g><!--link *start* to e0--><g id="link_*start*_e0"><path d="M248.55,90.41 C248.55,114.59 248.55,173.49 248.55,208.99 " fill="none" id="*start*-to-e0" style="stroke:#181818;stroke-width:1.0;"/><polygon fill="#181818" points="248.55,214.99,252.55,205.99,248.55,209.99,244.55,205.99,248.55,214.99" style="stroke:#181818;stroke-width:1.0;"/></g><!--link e0 to e1--><g id="link_e0_e1"><path d="M223.23,245.07 C179.86,253.21 98.46,274.19 124.55,314 C146.42,347.39 188.0104,359.2708 217.4504,364.1408 " fill="none" id="e0-to-e1" style="stroke:#181818;stroke-width:1.0;"/><polygon fill="#181818" points="223.37,365.12,215.1435,359.7048,218.437,364.304,213.8379,367.5975,223.37,365.12" style="stroke:#181818;stroke-width:1.0;"/><text fill="#000000" font-family="sans-serif" font-size="13" lengthAdjust="spacing" textLength="201" x="125.55" y="310.0283">playerA place token in valid square</text></g><!--link e1 to e0--><g id="link_e1_e0"><path d="M273.8,359.26 C303.65,347.39 347.42,324.27 331.55,295 C319.42,272.64 299.0972,260.4146 279.4472,252.1146 " fill="none" id="e1-to-e0" style="stroke:#181818;stroke-width:1.0;"/><polygon fill="#181818" points="273.92,249.78,280.6543,256.9667,278.526,251.7255,283.7672,249.5972,273.92,249.78" style="stroke:#181818;stroke-width:1.0;"/><text fill="#000000" font-family="sans-serif" font-size="13" lengthAdjust="spacing" textLength="201" x="335.55" y="310.0283">playerB place token in valid square</text></g><!--link e1 to e2--><g id="link_e1_e2"><path d="M248.55,394.19 C248.55,416.78 248.55,444.33 248.55,466.9 " fill="none" id="e1-to-e2" style="stroke:#181818;stroke-width:1.0;"/><polygon fill="#181818" points="248.55,472.9,252.55,463.9,248.55,467.9,244.55,463.9,248.55,472.9" style="stroke:#181818;stroke-width:1.0;"/><text fill="#000000" font-family="sans-serif" font-size="13" lengthAdjust="spacing" textLength="162" x="249.55" y="439.0283">[playerA.tokensInBoard = 4]</text></g><!--link e2 to *end*--><g id="link_e2_*end*"><path d="M273.56,510.95 C318.16,533.73 410.69,587.99 452.55,664 C474.78,704.37 461.87,720.99 464.55,767 C465.04,775.43 469.56,779.21 464.55,786 C424.9,839.73 338.5368,841.8354 306.6268,840.7954 " fill="none" id="e2-to-*end*" style="stroke:#181818;stroke-width:1.0;"/><polygon fill="#181818" points="300.63,840.6,309.4949,844.891,305.6273,840.7629,309.7555,836.8953,300.63,840.6" style="stroke:#181818;stroke-width:1.0;"/><text fill="#000000" font-family="sans-serif" font-size="13" lengthAdjust="spacing" textLength="107" x="461.55" y="679.0283">[playerA.isWinner]</text></g><!--link e2 to e3--><g id="link_e2_e3"><path d="M248.55,523.19 C248.55,541.25 248.55,559.83 248.55,577.88 " fill="none" id="e2-to-e3" style="stroke:#181818;stroke-width:1.0;"/><polygon fill="#181818" points="248.55,583.88,252.55,574.88,248.55,578.88,244.55,574.88,248.55,583.88" style="stroke:#181818;stroke-width:1.0;"/></g><!--link e3 to c1--><g id="link_e3_c1"><path d="M246.6,634.33 C245.7,648.52 244.95,666.77 245.55,683 C245.93,693.56 246.3437,699.6331 247.0737,707.9231 " fill="none" id="e3-to-c1" style="stroke:#181818;stroke-width:1.0;"/><polygon fill="#181818" points="247.6,713.9,250.7951,704.5838,247.1614,708.9193,242.826,705.2856,247.6,713.9" style="stroke:#181818;stroke-width:1.0;"/><text fill="#000000" font-family="sans-serif" font-size="13" lengthAdjust="spacing" textLength="201" x="246.55" y="679.0283">playerB place token in valid square</text></g><!--link c1 to *end*--><g id="link_c1_*end*"><path d="M251.49,734.2 C258.88,754.72 276.0895,802.594 284.0195,824.644 " fill="none" id="c1-to-*end*" style="stroke:#181818;stroke-width:1.0;"/><polygon fill="#181818" points="286.05,830.29,286.7682,820.4674,284.3579,825.585,279.2403,823.1747,286.05,830.29" style="stroke:#181818;stroke-width:1.0;"/><text fill="#000000" font-family="sans-serif" font-size="13" lengthAdjust="spacing" textLength="185" x="270.55" y="782.0283">[playerB.isWinner | board.isFull]</text></g><!--link c1 to e4--><g id="link_c1_e4"><path d="M242.95,731.5 C227.74,746.44 189.2297,784.2947 161.5997,811.4447 " fill="none" id="c1-to-e4" style="stroke:#181818;stroke-width:1.0;"/><polygon fill="#181818" points="157.32,815.65,166.543,812.1951,160.8864,812.1456,160.9359,806.4889,157.32,815.65" style="stroke:#181818;stroke-width:1.0;"/></g><!--link e4 to e2--><g id="link_e4_e2"><path d="M107.53,820.29 C69.89,788.12 6,722.06 34.55,664 C74.5,582.75 170.3501,532.651 217.8101,511.721 " fill="none" id="e4-to-e2" style="stroke:#181818;stroke-width:1.0;"/><polygon fill="#181818" points="223.3,509.3,213.4512,509.2717,218.7251,511.3175,216.6792,516.5915,223.3,509.3" style="stroke:#181818;stroke-width:1.0;"/><text fill="#000000" font-family="sans-serif" font-size="13" lengthAdjust="spacing" textLength="201" x="35.55" y="679.0283">playerA place token in valid square</text></g><!--SRC=[ZL71QiCm3BthAyHEsw0ZJdCARQ1X6-pImIuxb1myHx2qdjtPpafX7pyvJKEMmQXzy9Fr_2Gz-o03uHLlwP4IyBzYCOdJIJplOoLmiL3ljb5K51DE1W2Rsmfdio8MeEI41EQur_98RXLFHHZiZWms1h-aRchqdwrq14pi-2dpD_s3kuxgdqnffQjnYLary991j_nVD-tuiREHSEDV6sF8LUSyZqZp3YbneR8IVvNBGHc_yIrspHUFhTRLcSu-KJPCUeapO2pRp1QxLjEQCOpJcETBE44kzV2n3qTOhU_X6f1Ndt3smEw9xkhvPPpPjZwKfEsXxnDkW4oDiIJ_9_m0]--></g></svg>