<?xml version="1.0" encoding="us-ascii" standalone="no"?><svg xmlns="http://www.w3.org/2000/svg" xmlns:xlink="http://www.w3.org/1999/xlink" contentStyleType="text/css" height="583px" preserveAspectRatio="none" style="width:226px;height:583px;background:#FFFFFF;" version="1.1" viewBox="0 0 226 583" width="226px" zoomAndPan="magnify"><defs/><g><ellipse cx="97.5" cy="20" fill="#222222" rx="10" ry="10" style="stroke:#222222;stroke-width:1.0;"/><rect fill="#F1F1F1" height="35.9609" rx="12.5" ry="12.5" style="stroke:#181818;stroke-width:0.5;" width="136" x="29.5" y="94"/><text fill="#000000" font-family="sans-serif" font-size="12" lengthAdjust="spacing" textLength="116" x="39.5" y="116.9492">player A places token</text><rect fill="#F1F1F1" height="35.9609" rx="12.5" ry="12.5" style="stroke:#181818;stroke-width:0.5;" width="137" x="29" y="157.4609"/><text fill="#000000" font-family="sans-serif" font-size="12" lengthAdjust="spacing" textLength="117" x="39" y="180.4102">player B places token</text><polygon fill="#F1F1F1" points="97.5,50,109.5,62,97.5,74,85.5,62,97.5,50" style="stroke:#181818;stroke-width:0.5;"/><polygon fill="#F1F1F1" points="32,213.4219,163,213.4219,175,225.4219,163,237.4219,32,237.4219,20,225.4219,32,213.4219" style="stroke:#181818;stroke-width:0.5;"/><text fill="#000000" font-family="sans-serif" font-size="11" lengthAdjust="spacing" textLength="131" x="32" y="229.9766">tokens placed on board &lt; 6</text><text fill="#000000" font-family="sans-serif" font-size="11" lengthAdjust="spacing" textLength="19" x="175" y="222.6611">true</text><rect fill="#F1F1F1" height="35.9609" rx="12.5" ry="12.5" style="stroke:#181818;stroke-width:0.5;" width="136" x="29.5" y="301.4219"/><text fill="#000000" font-family="sans-serif" font-size="12" lengthAdjust="spacing" textLength="116" x="39.5" y="324.3711">player A places token</text><rect fill="#F1F1F1" height="35.9609" rx="12.5" ry="12.5" style="stroke:#181818;stroke-width:0.5;" width="137" x="29" y="406.6982"/><text fill="#000000" font-family="sans-serif" font-size="12" lengthAdjust="spacing" textLength="117" x="39" y="429.6475">player B places token</text><polygon fill="#F1F1F1" points="51.5,357.3828,143.5,357.3828,155.5,369.3828,143.5,381.3828,51.5,381.3828,39.5,369.3828,51.5,357.3828" style="stroke:#181818;stroke-width:0.5;"/><text fill="#000000" font-family="sans-serif" font-size="11" lengthAdjust="spacing" textLength="24" x="101.5" y="393.2529">false</text><text fill="#000000" font-family="sans-serif" font-size="11" lengthAdjust="spacing" textLength="92" x="51.5" y="373.9375">isConnect4PlayerA</text><polygon fill="#F1F1F1" points="97.5,462.6592,109.5,474.6592,97.5,486.6592,85.5,474.6592,97.5,462.6592" style="stroke:#181818;stroke-width:0.5;"/><polygon fill="#F1F1F1" points="97.5,257.4219,109.5,269.4219,97.5,281.4219,85.5,269.4219,97.5,257.4219" style="stroke:#181818;stroke-width:0.5;"/><polygon fill="#F1F1F1" points="32,506.6592,163,506.6592,175,518.6592,163,530.6592,32,530.6592,20,518.6592,32,506.6592" style="stroke:#181818;stroke-width:0.5;"/><text fill="#000000" font-family="sans-serif" font-size="11" lengthAdjust="spacing" textLength="131" x="32" y="523.2139">existWinner OR isBoardFull</text><text fill="#000000" font-family="sans-serif" font-size="11" lengthAdjust="spacing" textLength="24" x="175" y="515.8984">false</text><ellipse cx="97.5" cy="561.6592" fill="none" rx="11" ry="11" style="stroke:#222222;stroke-width:1.0;"/><ellipse cx="97.5" cy="561.6592" fill="#222222" rx="6" ry="6" style="stroke:#222222;stroke-width:1.0;"/><line style="stroke:#181818;stroke-width:1.0;" x1="97.5" x2="97.5" y1="129.9609" y2="157.4609"/><polygon fill="#181818" points="93.5,147.4609,97.5,157.4609,101.5,147.4609,97.5,151.4609" style="stroke:#181818;stroke-width:1.0;"/><line style="stroke:#181818;stroke-width:1.0;" x1="97.5" x2="97.5" y1="74" y2="94"/><polygon fill="#181818" points="93.5,84,97.5,94,101.5,84,97.5,88" style="stroke:#181818;stroke-width:1.0;"/><line style="stroke:#181818;stroke-width:1.0;" x1="175" x2="187" y1="225.4219" y2="225.4219"/><polygon fill="#181818" points="183,149.9609,187,139.9609,191,149.9609,187,145.9609" style="stroke:#181818;stroke-width:1.0;"/><line style="stroke:#181818;stroke-width:1.0;" x1="187" x2="187" y1="62" y2="225.4219"/><line style="stroke:#181818;stroke-width:1.0;" x1="187" x2="109.5" y1="62" y2="62"/><polygon fill="#181818" points="119.5,58,109.5,62,119.5,66,115.5,62" style="stroke:#181818;stroke-width:1.0;"/><line style="stroke:#181818;stroke-width:1.0;" x1="97.5" x2="97.5" y1="193.4219" y2="213.4219"/><polygon fill="#181818" points="93.5,203.4219,97.5,213.4219,101.5,203.4219,97.5,207.4219" style="stroke:#181818;stroke-width:1.0;"/><line style="stroke:#181818;stroke-width:1.0;" x1="97.5" x2="97.5" y1="30" y2="50"/><polygon fill="#181818" points="93.5,40,97.5,50,101.5,40,97.5,44" style="stroke:#181818;stroke-width:1.0;"/><line style="stroke:#181818;stroke-width:1.0;" x1="97.5" x2="97.5" y1="381.3828" y2="406.6982"/><polygon fill="#181818" points="93.5,396.6982,97.5,406.6982,101.5,396.6982,97.5,400.6982" style="stroke:#181818;stroke-width:1.0;"/><line style="stroke:#181818;stroke-width:1.0;" x1="155.5" x2="176" y1="369.3828" y2="369.3828"/><polygon fill="#181818" points="172,414.6787,176,424.6787,180,414.6787,176,418.6787" style="stroke:#181818;stroke-width:1.0;"/><line style="stroke:#181818;stroke-width:1.0;" x1="176" x2="176" y1="369.3828" y2="474.6592"/><line style="stroke:#181818;stroke-width:1.0;" x1="176" x2="109.5" y1="474.6592" y2="474.6592"/><polygon fill="#181818" points="119.5,470.6592,109.5,474.6592,119.5,478.6592,115.5,474.6592" style="stroke:#181818;stroke-width:1.0;"/><line style="stroke:#181818;stroke-width:1.0;" x1="97.5" x2="97.5" y1="442.6592" y2="462.6592"/><polygon fill="#181818" points="93.5,452.6592,97.5,462.6592,101.5,452.6592,97.5,456.6592" style="stroke:#181818;stroke-width:1.0;"/><line style="stroke:#181818;stroke-width:1.0;" x1="97.5" x2="97.5" y1="337.3828" y2="357.3828"/><polygon fill="#181818" points="93.5,347.3828,97.5,357.3828,101.5,347.3828,97.5,351.3828" style="stroke:#181818;stroke-width:1.0;"/><line style="stroke:#181818;stroke-width:1.0;" x1="97.5" x2="97.5" y1="281.4219" y2="301.4219"/><polygon fill="#181818" points="93.5,291.4219,97.5,301.4219,101.5,291.4219,97.5,295.4219" style="stroke:#181818;stroke-width:1.0;"/><line style="stroke:#181818;stroke-width:1.0;" x1="175" x2="200" y1="518.6592" y2="518.6592"/><polygon fill="#181818" points="196,399.1982,200,389.1982,204,399.1982,200,395.1982" style="stroke:#181818;stroke-width:1.0;"/><line style="stroke:#181818;stroke-width:1.0;" x1="200" x2="200" y1="269.4219" y2="518.6592"/><line style="stroke:#181818;stroke-width:1.0;" x1="200" x2="109.5" y1="269.4219" y2="269.4219"/><polygon fill="#181818" points="119.5,265.4219,109.5,269.4219,119.5,273.4219,115.5,269.4219" style="stroke:#181818;stroke-width:1.0;"/><line style="stroke:#181818;stroke-width:1.0;" x1="97.5" x2="97.5" y1="486.6592" y2="506.6592"/><polygon fill="#181818" points="93.5,496.6592,97.5,506.6592,101.5,496.6592,97.5,500.6592" style="stroke:#181818;stroke-width:1.0;"/><line style="stroke:#181818;stroke-width:1.0;" x1="97.5" x2="97.5" y1="237.4219" y2="257.4219"/><polygon fill="#181818" points="93.5,247.4219,97.5,257.4219,101.5,247.4219,97.5,251.4219" style="stroke:#181818;stroke-width:1.0;"/><line style="stroke:#181818;stroke-width:1.0;" x1="97.5" x2="97.5" y1="530.6592" y2="550.6592"/><polygon fill="#181818" points="93.5,540.6592,97.5,550.6592,101.5,540.6592,97.5,544.6592" style="stroke:#181818;stroke-width:1.0;"/><!--SRC=[ZOwz3i8m38JtFCMDpOuOWAL5OWMnC8VMLIsYf8fT0MzF-hDG2OcRBD_v_8cwfCOawicfGTQkz-vD2INoK9D0uuF2_ikhLjvyZcV7db1CIvaZ3MB0FRhKu82j1Klsqq3sxv_S5Yp760BLkhbCkT92EmeeMkSbLs7HBxpHez1mkmAb5ulUE5SddA-PhHf1JuFtC-XIRqHZRpu0]--></g></svg>