<?xml version="1.0" encoding="us-ascii" standalone="no"?><svg xmlns="http://www.w3.org/2000/svg" xmlns:xlink="http://www.w3.org/1999/xlink" contentStyleType="text/css" height="1230px" preserveAspectRatio="none" style="width:608px;height:1230px;background:#FFFFFF;" version="1.1" viewBox="0 0 608 1230" width="608px" zoomAndPan="magnify"><defs/><g><g id="IN_GAME"><rect fill="#F1F1F1" height="50" rx="12.5" ry="12.5" style="stroke:#181818;stroke-width:0.5;" width="80" x="314" y="87"/><line style="stroke:#181818;stroke-width:0.5;" x1="314" x2="394" y1="114.6094" y2="114.6094"/><text fill="#000000" font-family="sans-serif" font-size="14" lengthAdjust="spacing" textLength="60" x="324" y="106.5332">IN_GAME</text></g><g id="placeTokenRequested"><rect fill="#F1F1F1" height="50" rx="12.5" ry="12.5" style="stroke:#181818;stroke-width:0.5;" width="50" x="329" y="215"/><line style="stroke:#181818;stroke-width:0.5;" x1="329" x2="379" y1="242.6094" y2="242.6094"/><text fill="#000000" font-family="sans-serif" font-size="14" lengthAdjust="spacing" textLength="4" x="352" y="234.5332">&#160;</text></g><g id="columnRquested"><rect fill="#F1F1F1" height="50" rx="12.5" ry="12.5" style="stroke:#181818;stroke-width:0.5;" width="50" x="222" y="343"/><line style="stroke:#181818;stroke-width:0.5;" x1="222" x2="272" y1="370.6094" y2="370.6094"/><text fill="#000000" font-family="sans-serif" font-size="14" lengthAdjust="spacing" textLength="4" x="245" y="362.5332">&#160;</text></g><g id="elem_columnSelected"><polygon fill="#F1F1F1" points="234,471,246,483,234,495,222,483,234,471" style="stroke:#181818;stroke-width:0.5;"/></g><g id="invalidColumn"><rect fill="#F1F1F1" height="50" rx="12.5" ry="12.5" style="stroke:#181818;stroke-width:0.5;" width="50" x="348" y="573"/><line style="stroke:#181818;stroke-width:0.5;" x1="348" x2="398" y1="600.6094" y2="600.6094"/><text fill="#000000" font-family="sans-serif" font-size="14" lengthAdjust="spacing" textLength="4" x="371" y="592.5332">&#160;</text></g><g id="tokenPlaced"><rect fill="#F1F1F1" height="50" rx="12.5" ry="12.5" style="stroke:#181818;stroke-width:0.5;" width="50" x="176" y="573"/><line style="stroke:#181818;stroke-width:0.5;" x1="176" x2="226" y1="600.6094" y2="600.6094"/><text fill="#000000" font-family="sans-serif" font-size="14" lengthAdjust="spacing" textLength="4" x="199" y="592.5332">&#160;</text></g><g id="elem_boardShowed"><polygon fill="#F1F1F1" points="201,701,213,713,201,725,189,713,201,701" style="stroke:#181818;stroke-width:0.5;"/></g><g id="winnerPlacement"><rect fill="#F1F1F1" height="50" rx="12.5" ry="12.5" style="stroke:#181818;stroke-width:0.5;" width="50" x="7" y="803"/><line style="stroke:#181818;stroke-width:0.5;" x1="7" x2="57" y1="830.6094" y2="830.6094"/><text fill="#000000" font-family="sans-serif" font-size="14" lengthAdjust="spacing" textLength="4" x="30" y="822.5332">&#160;</text></g><g id="finishMessageShowed"><rect fill="#F1F1F1" height="50" rx="12.5" ry="12.5" style="stroke:#181818;stroke-width:0.5;" width="50" x="215" y="931"/><line style="stroke:#181818;stroke-width:0.5;" x1="215" x2="265" y1="958.6094" y2="958.6094"/><text fill="#000000" font-family="sans-serif" font-size="14" lengthAdjust="spacing" textLength="4" x="238" y="950.5332">&#160;</text></g><g id="boardFull"><rect fill="#F1F1F1" height="50" rx="12.5" ry="12.5" style="stroke:#181818;stroke-width:0.5;" width="50" x="195" y="803"/><line style="stroke:#181818;stroke-width:0.5;" x1="195" x2="245" y1="830.6094" y2="830.6094"/><text fill="#000000" font-family="sans-serif" font-size="14" lengthAdjust="spacing" textLength="4" x="218" y="822.5332">&#160;</text></g><g id="stillInGame"><rect fill="#F1F1F1" height="50" rx="12.5" ry="12.5" style="stroke:#181818;stroke-width:0.5;" width="50" x="418" y="803"/><line style="stroke:#181818;stroke-width:0.5;" x1="418" x2="468" y1="830.6094" y2="830.6094"/><text fill="#000000" font-family="sans-serif" font-size="14" lengthAdjust="spacing" textLength="4" x="441" y="822.5332">&#160;</text></g><g id="IN_GAME_AGAIN"><rect fill="#F1F1F1" height="50" rx="12.5" ry="12.5" style="stroke:#181818;stroke-width:0.5;" width="80" x="398" y="1011"/><line style="stroke:#181818;stroke-width:0.5;" x1="398" x2="478" y1="1038.6094" y2="1038.6094"/><text fill="#000000" font-family="sans-serif" font-size="14" lengthAdjust="spacing" textLength="60" x="408" y="1030.5332">IN_GAME</text></g><g id="OUT_GAME"><rect fill="#F1F1F1" height="50" rx="12.5" ry="12.5" style="stroke:#181818;stroke-width:0.5;" width="97" x="237.5" y="1091"/><line style="stroke:#181818;stroke-width:0.5;" x1="237.5" x2="334.5" y1="1118.6094" y2="1118.6094"/><text fill="#000000" font-family="sans-serif" font-size="14" lengthAdjust="spacing" textLength="77" x="247.5" y="1110.5332">OUT_GAME</text></g><ellipse cx="354" cy="16" fill="#222222" rx="10" ry="10" style="stroke:#222222;stroke-width:1.0;"/><ellipse cx="357" cy="1213" fill="none" rx="11" ry="11" style="stroke:#222222;stroke-width:1.0;"/><ellipse cx="357" cy="1213" fill="#222222" rx="6" ry="6" style="stroke:#222222;stroke-width:1.0;"/><!--link *start* to IN_GAME--><g id="link_*start*_IN_GAME"><path d="M354,26.01 C354,39.89 354,60.97 354,80.84 " fill="none" id="*start*-to-IN_GAME" style="stroke:#181818;stroke-width:1.0;"/><polygon fill="#181818" points="354,86.84,358,77.84,354,81.84,350,77.84,354,86.84" style="stroke:#181818;stroke-width:1.0;"/></g><!--link IN_GAME to placeTokenRequested--><g id="link_IN_GAME_placeTokenRequested"><path d="M354,137.29 C354,159.61 354,186.49 354,208.78 " fill="none" id="IN_GAME-to-placeTokenRequested" style="stroke:#181818;stroke-width:1.0;"/><polygon fill="#181818" points="354,214.78,358,205.78,354,209.78,350,205.78,354,214.78" style="stroke:#181818;stroke-width:1.0;"/><text fill="#000000" font-family="sans-serif" font-size="13" lengthAdjust="spacing" textLength="158" x="355" y="181.4951">Player request place Token</text></g><!--link placeTokenRequested to columnRquested--><g id="link_placeTokenRequested_columnRquested"><path d="M328.94,247.93 C306.29,255.57 273.99,270.19 257,295 C247.52,308.85 245.2101,321.74 245.1601,336.7 " fill="none" id="placeTokenRequested-to-columnRquested" style="stroke:#181818;stroke-width:1.0;"/><polygon fill="#181818" points="245.14,342.7,249.1701,333.7134,245.1567,337.7,241.1701,333.6867,245.14,342.7" style="stroke:#181818;stroke-width:1.0;"/><text fill="#000000" font-family="sans-serif" font-size="13" lengthAdjust="spacing" textLength="175" x="258" y="309.4951">System request target column</text></g><!--link columnRquested to columnSelected--><g id="link_columnRquested_columnSelected"><path d="M238.24,393.13 C235.32,402.34 232.45,413.03 231,423 C229.85,430.92 230.71,433.01 231,441 C231.39,451.56 231.8108,457.6325 232.5308,465.9225 " fill="none" id="columnRquested-to-columnSelected" style="stroke:#181818;stroke-width:1.0;"/><polygon fill="#181818" points="233.05,471.9,236.2563,462.5876,232.6174,466.9188,228.2863,463.2799,233.05,471.9" style="stroke:#181818;stroke-width:1.0;"/><text fill="#000000" font-family="sans-serif" font-size="13" lengthAdjust="spacing" textLength="184" x="232" y="437.4951">Player introduces target column</text></g><!--link columnSelected to invalidColumn--><g id="link_columnSelected_invalidColumn"><path d="M237.42,491.77 C243.1,503.97 255.52,527.8 272,543 C294.37,563.62 320.515,576.6124 342.415,585.5524 " fill="none" id="columnSelected-to-invalidColumn" style="stroke:#181818;stroke-width:1.0;"/><polygon fill="#181818" points="347.97,587.82,341.1493,580.7152,343.3409,585.9303,338.1258,588.1218,347.97,587.82" style="stroke:#181818;stroke-width:1.0;"/><text fill="#000000" font-family="sans-serif" font-size="13" lengthAdjust="spacing" textLength="160" x="273" y="539.4951">[board.isColumnFull(target)]</text></g><!--link invalidColumn to placeTokenRequested--><g id="link_invalidColumn_placeTokenRequested"><path d="M398.19,583.6 C412.75,574.34 429.77,560.53 438,543 C484.83,443.22 490.82,391.74 438,295 C425.62,272.33 404.7467,260.0377 384.8167,251.8177 " fill="none" id="invalidColumn-to-placeTokenRequested" style="stroke:#181818;stroke-width:1.0;"/><polygon fill="#181818" points="379.27,249.53,386.065,256.6594,383.8923,251.4364,389.1153,249.2637,379.27,249.53" style="stroke:#181818;stroke-width:1.0;"/><text fill="#000000" font-family="sans-serif" font-size="13" lengthAdjust="spacing" textLength="109" x="476" y="437.4951">Sytem shows error</text></g><!--link columnSelected to tokenPlaced--><g id="link_columnSelected_tokenPlaced"><path d="M227.67,488.7 C219.03,495.56 203.94,509.22 198,525 C192.27,540.22 192.2046,552.6218 194.4446,566.9718 " fill="none" id="columnSelected-to-tokenPlaced" style="stroke:#181818;stroke-width:1.0;"/><polygon fill="#181818" points="195.37,572.9,197.9341,563.3908,194.5989,567.9598,190.0298,564.6246,195.37,572.9" style="stroke:#181818;stroke-width:1.0;"/><text fill="#000000" font-family="sans-serif" font-size="13" lengthAdjust="spacing" textLength="32" x="199" y="539.4951">[else]</text></g><!--link tokenPlaced to boardShowed--><g id="link_tokenPlaced_boardShowed"><path d="M201,623.24 C201,647.24 201,676.9 201,694.84 " fill="none" id="tokenPlaced-to-boardShowed" style="stroke:#181818;stroke-width:1.0;"/><polygon fill="#181818" points="201,700.84,205,691.84,201,695.84,197,691.84,201,700.84" style="stroke:#181818;stroke-width:1.0;"/><text fill="#000000" font-family="sans-serif" font-size="13" lengthAdjust="spacing" textLength="172" x="202" y="667.4951">System shows updated board</text></g><!--link boardShowed to winnerPlacement--><g id="link_boardShowed_winnerPlacement"><path d="M191.02,715.05 C168.61,717.87 113.51,727.33 78,755 C61.97,767.49 52.5758,781.8498 44.8458,797.5098 " fill="none" id="boardShowed-to-winnerPlacement" style="stroke:#181818;stroke-width:1.0;"/><polygon fill="#181818" points="42.19,802.89,49.7605,796.5902,44.4031,798.4065,42.5868,793.0491,42.19,802.89" style="stroke:#181818;stroke-width:1.0;"/><text fill="#000000" font-family="sans-serif" font-size="13" lengthAdjust="spacing" textLength="109" x="79" y="769.4951">[winner placement]</text></g><!--link winnerPlacement to finishMessageShowed--><g id="link_winnerPlacement_finishMessageShowed"><path d="M26.28,853.23 C24.16,868.54 24.41,887.84 35,901 C57.55,929.03 159.2582,944.9809 208.8882,951.3109 " fill="none" id="winnerPlacement-to-finishMessageShowed" style="stroke:#181818;stroke-width:1.0;"/><polygon fill="#181818" points="214.84,952.07,206.4184,946.9635,209.8802,951.4374,205.4062,954.8992,214.84,952.07" style="stroke:#181818;stroke-width:1.0;"/><text fill="#000000" font-family="sans-serif" font-size="13" lengthAdjust="spacing" textLength="184" x="36" y="897.4951">System shows winner message</text></g><!--link finishMessageShowed to OUT_GAME--><g id="link_finishMessageShowed_OUT_GAME"><path d="M235.73,981.37 C232.97,1002.99 231.47,1035.07 241,1061 C245.04,1072 248.4175,1077.8346 256.0075,1086.4646 " fill="none" id="finishMessageShowed-to-OUT_GAME" style="stroke:#181818;stroke-width:1.0;"/><polygon fill="#181818" points="259.97,1090.97,257.0299,1081.5702,256.6679,1087.2155,251.0227,1086.8535,259.97,1090.97" style="stroke:#181818;stroke-width:1.0;"/><text fill="#000000" font-family="sans-serif" font-size="13" lengthAdjust="spacing" textLength="137" x="242" y="1041.4951">System allows Resume</text></g><!--link boardShowed to boardFull--><g id="link_boardShowed_boardFull"><path d="M199.15,723.3 C197.13,735.01 194.61,755.69 198,773 C199.98,783.13 201.4874,788.2577 205.4574,797.3877 " fill="none" id="boardShowed-to-boardFull" style="stroke:#181818;stroke-width:1.0;"/><polygon fill="#181818" points="207.85,802.89,207.9294,793.0415,205.8562,798.3047,200.5929,796.2316,207.85,802.89" style="stroke:#181818;stroke-width:1.0;"/><text fill="#000000" font-family="sans-serif" font-size="13" lengthAdjust="spacing" textLength="200" x="199" y="769.4951">[board.isFull &amp; ! winner placement]</text></g><!--link boardFull to finishMessageShowed--><g id="link_boardFull_finishMessageShowed"><path d="M223.86,853.29 C227.4,875.61 231.6789,902.5643 235.2189,924.8543 " fill="none" id="boardFull-to-finishMessageShowed" style="stroke:#181818;stroke-width:1.0;"/><polygon fill="#181818" points="236.16,930.78,238.6988,921.264,235.3758,925.8419,230.7979,922.5188,236.16,930.78" style="stroke:#181818;stroke-width:1.0;"/><text fill="#000000" font-family="sans-serif" font-size="13" lengthAdjust="spacing" textLength="161" x="233" y="897.4951">System shows tie message</text></g><!--link boardShowed to stillInGame--><g id="link_boardShowed_stillInGame"><path d="M211.26,714.93 C248.01,718.41 372.56,731.75 404,755 C419.89,766.75 427.9341,781.3443 433.8741,797.3643 " fill="none" id="boardShowed-to-stillInGame" style="stroke:#181818;stroke-width:1.0;"/><polygon fill="#181818" points="435.96,802.99,436.5816,793.1608,434.2217,798.3019,429.0806,795.942,435.96,802.99" style="stroke:#181818;stroke-width:1.0;"/><text fill="#000000" font-family="sans-serif" font-size="13" lengthAdjust="spacing" textLength="32" x="422" y="769.4951">[else]</text></g><!--link stillInGame to IN_GAME_AGAIN--><g id="link_stillInGame_IN_GAME_AGAIN"><path d="M442.42,853.03 C441.46,892.62 439.695,965.1018 438.735,1004.8018 " fill="none" id="stillInGame-to-IN_GAME_AGAIN" style="stroke:#181818;stroke-width:1.0;"/><polygon fill="#181818" points="438.59,1010.8,442.8064,1001.8993,438.7109,1005.8015,434.8087,1001.7059,438.59,1010.8" style="stroke:#181818;stroke-width:1.0;"/><text fill="#000000" font-family="sans-serif" font-size="13" lengthAdjust="spacing" textLength="158" x="442" y="897.4951">System allows Place token</text></g><!--link IN_GAME_AGAIN to *end*--><g id="link_IN_GAME_AGAIN_*end*"><path d="M426.74,1061.33 C408.57,1100.59 376.0997,1170.7247 363.8697,1197.1547 " fill="none" id="IN_GAME_AGAIN-to-*end*" style="stroke:#181818;stroke-width:1.0;"/><polygon fill="#181818" points="361.35,1202.6,368.7597,1196.1119,363.4498,1198.0623,361.4994,1192.7523,361.35,1202.6" style="stroke:#181818;stroke-width:1.0;"/></g><!--link OUT_GAME to *end*--><g id="link_OUT_GAME_*end*"><path d="M304.28,1141.46 C319.57,1161.92 336.8784,1185.0737 347.1684,1198.8437 " fill="none" id="OUT_GAME-to-*end*" style="stroke:#181818;stroke-width:1.0;"/><polygon fill="#181818" points="350.76,1203.65,348.5768,1194.0462,347.767,1199.6448,342.1684,1198.835,350.76,1203.65" style="stroke:#181818;stroke-width:1.0;"/></g><!--SRC=[ZLDTJy8m57tlhwWy63N17q082J5AU00DmoUoaB9TeR7hiEqa_7lNZvMsJEFJiljnxkqvvqf55E3vSZkRBfwHD7z7HWfOrv_0L_3LW5HGOYBn00zSGL6pfkAhFt8PC2XqRZmk3ZKjO39nUSg_2QFbaocBMvKU-QQ79vYxceWoEzIdFi0JvHo4QQk0gxZpWt8g3mkGakp18Ln3lpICnM6fA6DpFYCLn0d7r7OwcywN9kKYNS7h-zfoYJOFEHuE9vvSzpMn7ef7k7t36GGMDc9hi2b2VP9ed5Y94SxExRVo48g8FIXNXHBPBlsTMdu5ofMeowO0cK2WH5wD4IawmXj3wIELDg2vlRCWzpcArV-LYUoiNo5RlIG68MhHDpUmIpiLc8GSXHRIDO5pF3aMjZcMH2EP2eH2Y-d6n5Nj01kn- -fGZbBdwRuUmoM37KvbIr2VGpLGvoFVJHZJxIkGJGLN-teV1m8OMz_Y6toz-iNs_rjQKV0RfwE3M_4wXFSJt80zc_H9Xa4h9qBnWUdUzevGnuOF_000]--></g></svg>