<?xml version="1.0" encoding="us-ascii" standalone="no"?><svg xmlns="http://www.w3.org/2000/svg" xmlns:xlink="http://www.w3.org/1999/xlink" contentStyleType="text/css" height="861px" preserveAspectRatio="none" style="width:576px;height:861px;background:#FFFFFF;" version="1.1" viewBox="0 0 576 861" width="576px" zoomAndPan="magnify"><defs/><g><g id="e0"><rect fill="#F1F1F1" height="50" rx="12.5" ry="12.5" style="stroke:#181818;stroke-width:0.5;" width="50" x="223.23" y="208"/><line style="stroke:#181818;stroke-width:0.5;" x1="223.23" x2="273.23" y1="235.6094" y2="235.6094"/><text fill="#000000" font-family="sans-serif" font-size="14" lengthAdjust="spacing" textLength="4" x="246.23" y="227.5332">&#160;</text></g><g id="e1"><rect fill="#F1F1F1" height="50" rx="12.5" ry="12.5" style="stroke:#181818;stroke-width:0.5;" width="50" x="223.23" y="336"/><line style="stroke:#181818;stroke-width:0.5;" x1="223.23" x2="273.23" y1="363.6094" y2="363.6094"/><text fill="#000000" font-family="sans-serif" font-size="14" lengthAdjust="spacing" textLength="4" x="246.23" y="355.5332">&#160;</text></g><g id="e2"><rect fill="#F1F1F1" height="50" rx="12.5" ry="12.5" style="stroke:#181818;stroke-width:0.5;" width="50" x="223.23" y="464"/><line style="stroke:#181818;stroke-width:0.5;" x1="223.23" x2="273.23" y1="491.6094" y2="491.6094"/><text fill="#000000" font-family="sans-serif" font-size="14" lengthAdjust="spacing" textLength="4" x="246.23" y="483.5332">&#160;</text></g><g id="e3"><rect fill="#F1F1F1" height="50" rx="12.5" ry="12.5" style="stroke:#181818;stroke-width:0.5;" width="50" x="223.23" y="575"/><line style="stroke:#181818;stroke-width:0.5;" x1="223.23" x2="273.23" y1="602.6094" y2="602.6094"/><text fill="#000000" font-family="sans-serif" font-size="14" lengthAdjust="spacing" textLength="4" x="246.23" y="594.5332">&#160;</text></g><g id="elem_c1"><polygon fill="#F1F1F1" points="248.23,703,260.23,715,248.23,727,236.23,715,248.23,703" style="stroke:#181818;stroke-width:0.5;"/></g><g id="e4"><rect fill="#F1F1F1" height="50" rx="12.5" ry="12.5" style="stroke:#181818;stroke-width:0.5;" width="50" x="107.23" y="805"/><line style="stroke:#181818;stroke-width:0.5;" x1="107.23" x2="157.23" y1="832.6094" y2="832.6094"/><text fill="#000000" font-family="sans-serif" font-size="14" lengthAdjust="spacing" textLength="4" x="130.23" y="824.5332">&#160;</text></g><ellipse cx="248.23" cy="76.5" fill="#222222" rx="10" ry="10" style="stroke:#222222;stroke-width:1.0;"/><ellipse cx="289.23" cy="830" fill="none" rx="11" ry="11" style="stroke:#222222;stroke-width:1.0;"/><ellipse cx="289.23" cy="830" fill="#222222" rx="6" ry="6" style="stroke:#222222;stroke-width:1.0;"/><g id="elem_ruleNote"><path d="M293.73,6 L293.73,146.8125 L464.73,146.8125 L464.73,16 L454.73,6 L293.73,6 " fill="#FEFFDD" style="stroke:#181818;stroke-width:0.5;"/><path d="M454.73,6 L454.73,16 L464.73,16 L454.73,6 " fill="#FEFFDD" style="stroke:#181818;stroke-width:1.0;"/><text fill="#000000" font-family="sans-serif" font-size="13" lengthAdjust="spacing" textLength="88" x="299.73" y="24.4951">valid square ::=</text><text fill="#000000" font-family="sans-serif" font-size="13" lengthAdjust="spacing" textLength="91" x="299.73" y="40.8467">square.isEmpty</text><text fill="#000000" font-family="sans-serif" font-size="13" lengthAdjust="spacing" textLength="27" x="299.73" y="57.1982">AND</text><text fill="#000000" font-family="sans-serif" font-size="13" lengthAdjust="spacing" textLength="4" x="299.73" y="73.5498">(</text><text fill="#000000" font-family="sans-serif" font-size="13" lengthAdjust="spacing" textLength="86" x="315.73" y="89.9014">square.row = 1</text><text fill="#000000" font-family="sans-serif" font-size="13" lengthAdjust="spacing" textLength="19" x="315.73" y="106.2529">OR</text><text fill="#000000" font-family="sans-serif" font-size="13" lengthAdjust="spacing" textLength="134" x="315.73" y="122.6045">square.justBelow.isFull</text><text fill="#000000" font-family="sans-serif" font-size="13" lengthAdjust="spacing" textLength="4" x="299.73" y="138.9561">)</text></g><!--link *start* to e0--><g id="link_*start*_e0"><path d="M248.23,86.7 C248.23,110.22 248.23,167.11 248.23,201.95 " fill="none" id="*start*-to-e0" style="stroke:#181818;stroke-width:1.0;"/><polygon fill="#181818" points="248.23,207.95,252.23,198.95,248.23,202.95,244.23,198.95,248.23,207.95" style="stroke:#181818;stroke-width:1.0;"/></g><!--link e0 to e1--><g id="link_e0_e1"><path d="M223.05,236.88 C193.61,241.75 146.1,254.61 124.23,288 C98.24,327.67 173.6871,347.0951 217.0171,354.9851 " fill="none" id="e0-to-e1" style="stroke:#181818;stroke-width:1.0;"/><polygon fill="#181818" points="222.92,356.06,214.7822,350.5124,218.0009,355.1643,213.349,358.383,222.92,356.06" style="stroke:#181818;stroke-width:1.0;"/><text fill="#000000" font-family="sans-serif" font-size="13" lengthAdjust="spacing" textLength="201" x="125.23" y="302.4951">playerA place token in valid square</text></g><!--link e1 to e0--><g id="link_e1_e0"><path d="M273.6,351.22 C293.25,342.92 319.09,328.36 331.23,306 C347.01,276.91 308.8599,256.3601 279.0399,244.7301 " fill="none" id="e1-to-e0" style="stroke:#181818;stroke-width:1.0;"/><polygon fill="#181818" points="273.45,242.55,280.3815,249.5468,278.1083,244.3668,283.2883,242.0935,273.45,242.55" style="stroke:#181818;stroke-width:1.0;"/><text fill="#000000" font-family="sans-serif" font-size="13" lengthAdjust="spacing" textLength="201" x="335.23" y="302.4951">playerB place token in valid square</text></g><!--link e1 to e2--><g id="link_e1_e2"><path d="M248.23,386.29 C248.23,408.61 248.23,435.49 248.23,457.78 " fill="none" id="e1-to-e2" style="stroke:#181818;stroke-width:1.0;"/><polygon fill="#181818" points="248.23,463.78,252.23,454.78,248.23,458.78,244.23,454.78,248.23,463.78" style="stroke:#181818;stroke-width:1.0;"/><text fill="#000000" font-family="sans-serif" font-size="13" lengthAdjust="spacing" textLength="162" x="249.23" y="430.4951">[playerA.tokensInBoard = 4]</text></g><!--link e2 to *end*--><g id="link_e2_*end*"><path d="M273.23,501.95 C317.82,524.75 410.33,579.01 452.23,655 C474.27,694.97 461.55,711.43 464.23,757 C464.69,764.99 468.98,768.56 464.23,775 C424.58,828.73 338.2168,830.8354 306.3068,829.7954 " fill="none" id="e2-to-*end*" style="stroke:#181818;stroke-width:1.0;"/><polygon fill="#181818" points="300.31,829.6,309.1749,833.891,305.3073,829.7629,309.4355,825.8953,300.31,829.6" style="stroke:#181818;stroke-width:1.0;"/><text fill="#000000" font-family="sans-serif" font-size="13" lengthAdjust="spacing" textLength="107" x="461.23" y="669.4951">[playerA.isWinner]</text></g><!--link e2 to e3--><g id="link_e2_e3"><path d="M248.23,514.19 C248.23,532.25 248.23,550.83 248.23,568.88 " fill="none" id="e2-to-e3" style="stroke:#181818;stroke-width:1.0;"/><polygon fill="#181818" points="248.23,574.88,252.23,565.88,248.23,569.88,244.23,565.88,248.23,574.88" style="stroke:#181818;stroke-width:1.0;"/></g><!--link e3 to c1--><g id="link_e3_c1"><path d="M246.27,625.33 C245.38,639.28 244.65,657.12 245.23,673 C245.61,683.56 246.0237,689.6331 246.7537,697.9231 " fill="none" id="e3-to-c1" style="stroke:#181818;stroke-width:1.0;"/><polygon fill="#181818" points="247.28,703.9,250.4751,694.5838,246.8414,698.9193,242.506,695.2856,247.28,703.9" style="stroke:#181818;stroke-width:1.0;"/><text fill="#000000" font-family="sans-serif" font-size="13" lengthAdjust="spacing" textLength="201" x="246.23" y="669.4951">playerB place token in valid square</text></g><!--link c1 to *end*--><g id="link_c1_*end*"><path d="M251.17,724.13 C258.56,744.47 275.7531,791.88 283.6831,813.73 " fill="none" id="c1-to-*end*" style="stroke:#181818;stroke-width:1.0;"/><polygon fill="#181818" points="285.73,819.37,286.4196,809.5453,284.0242,814.67,278.8996,812.2746,285.73,819.37" style="stroke:#181818;stroke-width:1.0;"/><text fill="#000000" font-family="sans-serif" font-size="13" lengthAdjust="spacing" textLength="185" x="270.23" y="771.4951">[playerB.isWinner | board.isFull]</text></g><!--link c1 to e4--><g id="link_c1_e4"><path d="M242.63,721.45 C227.42,736.26 188.9283,773.7637 161.2983,800.6737 " fill="none" id="c1-to-e4" style="stroke:#181818;stroke-width:1.0;"/><polygon fill="#181818" points="157,804.86,166.2383,801.4461,160.5819,801.3714,160.6566,795.7151,157,804.86" style="stroke:#181818;stroke-width:1.0;"/></g><!--link e4 to e2--><g id="link_e4_e2"><path d="M106.96,809.3 C69.36,777.44 6,712.4 34.23,655 C74.18,573.75 170.0301,523.651 217.4901,502.721 " fill="none" id="e4-to-e2" style="stroke:#181818;stroke-width:1.0;"/><polygon fill="#181818" points="222.98,500.3,213.1312,500.2717,218.4051,502.3175,216.3592,507.5915,222.98,500.3" style="stroke:#181818;stroke-width:1.0;"/><text fill="#000000" font-family="sans-serif" font-size="13" lengthAdjust="spacing" textLength="201" x="35.23" y="669.4951">playerA place token in valid square</text></g><!--SRC=[ZL71QiCm3BthAyHEsw0ZJdCARQ1X6-pImIuxb1myHx2qdjtPpafX7pyvJKEMmQXzy9Fr_2Gz-o03uHLlwP4IyBzYCOdJIJplOoLmiL3ljb5K51DE1W2Rsmfdio8MeEI41EQur_98RXLFHHZiZWms1h-aRchqdwrq14pi-2dpD_s3kuxgdqnffQjnYLary991j_nVD-tuiREHSEDV6sF8LUSyZqZp3YbneR8IVvNBGHc_yIrspHUFhTRLcSu-KJPCUeapO2pRp1QxLjEQCOpJcETBE44kzV2n3qTOhU_X6f1Ndt3smEw9xkhvPPpPjZwKfEsXxnDkW4oDiIJ_9_m0]--></g></svg>