<?xml version="1.0" encoding="us-ascii" standalone="no"?><svg xmlns="http://www.w3.org/2000/svg" xmlns:xlink="http://www.w3.org/1999/xlink" contentStyleType="text/css" height="872px" preserveAspectRatio="none" style="width:257px;height:872px;background:#FFFFFF;" version="1.1" viewBox="0 0 257 872" width="257px" zoomAndPan="magnify"><defs/><g><g id="OUT_GAME"><rect fill="#F1F1F1" height="50" rx="12.5" ry="12.5" style="stroke:#181818;stroke-width:0.5;" width="97" x="18.5" y="87"/><line style="stroke:#181818;stroke-width:0.5;" x1="18.5" x2="115.5" y1="114.6094" y2="114.6094"/><text fill="#000000" font-family="sans-serif" font-size="14" lengthAdjust="spacing" textLength="77" x="28.5" y="106.5332">OUT_GAME</text></g><g id="INITIAL"><rect fill="#F1F1F1" height="50" rx="12.5" ry="12.5" style="stroke:#181818;stroke-width:0.5;" width="64" x="83" y="733"/><line style="stroke:#181818;stroke-width:0.5;" x1="83" x2="147" y1="760.6094" y2="760.6094"/><text fill="#000000" font-family="sans-serif" font-size="14" lengthAdjust="spacing" textLength="44" x="93" y="752.5332">INITIAL</text></g><g id="EXIT"><rect fill="#F1F1F1" height="50" rx="12.5" ry="12.5" style="stroke:#181818;stroke-width:0.5;" width="50" x="7" y="653"/><line style="stroke:#181818;stroke-width:0.5;" x1="7" x2="57" y1="680.6094" y2="680.6094"/><text fill="#000000" font-family="sans-serif" font-size="14" lengthAdjust="spacing" textLength="29" x="17.5" y="672.5332">EXIT</text></g><g id="requested"><rect fill="#F1F1F1" height="50" rx="12.5" ry="12.5" style="stroke:#181818;stroke-width:0.5;" width="50" x="42" y="215"/><line style="stroke:#181818;stroke-width:0.5;" x1="42" x2="92" y1="242.6094" y2="242.6094"/><text fill="#000000" font-family="sans-serif" font-size="14" lengthAdjust="spacing" textLength="4" x="65" y="234.5332">&#160;</text></g><g id="asked"><rect fill="#F1F1F1" height="50" rx="12.5" ry="12.5" style="stroke:#181818;stroke-width:0.5;" width="50" x="42" y="343"/><line style="stroke:#181818;stroke-width:0.5;" x1="42" x2="92" y1="370.6094" y2="370.6094"/><text fill="#000000" font-family="sans-serif" font-size="14" lengthAdjust="spacing" textLength="4" x="65" y="362.5332">&#160;</text></g><g id="elem_isValidAnswer"><polygon fill="#F1F1F1" points="67,471,79,483,67,495,55,483,67,471" style="stroke:#181818;stroke-width:0.5;"/></g><g id="resume"><rect fill="#F1F1F1" height="50" rx="12.5" ry="12.5" style="stroke:#181818;stroke-width:0.5;" width="50" x="88" y="573"/><line style="stroke:#181818;stroke-width:0.5;" x1="88" x2="138" y1="600.6094" y2="600.6094"/><text fill="#000000" font-family="sans-serif" font-size="14" lengthAdjust="spacing" textLength="4" x="111" y="592.5332">&#160;</text></g><ellipse cx="67" cy="16" fill="#222222" rx="10" ry="10" style="stroke:#222222;stroke-width:1.0;"/><ellipse cx="50" cy="855" fill="none" rx="11" ry="11" style="stroke:#222222;stroke-width:1.0;"/><ellipse cx="50" cy="855" fill="#222222" rx="6" ry="6" style="stroke:#222222;stroke-width:1.0;"/><!--link *start* to OUT_GAME--><g id="link_*start*_OUT_GAME"><path d="M67,26.01 C67,39.89 67,60.97 67,80.84 " fill="none" id="*start*-to-OUT_GAME" style="stroke:#181818;stroke-width:1.0;"/><polygon fill="#181818" points="67,86.84,71,77.84,67,81.84,63,77.84,67,86.84" style="stroke:#181818;stroke-width:1.0;"/></g><!--link OUT_GAME to requested--><g id="link_OUT_GAME_requested"><path d="M67,137.29 C67,159.61 67,186.49 67,208.78 " fill="none" id="OUT_GAME-to-requested" style="stroke:#181818;stroke-width:1.0;"/><polygon fill="#181818" points="67,214.78,71,205.78,67,209.78,63,205.78,67,214.78" style="stroke:#181818;stroke-width:1.0;"/><text fill="#000000" font-family="sans-serif" font-size="13" lengthAdjust="spacing" textLength="180" x="68" y="181.4951">Resume (new game) requested</text></g><!--link requested to asked--><g id="link_requested_asked"><path d="M67,265.29 C67,287.61 67,314.49 67,336.78 " fill="none" id="requested-to-asked" style="stroke:#181818;stroke-width:1.0;"/><polygon fill="#181818" points="67,342.78,71,333.78,67,337.78,63,333.78,67,342.78" style="stroke:#181818;stroke-width:1.0;"/><text fill="#000000" font-family="sans-serif" font-size="13" lengthAdjust="spacing" textLength="181" x="68" y="309.4951">System request resume choice</text></g><!--link asked to isValidAnswer--><g id="link_asked_isValidAnswer"><path d="M67,393.24 C67,417.24 67,446.9 67,464.84 " fill="none" id="asked-to-isValidAnswer" style="stroke:#181818;stroke-width:1.0;"/><polygon fill="#181818" points="67,470.84,71,461.84,67,465.84,63,461.84,67,470.84" style="stroke:#181818;stroke-width:1.0;"/><text fill="#000000" font-family="sans-serif" font-size="13" lengthAdjust="spacing" textLength="146" x="68" y="437.4951">Player introduces answer</text></g><!--link isValidAnswer to resume--><g id="link_isValidAnswer_resume"><path d="M70.31,492.13 C77.11,508.83 90.6182,542.0127 100.9682,567.4427 " fill="none" id="isValidAnswer-to-resume" style="stroke:#181818;stroke-width:1.0;"/><polygon fill="#181818" points="103.23,573,103.5421,563.1561,101.3451,568.3689,96.1323,566.1719,103.23,573" style="stroke:#181818;stroke-width:1.0;"/><text fill="#000000" font-family="sans-serif" font-size="13" lengthAdjust="spacing" textLength="29" x="91" y="539.4951">[yes]</text></g><!--link resume to INITIAL--><g id="link_resume_INITIAL"><path d="M113.31,623.34 C113.69,653.12 114.2452,697.2205 114.6152,726.8905 " fill="none" id="resume-to-INITIAL" style="stroke:#181818;stroke-width:1.0;"/><polygon fill="#181818" points="114.69,732.89,118.5775,723.8408,114.6277,727.8904,110.5781,723.9406,114.69,732.89" style="stroke:#181818;stroke-width:1.0;"/><text fill="#000000" font-family="sans-serif" font-size="13" lengthAdjust="spacing" textLength="117" x="115" y="683.4951">System allows Start</text></g><!--link isValidAnswer to EXIT--><g id="link_isValidAnswer_EXIT"><path d="M63.6,491.7 C60.16,499.82 54.93,513.08 52,525 C41.12,569.33 36.2947,616.4973 33.9947,646.7573 " fill="none" id="isValidAnswer-to-EXIT" style="stroke:#181818;stroke-width:1.0;"/><polygon fill="#181818" points="33.54,652.74,38.2106,644.069,33.9189,647.7544,30.2336,643.4627,33.54,652.74" style="stroke:#181818;stroke-width:1.0;"/><text fill="#000000" font-family="sans-serif" font-size="13" lengthAdjust="spacing" textLength="22" x="53" y="539.4951">[no]</text></g><!--link INITIAL to *end*--><g id="link_INITIAL_*end*"><path d="M98.26,783.46 C84.42,803.7 68.9271,826.3275 59.4071,840.2475 " fill="none" id="INITIAL-to-*end*" style="stroke:#181818;stroke-width:1.0;"/><polygon fill="#181818" points="56.02,845.2,64.4023,840.0292,58.8426,841.0729,57.7989,835.5131,56.02,845.2" style="stroke:#181818;stroke-width:1.0;"/></g><!--link EXIT to *end*--><g id="link_EXIT_*end*"><path d="M34.5,703.33 C38.5,742.21 45.5577,810.7613 48.3377,837.8613 " fill="none" id="EXIT-to-*end*" style="stroke:#181818;stroke-width:1.0;"/><polygon fill="#181818" points="48.95,843.83,52.0107,834.4688,48.4398,838.8561,44.0525,835.2852,48.95,843.83" style="stroke:#181818;stroke-width:1.0;"/></g><!--SRC=[RP3T2e9048Nlzoc6hYhe1IG4BoI4_YYBG2G67KhoXvmLyUrprrsbw6xdd9aptmvBb0I7ItZVU3jVi2w3VH06tjPK_Yq8pREcTqCiAGLacC7CoCYlNodZA-PPwfNSKWthTVAiieHSTmpYfY0x8g9b3AkLEt7OXrR7hGwSXhbvIIqyiA35P8e9JWrf9WVENQyKjilk7MZ4mAswlt0TEEROzTXPAUigRH9YGEs8xsyDS2hHWQWZZeN9LuOvueY0ULwr36U9jVoJewxSfvHLBCoabllB26NPuWC0]--></g></svg>