<?xml version="1.0" encoding="us-ascii" standalone="no"?><svg xmlns="http://www.w3.org/2000/svg" xmlns:xlink="http://www.w3.org/1999/xlink" contentStyleType="text/css" height="370px" preserveAspectRatio="none" style="width:949px;height:370px;background:#FFFFFF;" version="1.1" viewBox="0 0 949 370" width="949px" zoomAndPan="magnify"><defs/><g><g id="elem_connect4"><rect fill="#F1F1F1" height="37.6094" style="stroke:#181818;stroke-width:0.5;" width="79" x="301" y="7"/><text fill="#000000" font-family="sans-serif" font-size="14" lengthAdjust="spacing" textLength="65" x="308" y="23.5332">:Connect4</text><line style="stroke:#181818;stroke-width:0.5;" x1="302" x2="379" y1="28.6094" y2="28.6094"/></g><g id="elem_board"><rect fill="#F1F1F1" height="37.6094" style="stroke:#181818;stroke-width:0.5;" width="56" x="371.5" y="109.5"/><text fill="#000000" font-family="sans-serif" font-size="14" lengthAdjust="spacing" textLength="42" x="378.5" y="126.0332">:Board</text><line style="stroke:#181818;stroke-width:0.5;" x1="372.5" x2="426.5" y1="131.1094" y2="131.1094"/></g><g id="elem_turn"><rect fill="#F1F1F1" height="37.6094" style="stroke:#181818;stroke-width:0.5;" width="48" x="99.5" y="109.5"/><text fill="#000000" font-family="sans-serif" font-size="14" lengthAdjust="spacing" textLength="34" x="106.5" y="126.0332">:Turn</text><line style="stroke:#181818;stroke-width:0.5;" x1="100.5" x2="146.5" y1="131.1094" y2="131.1094"/></g><g id="elem_playerRed"><rect fill="#F1F1F1" height="47.2188" style="stroke:#181818;stroke-width:0.5;" width="83" x="183" y="105"/><text fill="#000000" font-family="sans-serif" font-size="14" lengthAdjust="spacing" textLength="44" x="202.5" y="121.5332">:Player</text><line style="stroke:#181818;stroke-width:0.5;" x1="184" x2="265" y1="126.6094" y2="126.6094"/><text fill="#000000" font-family="sans-serif" font-size="14" lengthAdjust="spacing" textLength="71" x="189" y="145.1426">Color = red</text></g><g id="elem_playerYellow"><rect fill="#F1F1F1" height="47.2188" style="stroke:#181818;stroke-width:0.5;" width="100" x="707.5" y="105"/><text fill="#000000" font-family="sans-serif" font-size="14" lengthAdjust="spacing" textLength="48" x="733.5" y="121.5332">: Player</text><line style="stroke:#181818;stroke-width:0.5;" x1="708.5" x2="806.5" y1="126.6094" y2="126.6094"/><text fill="#000000" font-family="sans-serif" font-size="14" lengthAdjust="spacing" textLength="88" x="713.5" y="145.1426">Color = yellow</text></g><g id="elem_square11"><rect fill="#F1F1F1" height="64.8281" style="stroke:#181818;stroke-width:0.5;" width="81" x="243" y="212"/><text fill="#000000" font-family="sans-serif" font-size="14" lengthAdjust="spacing" textLength="50" x="258.5" y="228.5332">:Square</text><line style="stroke:#181818;stroke-width:0.5;" x1="244" x2="323" y1="233.6094" y2="233.6094"/><text fill="#000000" font-family="sans-serif" font-size="14" lengthAdjust="spacing" textLength="46" x="249" y="252.1426">row = 1</text><text fill="#000000" font-family="sans-serif" font-size="14" lengthAdjust="spacing" textLength="69" x="249" y="269.752">column = 1</text></g><g id="elem_square17"><rect fill="#F1F1F1" height="64.8281" style="stroke:#181818;stroke-width:0.5;" width="81" x="359" y="212"/><text fill="#000000" font-family="sans-serif" font-size="14" lengthAdjust="spacing" textLength="50" x="374.5" y="228.5332">:Square</text><line style="stroke:#181818;stroke-width:0.5;" x1="360" x2="439" y1="233.6094" y2="233.6094"/><text fill="#000000" font-family="sans-serif" font-size="14" lengthAdjust="spacing" textLength="46" x="365" y="252.1426">row = 1</text><text fill="#000000" font-family="sans-serif" font-size="14" lengthAdjust="spacing" textLength="69" x="365" y="269.752">column = 7</text></g><g id="elem_square61"><rect fill="#F1F1F1" height="64.8281" style="stroke:#181818;stroke-width:0.5;" width="81" x="475" y="212"/><text fill="#000000" font-family="sans-serif" font-size="14" lengthAdjust="spacing" textLength="50" x="490.5" y="228.5332">:Square</text><line style="stroke:#181818;stroke-width:0.5;" x1="476" x2="555" y1="233.6094" y2="233.6094"/><text fill="#000000" font-family="sans-serif" font-size="14" lengthAdjust="spacing" textLength="46" x="481" y="252.1426">row = 6</text><text fill="#000000" font-family="sans-serif" font-size="14" lengthAdjust="spacing" textLength="69" x="481" y="269.752">column = 1</text></g><g id="elem_square67"><rect fill="#F1F1F1" height="64.8281" style="stroke:#181818;stroke-width:0.5;" width="81" x="591" y="212"/><text fill="#000000" font-family="sans-serif" font-size="14" lengthAdjust="spacing" textLength="50" x="606.5" y="228.5332">:Square</text><line style="stroke:#181818;stroke-width:0.5;" x1="592" x2="671" y1="233.6094" y2="233.6094"/><text fill="#000000" font-family="sans-serif" font-size="14" lengthAdjust="spacing" textLength="46" x="597" y="252.1426">row = 6</text><text fill="#000000" font-family="sans-serif" font-size="14" lengthAdjust="spacing" textLength="69" x="597" y="269.752">column = 7</text></g><g id="elem_tokenRed1"><rect fill="#F1F1F1" height="47.2188" style="stroke:#181818;stroke-width:0.5;" width="83" x="7" y="221"/><text fill="#000000" font-family="sans-serif" font-size="14" lengthAdjust="spacing" textLength="44" x="26.5" y="237.5332">:Token</text><line style="stroke:#181818;stroke-width:0.5;" x1="8" x2="89" y1="242.6094" y2="242.6094"/><text fill="#000000" font-family="sans-serif" font-size="14" lengthAdjust="spacing" textLength="71" x="13" y="261.1426">Color = red</text></g><g id="elem_tokenRed2"><rect fill="#F1F1F1" height="47.2188" style="stroke:#181818;stroke-width:0.5;" width="83" x="125" y="221"/><text fill="#000000" font-family="sans-serif" font-size="14" lengthAdjust="spacing" textLength="44" x="144.5" y="237.5332">:Token</text><line style="stroke:#181818;stroke-width:0.5;" x1="126" x2="207" y1="242.6094" y2="242.6094"/><text fill="#000000" font-family="sans-serif" font-size="14" lengthAdjust="spacing" textLength="71" x="131" y="261.1426">Color = red</text></g><g id="elem_tokenYellow1"><rect fill="#F1F1F1" height="47.2188" style="stroke:#181818;stroke-width:0.5;" width="100" x="707.5" y="221"/><text fill="#000000" font-family="sans-serif" font-size="14" lengthAdjust="spacing" textLength="44" x="735.5" y="237.5332">:Token</text><line style="stroke:#181818;stroke-width:0.5;" x1="708.5" x2="806.5" y1="242.6094" y2="242.6094"/><text fill="#000000" font-family="sans-serif" font-size="14" lengthAdjust="spacing" textLength="88" x="713.5" y="261.1426">Color = yellow</text></g><g id="elem_tokenYellow2"><rect fill="#F1F1F1" height="47.2188" style="stroke:#181818;stroke-width:0.5;" width="100" x="842.5" y="221"/><text fill="#000000" font-family="sans-serif" font-size="14" lengthAdjust="spacing" textLength="44" x="870.5" y="237.5332">:Token</text><line style="stroke:#181818;stroke-width:0.5;" x1="843.5" x2="941.5" y1="242.6094" y2="242.6094"/><text fill="#000000" font-family="sans-serif" font-size="14" lengthAdjust="spacing" textLength="88" x="848.5" y="261.1426">Color = yellow</text></g><g id="elem_NEmpty"><path d="M348.5,337 L348.5,363.3516 L566.5,363.3516 L566.5,347 L556.5,337 L348.5,337 " fill="#FEFFDD" style="stroke:#181818;stroke-width:0.5;"/><path d="M556.5,337 L556.5,347 L566.5,347 L556.5,337 " fill="#FEFFDD" style="stroke:#181818;stroke-width:1.0;"/><text fill="#000000" font-family="sans-serif" font-size="13" lengthAdjust="spacing" textLength="197" x="354.5" y="355.4951">All 6x7 board's squares are empty</text></g><g id="elem_NYellow"><path d="M736,337 L736,363.3516 L913,363.3516 L913,347 L903,337 L736,337 " fill="#FEFFDD" style="stroke:#181818;stroke-width:0.5;"/><path d="M903,337 L903,347 L913,347 L903,337 " fill="#FEFFDD" style="stroke:#181818;stroke-width:1.0;"/><text fill="#000000" font-family="sans-serif" font-size="13" lengthAdjust="spacing" textLength="156" x="742" y="355.4951">Idem all 21 Player's tokens</text></g><g id="elem_NRed"><path d="M19,337 L19,363.3516 L196,363.3516 L196,347 L186,337 L19,337 " fill="#FEFFDD" style="stroke:#181818;stroke-width:0.5;"/><path d="M186,337 L186,347 L196,347 L186,337 " fill="#FEFFDD" style="stroke:#181818;stroke-width:1.0;"/><text fill="#000000" font-family="sans-serif" font-size="13" lengthAdjust="spacing" textLength="156" x="25" y="355.4951">Idem all 21 Player's tokens</text></g><!--link connect4 to board--><g id="link_connect4_board"><path codeLine="47" d="M357.3955,55.7783 C368.0455,73.9183 375.0924,85.9157 385.7124,104.0057 " fill="none" id="connect4-board" style="stroke:#181818;stroke-width:1.0;"/><polygon fill="#181818" points="351.32,45.43,350.9083,52.6293,357.3955,55.7783,357.8072,48.579,351.32,45.43" style="stroke:#181818;stroke-width:1.0;"/><polygon fill="#181818" points="388.75,109.18,387.6431,99.3935,386.2187,104.8681,380.7441,103.4437,388.75,109.18" style="stroke:#181818;stroke-width:1.0;"/></g><!--link connect4 to turn--><g id="link_connect4_turn"><path codeLine="48" d="M289.8164,48.4181 C254.1064,63.6881 211.35,82.54 165.5,105 C159.71,107.84 158.8349,108.2179 153.0749,111.2879 " fill="none" id="connect4-turn" style="stroke:#181818;stroke-width:1.0;"/><polygon fill="#181818" points="300.85,43.7,293.7605,42.3812,289.8164,48.4181,296.9059,49.7369,300.85,43.7" style="stroke:#181818;stroke-width:1.0;"/><polygon fill="#181818" points="147.78,114.11,157.6037,113.4068,152.1924,111.7583,153.8409,106.3469,147.78,114.11" style="stroke:#181818;stroke-width:1.0;"/></g><!--link connect4 to playerRed--><g id="link_connect4_playerRed"><path codeLine="49" d="M310.4208,53.0581 C291.1008,69.7981 275.9738,82.9 255.1738,100.93 " fill="none" id="connect4-playerRed" style="stroke:#181818;stroke-width:1.0;"/><polygon fill="#181818" points="319.49,45.2,312.336,46.106,310.4208,53.0581,317.5748,52.1521,319.49,45.2" style="stroke:#181818;stroke-width:1.0;"/><polygon fill="#181818" points="250.64,104.86,260.0607,101.9875,254.4181,101.585,254.8207,95.9425,250.64,104.86" style="stroke:#181818;stroke-width:1.0;"/></g><!--link connect4 to playerYellow--><g id="link_connect4_playerYellow"><path codeLine="50" d="M391.776,39.3613 C468.006,57.7313 617.5271,93.7637 701.4371,113.9937 " fill="none" id="connect4-playerYellow" style="stroke:#181818;stroke-width:1.0;"/><polygon fill="#181818" points="380.11,36.55,385.0059,41.8443,391.776,39.3613,386.8801,34.067,380.11,36.55" style="stroke:#181818;stroke-width:1.0;"/><polygon fill="#181818" points="707.27,115.4,699.4582,109.402,702.4093,114.2281,697.5832,117.1792,707.27,115.4" style="stroke:#181818;stroke-width:1.0;"/></g><!--link turn to playerRed--><g id="link_turn_playerRed"><path codeLine="53" d="M147.57,128.5 C159.29,128.5 165.01,128.5 176.73,128.5 " fill="none" id="turn-to-playerRed" style="stroke:#181818;stroke-width:1.0;"/><polygon fill="#181818" points="182.73,128.5,173.73,124.5,177.73,128.5,173.73,132.5,182.73,128.5" style="stroke:#181818;stroke-width:1.0;"/></g><!--link board to square11--><g id="link_board_square11"><path codeLine="56" d="M372.5641,155.9741 C355.0641,173.1841 341.1701,186.8251 320.1001,207.5251 " fill="none" id="board-square11" style="stroke:#181818;stroke-width:1.0;"/><polygon fill="#181818" points="381.12,147.56,374.0374,148.9151,372.5641,155.9741,379.6468,154.619,381.12,147.56" style="stroke:#181818;stroke-width:1.0;"/><polygon fill="#181818" points="315.82,211.73,325.0433,208.276,319.3867,208.2259,319.4368,202.5693,315.82,211.73" style="stroke:#181818;stroke-width:1.0;"/></g><!--link board to square17--><g id="link_board_square17"><path codeLine="57" d="M399.5,159.56 C399.5,176.77 399.5,185.03 399.5,205.73 " fill="none" id="board-square17" style="stroke:#181818;stroke-width:1.0;"/><polygon fill="#181818" points="399.5,147.56,395.5,153.56,399.5,159.56,403.5,153.56,399.5,147.56" style="stroke:#181818;stroke-width:1.0;"/><polygon fill="#181818" points="399.5,211.73,403.5,202.73,399.5,206.73,395.5,202.73,399.5,211.73" style="stroke:#181818;stroke-width:1.0;"/></g><!--link board to square61--><g id="link_board_square61"><path codeLine="58" d="M426.4359,155.9741 C443.9359,173.1841 457.8299,186.8251 478.8999,207.5251 " fill="none" id="board-square61" style="stroke:#181818;stroke-width:1.0;"/><polygon fill="#181818" points="417.88,147.56,419.3532,154.619,426.4359,155.9741,424.9626,148.9151,417.88,147.56" style="stroke:#181818;stroke-width:1.0;"/><polygon fill="#181818" points="483.18,211.73,479.5632,202.5693,479.6133,208.2259,473.9567,208.276,483.18,211.73" style="stroke:#181818;stroke-width:1.0;"/></g><!--link board to square67--><g id="link_board_square67"><path codeLine="59" d="M438.6715,147.3139 C473.2815,163.1539 522.68,186.18 573.5,212 C579.12,214.85 579.7069,215.1146 585.4769,218.1946 " fill="none" id="board-square67" style="stroke:#181818;stroke-width:1.0;"/><polygon fill="#181818" points="427.76,142.32,431.5511,148.4541,438.6715,147.3139,434.8804,141.1798,427.76,142.32" style="stroke:#181818;stroke-width:1.0;"/><polygon fill="#181818" points="590.77,221.02,584.714,213.2531,586.3591,218.6655,580.9467,220.3106,590.77,221.02" style="stroke:#181818;stroke-width:1.0;"/></g><!--link playerRed to tokenRed1--><g id="link_playerRed_tokenRed1"><path codeLine="62" d="M189.73,152.02 C158.97,171.94 119.3554,197.5973 88.5354,217.5673 " fill="none" id="playerRed-to-tokenRed1" style="stroke:#181818;stroke-width:1.0;"/><polygon fill="#181818" points="83.5,220.83,93.2282,219.2929,87.6961,218.1111,88.8779,212.5791,83.5,220.83" style="stroke:#181818;stroke-width:1.0;"/></g><!--link playerRed to tokenRed2--><g id="link_playerRed_tokenRed2"><path codeLine="63" d="M213.04,152.02 C202.94,171.88 191.0129,195.3334 180.8529,215.2834 " fill="none" id="playerRed-to-tokenRed2" style="stroke:#181818;stroke-width:1.0;"/><polygon fill="#181818" points="178.13,220.63,185.7787,214.4254,180.3991,216.1745,178.6499,210.7949,178.13,220.63" style="stroke:#181818;stroke-width:1.0;"/></g><!--link playerYellow to tokenYellow1--><g id="link_playerYellow_tokenYellow1"><path codeLine="64" d="M757.5,152.02 C757.5,171.88 757.5,194.68 757.5,214.63 " fill="none" id="playerYellow-to-tokenYellow1" style="stroke:#181818;stroke-width:1.0;"/><polygon fill="#181818" points="757.5,220.63,761.5,211.63,757.5,215.63,753.5,211.63,757.5,220.63" style="stroke:#181818;stroke-width:1.0;"/></g><!--link playerYellow to tokenYellow2--><g id="link_playerYellow_tokenYellow2"><path codeLine="65" d="M784.17,152.02 C807.69,171.88 837.2054,196.8094 860.8354,216.7594 " fill="none" id="playerYellow-to-tokenYellow2" style="stroke:#181818;stroke-width:1.0;"/><polygon fill="#181818" points="865.42,220.63,861.1235,211.7677,861.5995,217.4045,855.9627,217.8805,865.42,220.63" style="stroke:#181818;stroke-width:1.0;"/></g><!--link square11 to NEmpty--><g id="link_square11_NEmpty"><path codeLine="70" d="M324.3,269.77 C359.65,290.8 409.35,320.36 436.96,336.78 " fill="none" id="square11-NEmpty" style="stroke:#181818;stroke-width:1.0;stroke-dasharray:7.0,7.0;"/></g><!--link square17 to NEmpty--><g id="link_square17_NEmpty"><path codeLine="71" d="M417.22,277.12 C428.54,297.33 442.59,322.4 450.75,336.96 " fill="none" id="square17-NEmpty" style="stroke:#181818;stroke-width:1.0;stroke-dasharray:7.0,7.0;"/></g><!--link square61 to NEmpty--><g id="link_square61_NEmpty"><path codeLine="72" d="M497.78,277.12 C486.46,297.33 472.41,322.4 464.25,336.96 " fill="none" id="square61-NEmpty" style="stroke:#181818;stroke-width:1.0;stroke-dasharray:7.0,7.0;"/></g><!--link square67 to NEmpty--><g id="link_square67_NEmpty"><path codeLine="73" d="M590.7,269.77 C555.35,290.8 505.65,320.36 478.04,336.78 " fill="none" id="square67-NEmpty" style="stroke:#181818;stroke-width:1.0;stroke-dasharray:7.0,7.0;"/></g><!--link tokenYellow1 to NYellow--><g id="link_tokenYellow1_NYellow"><path codeLine="78" d="M772.2,268.21 C785.92,289.4 805.84,320.18 816.71,336.97 " fill="none" id="tokenYellow1-NYellow" style="stroke:#181818;stroke-width:1.0;stroke-dasharray:7.0,7.0;"/></g><!--link tokenYellow2 to NYellow--><g id="link_tokenYellow2_NYellow"><path codeLine="79" d="M877.58,268.21 C863.66,289.4 843.44,320.18 832.4,336.97 " fill="none" id="tokenYellow2-NYellow" style="stroke:#181818;stroke-width:1.0;stroke-dasharray:7.0,7.0;"/></g><!--link tokenRed1 to NRed--><g id="link_tokenRed1_NRed"><path codeLine="84" d="M61.45,268.21 C73.52,289.4 91.07,320.18 100.64,336.97 " fill="none" id="tokenRed1-NRed" style="stroke:#181818;stroke-width:1.0;stroke-dasharray:7.0,7.0;"/></g><!--link tokenRed2 to NRed--><g id="link_tokenRed2_NRed"><path codeLine="85" d="M153.55,268.21 C141.48,289.4 123.93,320.18 114.36,336.97 " fill="none" id="tokenRed2-NRed" style="stroke:#181818;stroke-width:1.0;stroke-dasharray:7.0,7.0;"/></g><!--SRC=[ZLHDImCn4BtFhmYzB0Wjx28920fQF7WHqLuyRZT1gzcaPhVKKlhVpTScs_sobp9vyzvCycQwSlt5YXhDRfPI21rTpr1UeS8VG3Rf1vahQdDh4yN4QgU4nMiT02HRdX-OgfB8UB68vRZaAwD7M4ek5Rf5Yb4uHJBgiTyPvt8V1GTxrXf8gfzThbYxrvj5hDebq_G8IkwrBeL2ybqfR7YQaf012PcKuD05Nze5am49iS-gvJSJxLUj3E1CDf7sBnqriC_DBkKwfzC1gwSLsU1mcXr2b6sPe4mK6pEg05_DgToB-PrVg3vk5weFXnqQpRbR6IDrXKvx2ytLvkEpFgi5YRr6X-smKBvPgH6S3EDuX8z9-BjqsePheU15C_U9N0Rjvv-d_MZ_PMG0GjRC3FZviTpM1xZd7E5VugQKDDjR8Vs3c6NeYoCZWiQUnS9h6ryw0EuoS6J4zdwAJvILADUNo5B_RKZyybMnS_kDkfINjjyLqTZ1pFtoyiPzNSM8WkF-_0S0]--></g></svg>