<?xml version="1.0" encoding="us-ascii" standalone="no"?><svg xmlns="http://www.w3.org/2000/svg" xmlns:xlink="http://www.w3.org/1999/xlink" contentStyleType="text/css" height="174px" preserveAspectRatio="none" style="width:241px;height:174px;background:#FFFFFF;" version="1.1" viewBox="0 0 241 174" width="241px" zoomAndPan="magnify"><defs/><g><!--entity Player--><g id="elem_Player"><ellipse cx="26" cy="57" fill="#F1F1F1" rx="8" ry="8" style="stroke:#181818;stroke-width:0.5;"/><path d="M26,65 L26,92 M13,73 L39,73 M26,92 L13,107 M26,92 L39,107 " fill="none" style="stroke:#181818;stroke-width:0.5;"/><text fill="#000000" font-family="sans-serif" font-size="14" lengthAdjust="spacing" textLength="40" x="6" y="123.0332">Player</text></g><g id="elem_Start"><ellipse cx="170.6985" cy="21.4517" fill="#F1F1F1" rx="32.6985" ry="15.4517" style="stroke:#181818;stroke-width:0.5;"/><text fill="#000000" font-family="sans-serif" font-size="14" lengthAdjust="spacing" textLength="30" x="155.6985" y="25.1802">Start</text></g><g id="elem_Place"><ellipse cx="170.602" cy="87.6136" fill="#F1F1F1" rx="64.602" ry="15.6136" style="stroke:#181818;stroke-width:0.5;"/><text fill="#000000" font-family="sans-serif" font-size="14" lengthAdjust="spacing" textLength="74" x="130.602" y="92.1302">Place token</text></g><g id="elem_Resume"><ellipse cx="170.361" cy="153.4809" fill="#F1F1F1" rx="48.361" ry="15.4809" style="stroke:#181818;stroke-width:0.5;"/><text fill="#000000" font-family="sans-serif" font-size="14" lengthAdjust="spacing" textLength="52" x="142.1681" y="157.8128">Resume</text></g><!--link Player to Start--><g id="link_Player_Start"><path d="M46.22,78.6 C72.2,66.57 113.0361,47.6526 140.8961,34.7426 " fill="none" id="Player-to-Start" style="stroke:#181818;stroke-width:1.0;"/><polygon fill="#181818" points="146.34,32.22,136.4924,32.3747,141.8034,34.3222,139.8559,39.6333,146.34,32.22" style="stroke:#181818;stroke-width:1.0;"/></g><!--link Player to Place--><g id="link_Player_Place"><path d="M46.22,87.5 C61.64,87.5 78.21,87.5 99.84,87.5 " fill="none" id="Player-to-Place" style="stroke:#181818;stroke-width:1.0;"/><polygon fill="#181818" points="105.84,87.5,96.84,83.5,100.84,87.5,96.84,91.5,105.84,87.5" style="stroke:#181818;stroke-width:1.0;"/></g><!--link Player to Resume--><g id="link_Player_Resume"><path d="M46.22,96.4 C70.91,107.84 108.4857,125.2382 136.6157,138.2682 " fill="none" id="Player-to-Resume" style="stroke:#181818;stroke-width:1.0;"/><polygon fill="#181818" points="142.06,140.79,135.5748,133.3777,137.5231,138.6885,132.2123,140.6368,142.06,140.79" style="stroke:#181818;stroke-width:1.0;"/></g><!--SRC=[JSh13O0W44JHErLilDE2DHYjO8EZ4X6IPJdOlKRKS9kyFm6BaYOIlsvAinSuzIaQTfg4Xi0dn9GCnnaqAOkQYcHj_yANx-10dAchIzEEsBN_n___Y5mEjBtA1G00]--></g></svg>