<?xml version="1.0" encoding="us-ascii" standalone="no"?><svg xmlns="http://www.w3.org/2000/svg" xmlns:xlink="http://www.w3.org/1999/xlink" contentStyleType="text/css" height="1227px" preserveAspectRatio="none" style="width:360px;height:1227px;background:#FFFFFF;" version="1.1" viewBox="0 0 360 1227" width="360px" zoomAndPan="magnify"><defs/><g><g id="INITIAL"><rect fill="#F1F1F1" height="50" rx="12.5" ry="12.5" style="stroke:#181818;stroke-width:0.5;" width="64" x="104" y="87"/><line style="stroke:#181818;stroke-width:0.5;" x1="104" x2="168" y1="114.6094" y2="114.6094"/><text fill="#000000" font-family="sans-serif" font-size="14" lengthAdjust="spacing" textLength="44" x="114" y="106.5332">INITIAL</text></g><g id="IN_GAME"><rect fill="#F1F1F1" height="50" rx="12.5" ry="12.5" style="stroke:#181818;stroke-width:0.5;" width="80" x="97" y="1088"/><line style="stroke:#181818;stroke-width:0.5;" x1="97" x2="177" y1="1115.6094" y2="1115.6094"/><text fill="#000000" font-family="sans-serif" font-size="14" lengthAdjust="spacing" textLength="60" x="107" y="1107.5332">IN_GAME</text></g><g id="start"><rect fill="#F1F1F1" height="50" rx="12.5" ry="12.5" style="stroke:#181818;stroke-width:0.5;" width="50" x="111" y="215"/><line style="stroke:#181818;stroke-width:0.5;" x1="111" x2="161" y1="242.6094" y2="242.6094"/><text fill="#000000" font-family="sans-serif" font-size="14" lengthAdjust="spacing" textLength="4" x="134" y="234.5332">&#160;</text></g><g id="welcomed"><rect fill="#F1F1F1" height="50" rx="12.5" ry="12.5" style="stroke:#181818;stroke-width:0.5;" width="50" x="111" y="343"/><line style="stroke:#181818;stroke-width:0.5;" x1="111" x2="161" y1="370.6094" y2="370.6094"/><text fill="#000000" font-family="sans-serif" font-size="14" lengthAdjust="spacing" textLength="4" x="134" y="362.5332">&#160;</text></g><g id="S1"><rect fill="#F1F1F1" height="50" rx="12.5" ry="12.5" style="stroke:#181818;stroke-width:0.5;" width="50" x="111" y="471"/><line style="stroke:#181818;stroke-width:0.5;" x1="111" x2="161" y1="498.6094" y2="498.6094"/><text fill="#000000" font-family="sans-serif" font-size="14" lengthAdjust="spacing" textLength="4" x="134" y="490.5332">&#160;</text></g><g id="configured"><rect fill="#F1F1F1" height="50" rx="12.5" ry="12.5" style="stroke:#181818;stroke-width:0.5;" width="50" x="111" y="599"/><line style="stroke:#181818;stroke-width:0.5;" x1="111" x2="161" y1="626.6094" y2="626.6094"/><text fill="#000000" font-family="sans-serif" font-size="14" lengthAdjust="spacing" textLength="4" x="134" y="618.5332">&#160;</text></g><g id="displayed"><rect fill="#F1F1F1" height="50" rx="12.5" ry="12.5" style="stroke:#181818;stroke-width:0.5;" width="50" x="111" y="727"/><line style="stroke:#181818;stroke-width:0.5;" x1="111" x2="161" y1="754.6094" y2="754.6094"/><text fill="#000000" font-family="sans-serif" font-size="14" lengthAdjust="spacing" textLength="4" x="134" y="746.5332">&#160;</text></g><g id="NORMAL_GAME"><rect fill="#F1F1F1" height="52.7031" rx="12.5" ry="12.5" style="stroke:#181818;stroke-width:0.5;" width="120" x="7" y="957"/><line style="stroke:#181818;stroke-width:0.5;" x1="7" x2="127" y1="984.6094" y2="984.6094"/><text fill="#000000" font-family="sans-serif" font-size="14" lengthAdjust="spacing" textLength="4" x="65" y="976.5332">&#160;</text><text fill="#000000" font-family="sans-serif" font-size="12" lengthAdjust="spacing" textLength="100" x="12" y="1002.0664">at least one player</text></g><g id="DEMO"><rect fill="#F1F1F1" height="52.7031" rx="12.5" ry="12.5" style="stroke:#181818;stroke-width:0.5;" width="87" x="174.5" y="957"/><line style="stroke:#181818;stroke-width:0.5;" x1="174.5" x2="261.5" y1="984.6094" y2="984.6094"/><text fill="#000000" font-family="sans-serif" font-size="14" lengthAdjust="spacing" textLength="4" x="216" y="976.5332">&#160;</text><text fill="#000000" font-family="sans-serif" font-size="12" lengthAdjust="spacing" textLength="67" x="179.5" y="1002.0664">demo game</text></g><g id="elem_gameModeChoice"><polygon fill="#F1F1F1" points="136,855,148,867,136,879,124,867,136,855" style="stroke:#181818;stroke-width:0.5;"/></g><ellipse cx="136" cy="16" fill="#222222" rx="10" ry="10" style="stroke:#222222;stroke-width:1.0;"/><ellipse cx="137" cy="1210" fill="none" rx="11" ry="11" style="stroke:#222222;stroke-width:1.0;"/><ellipse cx="137" cy="1210" fill="#222222" rx="6" ry="6" style="stroke:#222222;stroke-width:1.0;"/><!--link *start* to INITIAL--><g id="link_*start*_INITIAL"><path d="M136,26.01 C136,39.89 136,60.97 136,80.84 " fill="none" id="*start*-to-INITIAL" style="stroke:#181818;stroke-width:1.0;"/><polygon fill="#181818" points="136,86.84,140,77.84,136,81.84,132,77.84,136,86.84" style="stroke:#181818;stroke-width:1.0;"/></g><!--link INITIAL to start--><g id="link_INITIAL_start"><path d="M136,137.29 C136,159.61 136,186.49 136,208.78 " fill="none" id="INITIAL-to-start" style="stroke:#181818;stroke-width:1.0;"/><polygon fill="#181818" points="136,214.78,140,205.78,136,209.78,132,205.78,136,214.78" style="stroke:#181818;stroke-width:1.0;"/><text fill="#000000" font-family="sans-serif" font-size="13" lengthAdjust="spacing" textLength="160" x="137" y="181.4951">Start (new game) requested</text></g><!--link start to welcomed--><g id="link_start_welcomed"><path d="M136,265.29 C136,287.61 136,314.49 136,336.78 " fill="none" id="start-to-welcomed" style="stroke:#181818;stroke-width:1.0;"/><polygon fill="#181818" points="136,342.78,140,333.78,136,337.78,132,333.78,136,342.78" style="stroke:#181818;stroke-width:1.0;"/><text fill="#000000" font-family="sans-serif" font-size="13" lengthAdjust="spacing" textLength="168" x="137" y="309.4951">System shows title message</text></g><!--link welcomed to S1--><g id="link_welcomed_S1"><path d="M136,393.29 C136,415.61 136,442.49 136,464.78 " fill="none" id="welcomed-to-S1" style="stroke:#181818;stroke-width:1.0;"/><polygon fill="#181818" points="136,470.78,140,461.78,136,465.78,132,461.78,136,470.78" style="stroke:#181818;stroke-width:1.0;"/><text fill="#000000" font-family="sans-serif" font-size="13" lengthAdjust="spacing" textLength="215" x="137" y="437.4951">System request num of players [0..2]</text></g><!--link S1 to configured--><g id="link_S1_configured"><path d="M136,521.29 C136,543.61 136,570.49 136,592.78 " fill="none" id="S1-to-configured" style="stroke:#181818;stroke-width:1.0;"/><polygon fill="#181818" points="136,598.78,140,589.78,136,593.78,132,589.78,136,598.78" style="stroke:#181818;stroke-width:1.0;"/><text fill="#000000" font-family="sans-serif" font-size="13" lengthAdjust="spacing" textLength="190" x="137" y="565.4951">Player introduces num of players</text></g><!--link configured to displayed--><g id="link_configured_displayed"><path d="M136,649.29 C136,671.61 136,698.49 136,720.78 " fill="none" id="configured-to-displayed" style="stroke:#181818;stroke-width:1.0;"/><polygon fill="#181818" points="136,726.78,140,717.78,136,721.78,132,717.78,136,726.78" style="stroke:#181818;stroke-width:1.0;"/><text fill="#000000" font-family="sans-serif" font-size="13" lengthAdjust="spacing" textLength="162" x="137" y="693.4951">System shows empty board</text></g><!--link displayed to gameModeChoice--><g id="link_displayed_gameModeChoice"><path d="M136,777.24 C136,801.24 136,830.9 136,848.84 " fill="none" id="displayed-to-gameModeChoice" style="stroke:#181818;stroke-width:1.0;"/><polygon fill="#181818" points="136,854.84,140,845.84,136,849.84,132,845.84,136,854.84" style="stroke:#181818;stroke-width:1.0;"/><text fill="#000000" font-family="sans-serif" font-size="13" lengthAdjust="spacing" textLength="100" x="137" y="821.4951">[numPlayers &gt; 0]</text></g><!--link gameModeChoice to NORMAL_GAME--><g id="link_gameModeChoice_NORMAL_GAME"><path d="M131.68,875.16 C122.07,891.12 101.5664,925.1307 85.6964,951.4707 " fill="none" id="gameModeChoice-to-NORMAL_GAME" style="stroke:#181818;stroke-width:1.0;"/><polygon fill="#181818" points="82.6,956.61,90.6708,950.9654,85.1804,952.3273,83.8185,946.8368,82.6,956.61" style="stroke:#181818;stroke-width:1.0;"/><text fill="#000000" font-family="sans-serif" font-size="13" lengthAdjust="spacing" textLength="30" x="111" y="923.4951">[true]</text></g><!--link gameModeChoice to DEMO--><g id="link_gameModeChoice_DEMO"><path d="M140.64,874.48 C151.76,890 176.8872,925.0914 196.0172,951.8114 " fill="none" id="gameModeChoice-to-DEMO" style="stroke:#181818;stroke-width:1.0;"/><polygon fill="#181818" points="199.51,956.69,197.5232,947.0436,196.5993,952.6245,191.0184,951.7007,199.51,956.69" style="stroke:#181818;stroke-width:1.0;"/></g><!--link NORMAL_GAME to IN_GAME--><g id="link_NORMAL_GAME_IN_GAME"><path d="M47.44,1010.03 C38.75,1024.67 32.25,1043.04 41,1058 C53.07,1078.63 70.6738,1089.75 91.2238,1098.02 " fill="none" id="NORMAL_GAME-to-IN_GAME" style="stroke:#181818;stroke-width:1.0;"/><polygon fill="#181818" points="96.79,1100.26,89.9341,1093.1892,92.1515,1098.3933,86.9474,1100.6108,96.79,1100.26" style="stroke:#181818;stroke-width:1.0;"/><text fill="#000000" font-family="sans-serif" font-size="13" lengthAdjust="spacing" textLength="161" x="42" y="1054.4951">System allows Place Token</text></g><!--link DEMO to IN_GAME--><g id="link_DEMO_IN_GAME"><path d="M219.24,1010.22 C218.84,1025.1 216.37,1043.65 208,1058 C200.59,1070.71 193.774,1077.9208 182.004,1086.3708 " fill="none" id="DEMO-to-IN_GAME" style="stroke:#181818;stroke-width:1.0;"/><polygon fill="#181818" points="177.13,1089.87,186.7738,1087.8706,181.1917,1086.954,182.1082,1081.3719,177.13,1089.87" style="stroke:#181818;stroke-width:1.0;"/></g><!--link IN_GAME to *end*--><g id="link_IN_GAME_*end*"><path d="M137,1138.46 C137,1158.04 137,1178.49 137,1192.8 " fill="none" id="IN_GAME-to-*end*" style="stroke:#181818;stroke-width:1.0;"/><polygon fill="#181818" points="137,1198.8,141,1189.8,137,1193.8,133,1189.8,137,1198.8" style="stroke:#181818;stroke-width:1.0;"/></g><!--SRC=[RP5TQy8m58RlyojUThKD5BVB8WNPP0XMPNedChBcg6LDuv8KyTylYR6jPJT9pidpdazZkINC5hFDR39d9bfV7vDi6YrtQWjky827w3fJcIj9ujwxVhctSrNjYqEj-vmepAdabzOT_OlbPpQPXzJn1mcuHKdSMAYA46Gwuk_JRDboWgJ2WKkwHVFlJ0bwEweY9up7UNYaAMFRvnq6WxJfEjx1T-qsmJhSZnMTGwGdQFgjoLWIx8fuk9c3uo_kJy8SrTd05hOaI3A67uWrb9Uu8JLm38cgbb3xs9t1TZGSlkx07EeLdJ4cM0K6HMMr4dLEfYTc7TgBsrdtIYHviXTyAwu5Qo4lwGqkmTQbMCNQKensh4TuKNTtJc5rJVzoVccCTUdh8cxAM2ClIr-ao-fq6_L35Glhxi3i9l8-jz4_]--></g></svg>