<?xml version="1.0" encoding="us-ascii" standalone="no"?><svg xmlns="http://www.w3.org/2000/svg" xmlns:xlink="http://www.w3.org/1999/xlink" contentStyleType="text/css" height="797px" preserveAspectRatio="none" style="width:260px;height:797px;background:#FFFFFF;" version="1.1" viewBox="0 0 260 797" width="260px" zoomAndPan="magnify"><defs/><g><g id="INITIAL"><rect fill="#F1F1F1" height="50" rx="12.5" ry="12.5" style="stroke:#181818;stroke-width:0.5;" width="64" x="108.15" y="87"/><line style="stroke:#181818;stroke-width:0.5;" x1="108.15" x2="172.15" y1="114.6094" y2="114.6094"/><text fill="#000000" font-family="sans-serif" font-size="14" lengthAdjust="spacing" textLength="44" x="118.15" y="106.5332">INITIAL</text></g><g id="IN_GAME"><rect fill="#F1F1F1" height="50" rx="12.5" ry="12.5" style="stroke:#181818;stroke-width:0.5;" width="80" x="54.15" y="215"/><line style="stroke:#181818;stroke-width:0.5;" x1="54.15" x2="134.15" y1="242.6094" y2="242.6094"/><text fill="#000000" font-family="sans-serif" font-size="14" lengthAdjust="spacing" textLength="60" x="64.15" y="234.5332">IN_GAME</text></g><g id="OUT_GAME"><rect fill="#F1F1F1" height="50" rx="12.5" ry="12.5" style="stroke:#181818;stroke-width:0.5;" width="97" x="36.65" y="445"/><line style="stroke:#181818;stroke-width:0.5;" x1="36.65" x2="133.65" y1="472.6094" y2="472.6094"/><text fill="#000000" font-family="sans-serif" font-size="14" lengthAdjust="spacing" textLength="77" x="46.65" y="464.5332">OUT_GAME</text></g><g id="EXIT"><rect fill="#F1F1F1" height="50" rx="12.5" ry="12.5" style="stroke:#181818;stroke-width:0.5;" width="50" x="111.15" y="658"/><line style="stroke:#181818;stroke-width:0.5;" x1="111.15" x2="161.15" y1="685.6094" y2="685.6094"/><text fill="#000000" font-family="sans-serif" font-size="14" lengthAdjust="spacing" textLength="29" x="121.65" y="677.5332">EXIT</text></g><g id="elem_if_finished"><polygon fill="#F1F1F1" points="85.15,343,97.15,355,85.15,367,73.15,355,85.15,343" style="stroke:#181818;stroke-width:0.5;"/></g><g id="elem_if_resumed"><polygon fill="#F1F1F1" points="136.15,573,148.15,585,136.15,597,124.15,585,136.15,573" style="stroke:#181818;stroke-width:0.5;"/></g><ellipse cx="140.15" cy="16" fill="#222222" rx="10" ry="10" style="stroke:#222222;stroke-width:1.0;"/><ellipse cx="136.15" cy="780" fill="none" rx="11" ry="11" style="stroke:#222222;stroke-width:1.0;"/><ellipse cx="136.15" cy="780" fill="#222222" rx="6" ry="6" style="stroke:#222222;stroke-width:1.0;"/><!--link *start* to INITIAL--><g id="link_*start*_INITIAL"><path d="M140.15,26.01 C140.15,39.89 140.15,60.97 140.15,80.84 " fill="none" id="*start*-to-INITIAL" style="stroke:#181818;stroke-width:1.0;"/><polygon fill="#181818" points="140.15,86.84,144.15,77.84,140.15,81.84,136.15,77.84,140.15,86.84" style="stroke:#181818;stroke-width:1.0;"/></g><!--link INITIAL to IN_GAME--><g id="link_INITIAL_IN_GAME"><path d="M131.28,137.29 C123.14,159.61 113.1859,186.8532 105.0559,209.1432 " fill="none" id="INITIAL-to-IN_GAME" style="stroke:#181818;stroke-width:1.0;"/><polygon fill="#181818" points="103,214.78,109.8418,207.6955,104.7133,210.0827,102.3261,204.9542,103,214.78" style="stroke:#181818;stroke-width:1.0;"/><text fill="#000000" font-family="sans-serif" font-size="13" lengthAdjust="spacing" textLength="28" x="121.15" y="181.4951">Start</text></g><!--link IN_GAME to if_finished--><g id="link_IN_GAME_if_finished"><path d="M54.01,260.41 C40.74,269.03 27.5,280.54 20.15,295 C6,322.85 50.5347,341.9257 71.1047,349.2157 " fill="none" id="IN_GAME-to-if_finished" style="stroke:#181818;stroke-width:1.0;"/><polygon fill="#181818" points="76.76,351.22,69.6131,344.4434,72.0472,349.5498,66.9408,351.9839,76.76,351.22" style="stroke:#181818;stroke-width:1.0;"/><text fill="#000000" font-family="sans-serif" font-size="13" lengthAdjust="spacing" textLength="72" x="21.15" y="309.4951">Place Token</text></g><!--link if_finished to IN_GAME--><g id="link_if_finished_IN_GAME"><path d="M88.5,346.01 C91.7,337.87 96.33,324.81 98.15,313 C100.6,297.16 100.2836,285.1209 98.6736,271.0809 " fill="none" id="if_finished-to-IN_GAME" style="stroke:#181818;stroke-width:1.0;"/><polygon fill="#181818" points="97.99,265.12,95.0414,274.5171,98.5596,270.0874,102.9893,273.6057,97.99,265.12" style="stroke:#181818;stroke-width:1.0;"/></g><!--link if_finished to OUT_GAME--><g id="link_if_finished_OUT_GAME"><path d="M85.15,367.25 C85.15,385.22 85.15,414.83 85.15,438.79 " fill="none" id="if_finished-to-OUT_GAME" style="stroke:#181818;stroke-width:1.0;"/><polygon fill="#181818" points="85.15,444.79,89.15,435.79,85.15,439.79,81.15,435.79,85.15,444.79" style="stroke:#181818;stroke-width:1.0;"/><text fill="#000000" font-family="sans-serif" font-size="13" lengthAdjust="spacing" textLength="52" x="86.15" y="411.4951">[finished]</text></g><!--link OUT_GAME to if_resumed--><g id="link_OUT_GAME_if_resumed"><path d="M92.53,495.16 C97.2,509.38 103.74,527.54 111.15,543 C117.21,555.63 122.7072,564.3777 128.0972,572.3077 " fill="none" id="OUT_GAME-to-if_resumed" style="stroke:#181818;stroke-width:1.0;"/><polygon fill="#181818" points="131.47,577.27,129.7189,567.5781,128.6593,573.1348,123.1026,572.0752,131.47,577.27" style="stroke:#181818;stroke-width:1.0;"/><text fill="#000000" font-family="sans-serif" font-size="13" lengthAdjust="spacing" textLength="48" x="112.15" y="539.4951">Resume</text></g><!--link if_resumed to INITIAL--><g id="link_if_resumed_INITIAL"><path d="M141.34,578 C147.73,570.34 158.55,556.46 165.15,543 C179.89,512.96 187.15,504.46 187.15,471 C187.15,239 187.15,239 187.15,239 C187.15,201.64 171.7161,166.9981 157.9461,142.3481 " fill="none" id="if_resumed-to-INITIAL" style="stroke:#181818;stroke-width:1.0;"/><polygon fill="#181818" points="155.02,137.11,155.9171,146.9179,157.4584,141.4751,162.9013,143.0164,155.02,137.11" style="stroke:#181818;stroke-width:1.0;"/><text fill="#000000" font-family="sans-serif" font-size="13" lengthAdjust="spacing" textLength="64" x="188.15" y="360.4951">[continued]</text></g><!--link if_resumed to EXIT--><g id="link_if_resumed_EXIT"><path d="M136.15,597.01 C136.15,611.79 136.15,632.43 136.15,651.95 " fill="none" id="if_resumed-to-EXIT" style="stroke:#181818;stroke-width:1.0;"/><polygon fill="#181818" points="136.15,657.95,140.15,648.95,136.15,652.95,132.15,648.95,136.15,657.95" style="stroke:#181818;stroke-width:1.0;"/></g><!--link EXIT to *end*--><g id="link_EXIT_*end*"><path d="M136.15,708.46 C136.15,728.04 136.15,748.49 136.15,762.8 " fill="none" id="EXIT-to-*end*" style="stroke:#181818;stroke-width:1.0;"/><polygon fill="#181818" points="136.15,768.8,140.15,759.8,136.15,763.8,132.15,759.8,136.15,768.8" style="stroke:#181818;stroke-width:1.0;"/></g><!--SRC=[PL1B2iCW4DrxYbaNSW49GXQX2FtHMYY44CGQ8caLehb_4nbRssvqtXjv7tsGGGC_SC6h7V68kcsrhn4ThoA7zOqB74tVzSOQF-WxbAKQd56QiSzoqdv-Vkz8iscXADZR4M_aeX65Iv1J80ZZAhEYS7f8fK6uKLkIPyWq_lZKWaAJ-9OaCbbWO0hdE92iGvPvaL3E1cFdLUFdJVoUzOXeQVi2]--></g></svg>