<?xml version="1.0" encoding="us-ascii" standalone="no"?><svg xmlns="http://www.w3.org/2000/svg" xmlns:xlink="http://www.w3.org/1999/xlink" contentStyleType="text/css" height="813px" preserveAspectRatio="none" style="width:1659px;height:813px;background:#FFFFFF;" version="1.1" viewBox="0 0 1659 813" width="1659px" zoomAndPan="magnify"><defs/><g><g id="elem_Description"><path d="M1247.5,6 L1247.5,48.7031 L1475.5,48.7031 L1475.5,16 L1465.5,6 L1247.5,6 " fill="#FEFFDD" style="stroke:#181818;stroke-width:0.5;"/><path d="M1465.5,6 L1465.5,16 L1475.5,16 L1465.5,6 " fill="#FEFFDD" style="stroke:#181818;stroke-width:1.0;"/><text fill="#000000" font-family="sans-serif" font-size="13" lengthAdjust="spacing" textLength="163" x="1253.5" y="24.4951">Example: PlayerRed wins in</text><text fill="#000000" font-family="sans-serif" font-size="13" lengthAdjust="spacing" textLength="207" x="1253.5" y="40.8467">horizontal with only 4 placed tokens</text></g><g id="elem_connect4"><rect fill="#F1F1F1" height="37.6094" style="stroke:#181818;stroke-width:0.5;" width="79" x="1133" y="8.5"/><text fill="#000000" font-family="sans-serif" font-size="14" lengthAdjust="spacing" textLength="65" x="1140" y="25.0332">:Connect4</text><line style="stroke:#181818;stroke-width:0.5;" x1="1134" x2="1211" y1="30.1094" y2="30.1094"/></g><g id="elem_board"><rect fill="#F1F1F1" height="37.6094" style="stroke:#181818;stroke-width:0.5;" width="56" x="446.5" y="113.5"/><text fill="#000000" font-family="sans-serif" font-size="14" lengthAdjust="spacing" textLength="42" x="453.5" y="130.0332">:Board</text><line style="stroke:#181818;stroke-width:0.5;" x1="447.5" x2="501.5" y1="135.1094" y2="135.1094"/></g><g id="elem_GMN5"><path d="M407.5,6 L407.5,48.7031 A0,0 0 0 0 407.5,48.7031 L470.5,48.7031 L474.5,113.44 L478.5,48.7031 L541.5,48.7031 A0,0 0 0 0 541.5,48.7031 L541.5,16 L531.5,6 L407.5,6 A0,0 0 0 0 407.5,6 " fill="#FEFFDD" style="stroke:#181818;stroke-width:0.5;"/><path d="M531.5,6 L531.5,16 L541.5,16 L531.5,6 " fill="#FEFFDD" style="stroke:#181818;stroke-width:0.5;"/><text fill="#000000" font-family="sans-serif" font-size="13" lengthAdjust="spacing" textLength="113" x="413.5" y="24.4951">squares not drawed</text><text fill="#000000" font-family="sans-serif" font-size="13" lengthAdjust="spacing" textLength="58" x="413.5" y="40.8467">are empty</text></g><g id="elem_turn"><rect fill="#F1F1F1" height="47.2188" style="stroke:#181818;stroke-width:0.5;" width="90" x="1321.5" y="109"/><text fill="#000000" font-family="sans-serif" font-size="14" lengthAdjust="spacing" textLength="34" x="1349.5" y="125.5332">:Turn</text><line style="stroke:#181818;stroke-width:0.5;" x1="1322.5" x2="1410.5" y1="130.6094" y2="130.6094"/><text fill="#000000" font-family="sans-serif" font-size="14" lengthAdjust="spacing" textLength="78" x="1327.5" y="149.1426">Player = null</text></g><g id="elem_playerRed"><rect fill="#F1F1F1" height="47.2188" style="stroke:#181818;stroke-width:0.5;" width="83" x="1034" y="109"/><text fill="#000000" font-family="sans-serif" font-size="14" lengthAdjust="spacing" textLength="44" x="1053.5" y="125.5332">:Player</text><line style="stroke:#181818;stroke-width:0.5;" x1="1035" x2="1116" y1="130.6094" y2="130.6094"/><text fill="#000000" font-family="sans-serif" font-size="14" lengthAdjust="spacing" textLength="71" x="1040" y="149.1426">Color = red</text></g><g id="elem_playerYellow"><rect fill="#F1F1F1" height="47.2188" style="stroke:#181818;stroke-width:0.5;" width="100" x="1186.5" y="109"/><text fill="#000000" font-family="sans-serif" font-size="14" lengthAdjust="spacing" textLength="48" x="1212.5" y="125.5332">: Player</text><line style="stroke:#181818;stroke-width:0.5;" x1="1187.5" x2="1285.5" y1="130.6094" y2="130.6094"/><text fill="#000000" font-family="sans-serif" font-size="14" lengthAdjust="spacing" textLength="88" x="1192.5" y="149.1426">Color = yellow</text></g><g id="elem_squareRed13"><rect fill="#FF0000" height="64.8281" style="stroke:#181818;stroke-width:0.5;" width="81" x="10" y="634"/><text fill="#000000" font-family="sans-serif" font-size="14" lengthAdjust="spacing" textLength="50" x="25.5" y="650.5332">:Square</text><line style="stroke:#181818;stroke-width:0.5;" x1="11" x2="90" y1="655.6094" y2="655.6094"/><text fill="#000000" font-family="sans-serif" font-size="14" lengthAdjust="spacing" textLength="46" x="16" y="674.1426">row = 1</text><text fill="#000000" font-family="sans-serif" font-size="14" lengthAdjust="spacing" textLength="69" x="16" y="691.752">column = 3</text></g><g id="elem_squareRed14"><rect fill="#FF0000" height="64.8281" style="stroke:#181818;stroke-width:0.5;" width="81" x="126" y="634"/><text fill="#000000" font-family="sans-serif" font-size="14" lengthAdjust="spacing" textLength="50" x="141.5" y="650.5332">:Square</text><line style="stroke:#181818;stroke-width:0.5;" x1="127" x2="206" y1="655.6094" y2="655.6094"/><text fill="#000000" font-family="sans-serif" font-size="14" lengthAdjust="spacing" textLength="46" x="132" y="674.1426">row = 1</text><text fill="#000000" font-family="sans-serif" font-size="14" lengthAdjust="spacing" textLength="69" x="132" y="691.752">column = 4</text></g><g id="elem_squareRed15"><rect fill="#FF0000" height="64.8281" style="stroke:#181818;stroke-width:0.5;" width="81" x="243" y="634"/><text fill="#000000" font-family="sans-serif" font-size="14" lengthAdjust="spacing" textLength="50" x="258.5" y="650.5332">:Square</text><line style="stroke:#181818;stroke-width:0.5;" x1="244" x2="323" y1="655.6094" y2="655.6094"/><text fill="#000000" font-family="sans-serif" font-size="14" lengthAdjust="spacing" textLength="46" x="249" y="674.1426">row = 1</text><text fill="#000000" font-family="sans-serif" font-size="14" lengthAdjust="spacing" textLength="69" x="249" y="691.752">column = 5</text></g><g id="elem_squareRed16"><rect fill="#FF0000" height="64.8281" style="stroke:#181818;stroke-width:0.5;" width="81" x="378" y="634"/><text fill="#000000" font-family="sans-serif" font-size="14" lengthAdjust="spacing" textLength="50" x="393.5" y="650.5332">:Square</text><line style="stroke:#181818;stroke-width:0.5;" x1="379" x2="458" y1="655.6094" y2="655.6094"/><text fill="#000000" font-family="sans-serif" font-size="14" lengthAdjust="spacing" textLength="46" x="384" y="674.1426">row = 1</text><text fill="#000000" font-family="sans-serif" font-size="14" lengthAdjust="spacing" textLength="69" x="384" y="691.752">column = 6</text></g><g id="elem_squareYellow17"><rect fill="#FFFF00" height="64.8281" style="stroke:#181818;stroke-width:0.5;" width="81" x="584" y="634"/><text fill="#000000" font-family="sans-serif" font-size="14" lengthAdjust="spacing" textLength="50" x="599.5" y="650.5332">:Square</text><line style="stroke:#181818;stroke-width:0.5;" x1="585" x2="664" y1="655.6094" y2="655.6094"/><text fill="#000000" font-family="sans-serif" font-size="14" lengthAdjust="spacing" textLength="46" x="590" y="674.1426">row = 1</text><text fill="#000000" font-family="sans-serif" font-size="14" lengthAdjust="spacing" textLength="69" x="590" y="691.752">column = 7</text></g><g id="elem_squareYellow27"><rect fill="#FFFF00" height="64.8281" style="stroke:#181818;stroke-width:0.5;" width="81" x="481" y="341"/><text fill="#000000" font-family="sans-serif" font-size="14" lengthAdjust="spacing" textLength="50" x="496.5" y="357.5332">:Square</text><line style="stroke:#181818;stroke-width:0.5;" x1="482" x2="561" y1="362.6094" y2="362.6094"/><text fill="#000000" font-family="sans-serif" font-size="14" lengthAdjust="spacing" textLength="46" x="487" y="381.1426">row = 2</text><text fill="#000000" font-family="sans-serif" font-size="14" lengthAdjust="spacing" textLength="69" x="487" y="398.752">column = 7</text></g><g id="elem_squareYellow37"><rect fill="#FFFF00" height="64.8281" style="stroke:#181818;stroke-width:0.5;" width="81" x="387" y="216"/><text fill="#000000" font-family="sans-serif" font-size="14" lengthAdjust="spacing" textLength="50" x="402.5" y="232.5332">:Square</text><line style="stroke:#181818;stroke-width:0.5;" x1="388" x2="467" y1="237.6094" y2="237.6094"/><text fill="#000000" font-family="sans-serif" font-size="14" lengthAdjust="spacing" textLength="46" x="393" y="256.1426">row = 3</text><text fill="#000000" font-family="sans-serif" font-size="14" lengthAdjust="spacing" textLength="69" x="393" y="273.752">column = 7</text></g><g id="elem_tokenRed1"><rect fill="#F1F1F1" height="47.2188" style="stroke:#181818;stroke-width:0.5;" width="125" x="820" y="225"/><text fill="#000000" font-family="sans-serif" font-size="14" lengthAdjust="spacing" textLength="111" x="827" y="241.5332">notPlaced :Token</text><line style="stroke:#181818;stroke-width:0.5;" x1="821" x2="944" y1="246.6094" y2="246.6094"/><text fill="#000000" font-family="sans-serif" font-size="14" lengthAdjust="spacing" textLength="71" x="826" y="265.1426">Color = red</text></g><g id="elem_tokenRed2"><rect fill="#F1F1F1" height="47.2188" style="stroke:#181818;stroke-width:0.5;" width="125" x="980" y="225"/><text fill="#000000" font-family="sans-serif" font-size="14" lengthAdjust="spacing" textLength="111" x="987" y="241.5332">notPlaced :Token</text><line style="stroke:#181818;stroke-width:0.5;" x1="981" x2="1104" y1="246.6094" y2="246.6094"/><text fill="#000000" font-family="sans-serif" font-size="14" lengthAdjust="spacing" textLength="71" x="986" y="265.1426">Color = red</text></g><g id="elem_tokenYellow1"><rect fill="#F1F1F1" height="47.2188" style="stroke:#181818;stroke-width:0.5;" width="125" x="1368" y="225"/><text fill="#000000" font-family="sans-serif" font-size="14" lengthAdjust="spacing" textLength="111" x="1375" y="241.5332">notPlaced :Token</text><line style="stroke:#181818;stroke-width:0.5;" x1="1369" x2="1492" y1="246.6094" y2="246.6094"/><text fill="#000000" font-family="sans-serif" font-size="14" lengthAdjust="spacing" textLength="88" x="1374" y="265.1426">Color = yellow</text></g><g id="elem_tokenYellow2"><rect fill="#F1F1F1" height="47.2188" style="stroke:#181818;stroke-width:0.5;" width="125" x="1528" y="225"/><text fill="#000000" font-family="sans-serif" font-size="14" lengthAdjust="spacing" textLength="111" x="1535" y="241.5332">notPlaced :Token</text><line style="stroke:#181818;stroke-width:0.5;" x1="1529" x2="1652" y1="246.6094" y2="246.6094"/><text fill="#000000" font-family="sans-serif" font-size="14" lengthAdjust="spacing" textLength="88" x="1534" y="265.1426">Color = yellow</text></g><g id="elem_tokenRed13"><rect fill="#F1F1F1" height="47.2188" style="stroke:#181818;stroke-width:0.5;" width="83" x="7" y="759"/><text fill="#000000" font-family="sans-serif" font-size="14" lengthAdjust="spacing" textLength="44" x="26.5" y="775.5332">:Token</text><line style="stroke:#181818;stroke-width:0.5;" x1="8" x2="89" y1="780.6094" y2="780.6094"/><text fill="#000000" font-family="sans-serif" font-size="14" lengthAdjust="spacing" textLength="71" x="13" y="799.1426">Color = red</text></g><g id="elem_tokenRed14"><rect fill="#F1F1F1" height="47.2188" style="stroke:#181818;stroke-width:0.5;" width="83" x="125" y="759"/><text fill="#000000" font-family="sans-serif" font-size="14" lengthAdjust="spacing" textLength="44" x="144.5" y="775.5332">:Token</text><line style="stroke:#181818;stroke-width:0.5;" x1="126" x2="207" y1="780.6094" y2="780.6094"/><text fill="#000000" font-family="sans-serif" font-size="14" lengthAdjust="spacing" textLength="71" x="131" y="799.1426">Color = red</text></g><g id="elem_tokenRed15"><rect fill="#F1F1F1" height="47.2188" style="stroke:#181818;stroke-width:0.5;" width="83" x="243" y="759"/><text fill="#000000" font-family="sans-serif" font-size="14" lengthAdjust="spacing" textLength="44" x="262.5" y="775.5332">:Token</text><line style="stroke:#181818;stroke-width:0.5;" x1="244" x2="325" y1="780.6094" y2="780.6094"/><text fill="#000000" font-family="sans-serif" font-size="14" lengthAdjust="spacing" textLength="71" x="249" y="799.1426">Color = red</text></g><g id="elem_tokenRed16"><rect fill="#F1F1F1" height="47.2188" style="stroke:#181818;stroke-width:0.5;" width="83" x="377" y="759"/><text fill="#000000" font-family="sans-serif" font-size="14" lengthAdjust="spacing" textLength="44" x="396.5" y="775.5332">:Token</text><line style="stroke:#181818;stroke-width:0.5;" x1="378" x2="459" y1="780.6094" y2="780.6094"/><text fill="#000000" font-family="sans-serif" font-size="14" lengthAdjust="spacing" textLength="71" x="383" y="799.1426">Color = red</text></g><g id="elem_tokenYellow17"><rect fill="#F1F1F1" height="47.2188" style="stroke:#181818;stroke-width:0.5;" width="100" x="574.5" y="759"/><text fill="#000000" font-family="sans-serif" font-size="14" lengthAdjust="spacing" textLength="44" x="602.5" y="775.5332">:Token</text><line style="stroke:#181818;stroke-width:0.5;" x1="575.5" x2="673.5" y1="780.6094" y2="780.6094"/><text fill="#000000" font-family="sans-serif" font-size="14" lengthAdjust="spacing" textLength="88" x="580.5" y="799.1426">Color = yellow</text></g><g id="elem_tokenYellow27"><rect fill="#F1F1F1" height="47.2188" style="stroke:#181818;stroke-width:0.5;" width="100" x="471.5" y="466"/><text fill="#000000" font-family="sans-serif" font-size="14" lengthAdjust="spacing" textLength="44" x="499.5" y="482.5332">:Token</text><line style="stroke:#181818;stroke-width:0.5;" x1="472.5" x2="570.5" y1="487.6094" y2="487.6094"/><text fill="#000000" font-family="sans-serif" font-size="14" lengthAdjust="spacing" textLength="88" x="477.5" y="506.1426">Color = yellow</text></g><g id="elem_tokenYellow37"><rect fill="#F1F1F1" height="47.2188" style="stroke:#181818;stroke-width:0.5;" width="100" x="274.5" y="350"/><text fill="#000000" font-family="sans-serif" font-size="14" lengthAdjust="spacing" textLength="44" x="302.5" y="366.5332">:Token</text><line style="stroke:#181818;stroke-width:0.5;" x1="275.5" x2="373.5" y1="371.6094" y2="371.6094"/><text fill="#000000" font-family="sans-serif" font-size="14" lengthAdjust="spacing" textLength="88" x="280.5" y="390.1426">Color = yellow</text></g><g id="elem_NYellow"><path d="M1392,360.5 L1392,386.8516 L1629,386.8516 L1629,370.5 L1619,360.5 L1392,360.5 " fill="#FEFFDD" style="stroke:#181818;stroke-width:0.5;"/><path d="M1619,360.5 L1619,370.5 L1629,370.5 L1619,360.5 " fill="#FEFFDD" style="stroke:#181818;stroke-width:1.0;"/><text fill="#000000" font-family="sans-serif" font-size="13" lengthAdjust="spacing" textLength="216" x="1398" y="378.9951">Idem all 18 remaining Player's tokens</text></g><g id="elem_NRed"><path d="M872,360.5 L872,386.8516 L1109,386.8516 L1109,370.5 L1099,360.5 L872,360.5 " fill="#FEFFDD" style="stroke:#181818;stroke-width:0.5;"/><path d="M1099,360.5 L1099,370.5 L1109,370.5 L1099,360.5 " fill="#FEFFDD" style="stroke:#181818;stroke-width:1.0;"/><text fill="#000000" font-family="sans-serif" font-size="13" lengthAdjust="spacing" textLength="216" x="878" y="378.9951">Idem all 17 remaining Player's tokens</text></g><g id="elem_NoteTokenPlaced"><path d="M1140,227 L1140,269.7031 L1333,269.7031 L1333,237 L1323,227 L1140,227 " fill="#FEFFDD" style="stroke:#181818;stroke-width:0.5;"/><path d="M1323,227 L1323,237 L1333,237 L1323,227 " fill="#FEFFDD" style="stroke:#181818;stroke-width:1.0;"/><text fill="#000000" font-family="sans-serif" font-size="13" lengthAdjust="spacing" textLength="124" x="1146" y="245.4951">are still associated to</text><text fill="#000000" font-family="sans-serif" font-size="13" lengthAdjust="spacing" textLength="172" x="1146" y="261.8467">their respective placed tokens</text></g><!--link connect4 to board--><g id="link_connect4_board"><path codeLine="95" d="M1121.0986,36.0824 C994.3486,54.7924 617.8158,110.3543 508.6858,126.4543 " fill="none" id="connect4-board" style="stroke:#181818;stroke-width:1.0;"/><polygon fill="#181818" points="1132.97,34.33,1126.4502,31.2491,1121.0986,36.0824,1127.6184,39.1633,1132.97,34.33" style="stroke:#181818;stroke-width:1.0;"/><polygon fill="#181818" points="502.75,127.33,512.2374,129.9736,507.6965,126.6002,511.0698,122.0593,502.75,127.33" style="stroke:#181818;stroke-width:1.0;"/></g><!--link connect4 to turn--><g id="link_connect4_turn"><path codeLine="96" d="M1217.3394,52.3061 C1249.9694,69.6261 1283.3107,87.3362 1318.4907,106.0162 " fill="none" id="connect4-turn" style="stroke:#181818;stroke-width:1.0;"/><polygon fill="#181818" points="1206.74,46.68,1210.1643,53.0262,1217.3394,52.3061,1213.9151,45.9599,1206.74,46.68" style="stroke:#181818;stroke-width:1.0;"/><polygon fill="#181818" points="1323.79,108.83,1317.717,101.0764,1319.3739,106.4851,1313.9652,108.1421,1323.79,108.83" style="stroke:#181818;stroke-width:1.0;"/></g><!--link connect4 to playerRed--><g id="link_connect4_playerRed"><path codeLine="97" d="M1146.9326,55.6456 C1130.5826,73.0056 1118.3839,85.9625 1100.8639,104.5625 " fill="none" id="connect4-playerRed" style="stroke:#181818;stroke-width:1.0;"/><polygon fill="#181818" points="1155.16,46.91,1148.1345,48.5353,1146.9326,55.6456,1153.9582,54.0202,1155.16,46.91" style="stroke:#181818;stroke-width:1.0;"/><polygon fill="#181818" points="1096.75,108.93,1105.8326,105.1213,1100.1783,105.2904,1100.0092,99.6361,1096.75,108.93" style="stroke:#181818;stroke-width:1.0;"/></g><!--link connect4 to playerYellow--><g id="link_connect4_playerYellow"><path codeLine="98" d="M1190.2746,57.1018 C1201.0646,74.4618 1207.7528,85.234 1219.3128,103.834 " fill="none" id="connect4-playerYellow" style="stroke:#181818;stroke-width:1.0;"/><polygon fill="#181818" points="1183.94,46.91,1183.7101,54.1174,1190.2746,57.1018,1190.5046,49.8943,1183.94,46.91" style="stroke:#181818;stroke-width:1.0;"/><polygon fill="#181818" points="1222.48,108.93,1221.1266,99.1746,1219.8407,104.6834,1214.3319,103.3975,1222.48,108.93" style="stroke:#181818;stroke-width:1.0;"/></g><!--link board to squareYellow37--><g id="link_board_squareYellow37"><path codeLine="101" d="M462.4791,162.6553 C455.3891,179.8653 451.416,189.4825 442.886,210.1825 " fill="none" id="board-squareYellow37" style="stroke:#181818;stroke-width:1.0;"/><polygon fill="#181818" points="467.05,151.56,461.0661,155.584,462.4791,162.6553,468.463,158.6313,467.05,151.56" style="stroke:#181818;stroke-width:1.0;"/><polygon fill="#181818" points="440.6,215.73,447.7273,208.9328,442.505,211.1071,440.3307,205.8848,440.6,215.73" style="stroke:#181818;stroke-width:1.0;"/></g><!--link board to squareYellow27--><g id="link_board_squareYellow27"><path codeLine="102" d="M480.4243,163.6347 C488.3943,204.1847 504.1223,284.1528 514.0923,334.8528 " fill="none" id="board-squareYellow27" style="stroke:#181818;stroke-width:1.0;"/><polygon fill="#181818" points="478.11,151.86,475.3422,158.5188,480.4243,163.6347,483.1921,156.9759,478.11,151.86" style="stroke:#181818;stroke-width:1.0;"/><polygon fill="#181818" points="515.25,340.74,517.4383,331.1373,514.2852,335.834,509.5886,332.6809,515.25,340.74" style="stroke:#181818;stroke-width:1.0;"/></g><!--link board to squareYellow17--><g id="link_board_squareYellow17"><path codeLine="103" d="M514.2133,145.1707 C587.4933,168.0807 766.5,237.06 766.5,372.5 C766.5,372.5 766.5,372.5 766.5,490.5 C766.5,555.25 712.0193,605.9143 670.0593,636.1243 " fill="none" id="board-squareYellow17" style="stroke:#181818;stroke-width:1.0;"/><polygon fill="#181818" points="502.76,141.59,507.2931,147.1981,514.2133,145.1707,509.6802,139.5626,502.76,141.59" style="stroke:#181818;stroke-width:1.0;"/><polygon fill="#181818" points="665.19,639.63,674.8311,637.6176,669.2477,636.7086,670.1568,631.1252,665.19,639.63" style="stroke:#181818;stroke-width:1.0;"/></g><!--link board to squareRed16--><g id="link_board_squareRed16"><path codeLine="104" d="M513.5799,152.829 C573.2699,183.959 695.5,260.32 695.5,372.5 C695.5,372.5 695.5,372.5 695.5,490.5 C695.5,601 541.9049,643.4422 464.9649,658.0322 " fill="none" id="board-squareRed16" style="stroke:#181818;stroke-width:1.0;"/><polygon fill="#181818" points="502.94,147.28,506.4103,153.6012,513.5799,152.829,510.1096,146.5079,502.94,147.28" style="stroke:#181818;stroke-width:1.0;"/><polygon fill="#181818" points="459.07,659.15,468.6577,661.4032,463.9825,658.2185,467.1672,653.5433,459.07,659.15" style="stroke:#181818;stroke-width:1.0;"/></g><!--link board to squareRed15--><g id="link_board_squareRed15"><path codeLine="105" d="M435.369,148.8015 C369.499,176.0115 221.5,249.84 221.5,372.5 C221.5,372.5 221.5,372.5 221.5,490.5 C221.5,543.04 243.8128,594.3279 262.0728,628.5079 " fill="none" id="board-squareRed15" style="stroke:#181818;stroke-width:1.0;"/><polygon fill="#181818" points="446.46,144.22,439.3873,142.8138,435.369,148.8015,442.4417,150.2078,446.46,144.22" style="stroke:#181818;stroke-width:1.0;"/><polygon fill="#181818" points="264.9,633.8,264.1873,623.977,262.544,629.3899,257.1311,627.7466,264.9,633.8" style="stroke:#181818;stroke-width:1.0;"/></g><!--link board to squareRed14--><g id="link_board_squareRed14"><path codeLine="106" d="M434.3142,139.4482 C387.8242,147.2182 306.34,166.24 245.5,216 C182.51,267.51 150.5,291.13 150.5,372.5 C150.5,372.5 150.5,372.5 150.5,490.5 C150.5,540.84 156.3477,593.0439 161.0677,628.0239 " fill="none" id="board-squareRed14" style="stroke:#181818;stroke-width:1.0;"/><polygon fill="#181818" points="446.15,137.47,439.5727,134.5138,434.3142,139.4482,440.8915,142.4044,446.15,137.47" style="stroke:#181818;stroke-width:1.0;"/><polygon fill="#181818" points="161.87,633.97,164.6306,624.5159,161.2014,629.0149,156.7024,625.5857,161.87,633.97" style="stroke:#181818;stroke-width:1.0;"/></g><!--link board to squareRed13--><g id="link_board_squareRed13"><path codeLine="107" d="M434.3717,135.2807 C376.8617,138.7407 255.89,152.81 168.5,216 C101.02,264.79 65.5,289.23 65.5,372.5 C65.5,372.5 65.5,372.5 65.5,490.5 C65.5,540.81 60.0236,593.0175 55.5936,628.0075 " fill="none" id="board-squareRed13" style="stroke:#181818;stroke-width:1.0;"/><polygon fill="#181818" points="446.35,134.56,440.1206,130.9275,434.3717,135.2807,440.601,138.9131,446.35,134.56" style="stroke:#181818;stroke-width:1.0;"/><polygon fill="#181818" points="54.84,633.96,59.9388,625.5337,55.468,628.9996,52.0021,624.5289,54.84,633.96" style="stroke:#181818;stroke-width:1.0;"/></g><!--link playerRed to tokenRed1--><g id="link_playerRed_tokenRed1"><path codeLine="110" d="M1037.37,156.02 C1003.64,175.94 959.8457,201.8079 926.0457,221.7779 " fill="none" id="playerRed-to-tokenRed1" style="stroke:#181818;stroke-width:1.0;"/><polygon fill="#181818" points="920.88,224.83,930.6633,223.6957,925.1848,222.2866,926.5939,216.8081,920.88,224.83" style="stroke:#181818;stroke-width:1.0;"/></g><!--link playerRed to tokenRed2--><g id="link_playerRed_tokenRed2"><path codeLine="111" d="M1068.98,156.02 C1063.23,175.88 1056.5697,198.917 1050.7897,218.867 " fill="none" id="playerRed-to-tokenRed2" style="stroke:#181818;stroke-width:1.0;"/><polygon fill="#181818" points="1049.12,224.63,1055.4665,217.0986,1050.5114,219.8275,1047.7825,214.8724,1049.12,224.63" style="stroke:#181818;stroke-width:1.0;"/></g><!--link playerYellow to tokenYellow1--><g id="link_playerYellow_tokenYellow1"><path codeLine="112" d="M1274.83,156.02 C1308.73,175.94 1352.7672,201.8199 1386.7472,221.7899 " fill="none" id="playerYellow-to-tokenYellow1" style="stroke:#181818;stroke-width:1.0;"/><polygon fill="#181818" points="1391.92,224.83,1386.1875,216.8214,1387.6093,222.2966,1382.1341,223.7185,1391.92,224.83" style="stroke:#181818;stroke-width:1.0;"/></g><!--link playerYellow to tokenYellow2--><g id="link_playerYellow_tokenYellow2"><path codeLine="113" d="M1286.55,150.56 C1292.25,152.43 1298,154.28 1303.5,156 C1394.92,184.59 1419.84,185.09 1510.5,216 C1518.55,218.75 1521.3833,219.6935 1529.6233,222.8335 " fill="none" id="playerYellow-to-tokenYellow2" style="stroke:#181818;stroke-width:1.0;"/><polygon fill="#181818" points="1535.23,224.97,1528.2443,218.0274,1530.5577,223.1896,1525.3956,225.503,1535.23,224.97" style="stroke:#181818;stroke-width:1.0;"/></g><!--link squareRed13 to tokenRed13--><g id="link_squareRed13_tokenRed13"><path codeLine="116" d="M49.7313,711.2582 C49.4013,730.2282 49.3055,735.8809 49.0055,752.9409 " fill="none" id="squareRed13-tokenRed13" style="stroke:#181818;stroke-width:1.0;"/><polygon fill="none" points="49.94,699.26,45.8362,705.1895,49.7313,711.2582,53.835,705.3287,49.94,699.26" style="stroke:#181818;stroke-width:1.0;"/><polygon fill="#181818" points="48.9,758.94,53.0576,750.0117,48.9879,753.9408,45.0589,749.8711,48.9,758.94" style="stroke:#181818;stroke-width:1.0;"/></g><!--link squareRed14 to tokenRed14--><g id="link_squareRed14_tokenRed14"><path codeLine="117" d="M166.5,711.26 C166.5,730.23 166.5,735.88 166.5,752.94 " fill="none" id="squareRed14-tokenRed14" style="stroke:#181818;stroke-width:1.0;"/><polygon fill="none" points="166.5,699.26,162.5,705.26,166.5,711.26,170.5,705.26,166.5,699.26" style="stroke:#181818;stroke-width:1.0;"/><polygon fill="#181818" points="166.5,758.94,170.5,749.94,166.5,753.94,162.5,749.94,166.5,758.94" style="stroke:#181818;stroke-width:1.0;"/></g><!--link squareRed15 to tokenRed15--><g id="link_squareRed15_tokenRed15"><path codeLine="118" d="M283.8812,711.2596 C284.0412,730.2296 284.0972,735.8802 284.2472,752.9402 " fill="none" id="squareRed15-tokenRed15" style="stroke:#181818;stroke-width:1.0;"/><polygon fill="none" points="283.78,699.26,279.8307,705.2935,283.8812,711.2596,287.8305,705.2261,283.78,699.26" style="stroke:#181818;stroke-width:1.0;"/><polygon fill="#181818" points="284.3,758.94,288.2207,749.9052,284.256,753.9402,280.221,749.9755,284.3,758.94" style="stroke:#181818;stroke-width:1.0;"/></g><!--link squareRed16 to tokenRed16--><g id="link_squareRed16_tokenRed16"><path codeLine="119" d="M418.5,711.26 C418.5,730.23 418.5,735.88 418.5,752.94 " fill="none" id="squareRed16-tokenRed16" style="stroke:#181818;stroke-width:1.0;"/><polygon fill="none" points="418.5,699.26,414.5,705.26,418.5,711.26,422.5,705.26,418.5,699.26" style="stroke:#181818;stroke-width:1.0;"/><polygon fill="#181818" points="418.5,758.94,422.5,749.94,418.5,753.94,414.5,749.94,418.5,758.94" style="stroke:#181818;stroke-width:1.0;"/></g><!--link squareYellow17 to tokenYellow17--><g id="link_squareYellow17_tokenYellow17"><path codeLine="121" d="M624.5,711.26 C624.5,730.23 624.5,735.88 624.5,752.94 " fill="none" id="squareYellow17-tokenYellow17" style="stroke:#181818;stroke-width:1.0;"/><polygon fill="none" points="624.5,699.26,620.5,705.26,624.5,711.26,628.5,705.26,624.5,699.26" style="stroke:#181818;stroke-width:1.0;"/><polygon fill="#181818" points="624.5,758.94,628.5,749.94,624.5,753.94,620.5,749.94,624.5,758.94" style="stroke:#181818;stroke-width:1.0;"/></g><!--link squareYellow27 to tokenYellow27--><g id="link_squareYellow27_tokenYellow27"><path codeLine="122" d="M521.5,418.26 C521.5,437.23 521.5,442.88 521.5,459.94 " fill="none" id="squareYellow27-tokenYellow27" style="stroke:#181818;stroke-width:1.0;"/><polygon fill="none" points="521.5,406.26,517.5,412.26,521.5,418.26,525.5,412.26,521.5,406.26" style="stroke:#181818;stroke-width:1.0;"/><polygon fill="#181818" points="521.5,465.94,525.5,456.94,521.5,460.94,517.5,456.94,521.5,465.94" style="stroke:#181818;stroke-width:1.0;"/></g><!--link squareYellow37 to tokenYellow37--><g id="link_squareYellow37_tokenYellow37"><path codeLine="123" d="M393.2647,290.3793 C375.2647,311.8693 363.4514,325.9793 347.3114,345.2593 " fill="none" id="squareYellow37-tokenYellow37" style="stroke:#181818;stroke-width:1.0;"/><polygon fill="none" points="400.97,281.18,394.0509,283.2112,393.2647,290.3793,400.1838,288.3481,400.97,281.18" style="stroke:#181818;stroke-width:1.0;"/><polygon fill="#181818" points="343.46,349.86,352.3043,345.5266,346.6695,346.0261,346.17,340.3913,343.46,349.86" style="stroke:#181818;stroke-width:1.0;"/></g><!--link tokenYellow1 to NYellow--><g id="link_tokenYellow1_NYellow"><path codeLine="128" d="M1445.17,272.06 C1462.04,298 1489.12,339.64 1502.5,360.2 " fill="none" id="tokenYellow1-NYellow" style="stroke:#181818;stroke-width:1.0;stroke-dasharray:7.0,7.0;"/></g><!--link tokenYellow2 to NYellow--><g id="link_tokenYellow2_NYellow"><path codeLine="129" d="M1575.83,272.06 C1558.96,298 1531.88,339.64 1518.5,360.2 " fill="none" id="tokenYellow2-NYellow" style="stroke:#181818;stroke-width:1.0;stroke-dasharray:7.0,7.0;"/></g><!--link tokenRed1 to NRed--><g id="link_tokenRed1_NRed"><path codeLine="134" d="M902.31,272.06 C925.08,298 961.64,339.64 979.7,360.2 " fill="none" id="tokenRed1-NRed" style="stroke:#181818;stroke-width:1.0;stroke-dasharray:7.0,7.0;"/></g><!--link tokenRed2 to NRed--><g id="link_tokenRed2_NRed"><path codeLine="135" d="M1032.96,272.06 C1022,298 1004.39,339.64 995.7,360.2 " fill="none" id="tokenRed2-NRed" style="stroke:#181818;stroke-width:1.0;stroke-dasharray:7.0,7.0;"/></g><!--link playerRed to NoteTokenPlaced--><g id="link_playerRed_NoteTokenPlaced"><path codeLine="141" d="M1107.31,156.02 C1136.45,176.66 1179.23,206.95 1207.46,226.94 " fill="none" id="playerRed-NoteTokenPlaced" style="stroke:#181818;stroke-width:1.0;stroke-dasharray:7.0,7.0;"/></g><!--link playerYellow to NoteTokenPlaced--><g id="link_playerYellow_NoteTokenPlaced"><path codeLine="142" d="M1236.5,156.02 C1236.5,176.66 1236.5,206.95 1236.5,226.94 " fill="none" id="playerYellow-NoteTokenPlaced" style="stroke:#181818;stroke-width:1.0;stroke-dasharray:7.0,7.0;"/></g><!--link squareYellow37 to squareYellow27--><!--link squareYellow27 to squareYellow17--><!--link squareYellow37 to squareRed16--><!--link squareYellow27 to squareRed16--><!--reverse link squareRed16 to squareYellow17--><!--reverse link squareRed15 to squareRed16--><!--reverse link squareRed14 to squareRed15--><!--reverse link squareRed13 to squareRed14--><!--SRC=[bLOzRzim4DtvAuXaC5100VHb5mRQeMc7BaNGPYcA38p4n6nfKXNfkcwG_zuZAUkJb6qlbkwzTqSUxquKKbDC5Fv8LL6pIZCfqAU_P5jnkiPtd1ne_PMMUC-4maoWZQpPFoaquM3I6om5F-0CLvmKmDBo5nKAKL5Y0NuHaey_QQ7nrVfM2W5FsPM9LJGl7Vn1ahgqsADvGaODtYg4uQT-xqXDbN69ovhiQMdDOCDqM-c3BzxzhXRMduQ75-GsWjzXiUCSlIAqgAn5BJg9urXHTTpt2xgLN1fX3L5VEpAUiBzJpkM-4npikutLRA0NwvkrMBK38LQSuklQXApb7lGnAYJVRGKyflt8NcaMK6OdbNaeQ7vIkWn9bsRNCsANgdY5hmzDqYOkLhFHdODauY2vp44wSP0E7Q25gsXRUgx6kqC4svqh-_MzORboCqycEQ7AcLKbbwkQN7hgxbnjugtPPkFZJVkscWQxn4FEBY7dbv2NvvAFvJUJiq2cBfUaAszsZnCGbxI2wKL5mSnyQCrlebBkHVI-6OTJknbh7dCxk8AOMnOimNeUnNUsLZ7ibJaqcKNZ06fFBGpbOIXheSY1qG1Esm4_sc2R7zmcybW-CrY2-haRmiqEJpAIzZimMb9__il9gj8Udddm3FL7-HJFKNzUJ_4bGgEPB7tRMw7HuFMnaY4hzREWaDpd7HhbIrEDdqkwnOHp7B-5tjqI9fXuRZwn2pMvLlHNTdDpTD9VIMVjOfckw0AjpWvaqWJ-ZBmjYEQzSmx_jl_Tf4Ncc9Lc48We9Gj6jBqT8RsXh8R8geBUP7zewEBKrY846hdk5zeKXIehcJASzjfKISNCjMunFftenuQLK8SF_eOUdNWqf4zR_2plhkR6hi-anZqgfq_QItML7kRbWuu9yx91vuruWr7p7m00]--></g></svg>